<svg width="1401" height="200" viewBox="0 0 1401 200" fill="none" xmlns="http://www.w3.org/2000/svg"> <path d="M707.648 112.468C707.648 112.068 707.648 111.768 707.648 111.368C707.648 100.668 700.648 91.9676 691.968 91.9676C688.795 91.9676 685.808 93.1676 683.288 95.1676C679.648 88.0676 673.208 83.2676 665.928 83.2676C657.621 83.2676 650.435 89.3676 647.261 98.2676C644.555 95.4676 640.915 93.7676 636.995 93.7676C635.315 93.7676 633.635 94.0676 632.141 94.6676C630.181 91.2676 627.008 88.9676 623.461 88.9676C620.008 88.9676 617.021 90.9676 615.061 94.0676C613.755 93.8676 612.355 93.6676 611.048 93.6676C603.208 93.6676 596.395 97.7676 593.221 103.668C591.728 102.668 589.955 102.068 588.088 102.068C582.861 102.068 578.475 106.468 577.635 112.268H707.648V112.468Z" fill="#ABE6FF"/> <path d="M737.048 109.367C735.275 104.767 730.981 101.467 725.941 101.467C720.995 101.467 716.701 104.767 714.835 109.367H737.048Z" fill="#ABE6FF"/> <path d="M1176.83 35.3673C1177.02 34.7673 1177.21 34.1673 1177.21 33.5673C1177.21 27.6673 1166.29 22.7673 1152.94 22.7673C1152.47 22.7673 1152.1 22.7673 1151.63 22.7673C1152.47 20.7673 1152.94 18.5673 1152.94 16.2673C1152.94 7.56729 1146.31 0.467285 1138.19 0.467285C1130.07 0.467285 1123.45 7.56729 1123.45 16.2673C1123.45 16.4673 1123.45 16.5673 1123.45 16.7673C1122.51 16.4673 1121.49 16.2673 1120.37 16.2673C1114.86 16.2673 1110.29 21.0673 1110.29 27.0673C1110.29 27.0673 1110.29 27.0673 1110.29 27.1673C1109.45 27.1673 1108.61 27.0673 1107.77 27.0673C1096.29 27.0673 1086.67 30.5673 1084.15 35.3673H1176.83Z" fill="#ABE6FF"/> <path d="M1400.18 163.368C1396.63 159.368 1390.01 156.668 1382.54 156.668C1379.55 156.668 1376.66 157.068 1374.14 157.868C1372.65 152.268 1367.98 148.168 1362.38 148.168C1358.27 148.168 1354.73 150.368 1352.49 153.768C1350.06 147.368 1344.27 142.768 1337.46 142.768C1330.09 142.768 1323.83 148.068 1321.87 155.268C1318.42 153.468 1314.03 152.468 1309.37 152.468C1299.47 152.468 1291.26 157.068 1289.3 163.268H1400.18V163.368Z" fill="#ABE6FF"/> <path d="M1243.47 47.9672C1242.07 40.7672 1236.19 35.3672 1229.01 35.3672C1221.91 35.3672 1215.94 40.7672 1214.54 47.9672H1243.47Z" fill="#ABE6FF"/> <path d="M1092.37 107.267C1091.71 100.567 1085.09 95.2672 1076.97 95.2672C1075.66 95.2672 1074.45 95.3672 1073.33 95.6672C1073.33 95.5672 1073.33 95.3672 1073.33 95.2672C1073.33 90.0672 1068.01 85.7672 1061.47 85.7672C1058.67 85.7672 1056.06 86.5672 1054.01 87.8672C1052.89 81.2672 1046.91 76.2672 1039.63 76.2672C1035.99 76.2672 1032.63 77.5672 1030.02 79.6672C1027.31 76.4672 1023.21 74.3672 1018.54 74.3672C1011.73 74.3672 1005.94 78.8672 1004.35 84.8672C1000.62 82.7672 995.768 81.5672 990.541 81.5672C980.461 81.5672 971.968 86.1672 969.821 92.2672C967.768 89.7672 964.781 88.2672 961.421 88.2672C955.168 88.2672 950.128 93.6672 950.128 100.367C950.128 100.667 950.128 100.967 950.128 101.267C948.635 100.667 946.955 100.367 945.275 100.367C940.141 100.367 935.568 103.167 932.861 107.467H1092.37V107.267Z" fill="#ABE6FF"/> <path d="M877.981 144.367C877.981 144.067 877.981 143.767 877.981 143.467C877.981 134.367 883.955 127.067 891.235 127.067C893.941 127.067 896.461 128.067 898.515 129.767C901.595 123.767 907.008 119.667 913.168 119.667C920.168 119.667 926.235 124.867 928.941 132.267C931.275 129.967 934.261 128.467 937.621 128.467C939.021 128.467 940.421 128.767 941.728 129.267C943.315 126.367 946.021 124.467 949.101 124.467C951.995 124.467 954.608 126.167 956.195 128.767C957.315 128.567 958.435 128.467 959.648 128.467C966.275 128.467 971.968 131.967 974.675 136.867C975.981 136.067 977.475 135.567 979.061 135.567C983.541 135.567 987.181 139.267 987.928 144.267H877.981V144.367Z" fill="#F0FFFF"/> <path d="M1187.01 199.567C1184.73 198.146 1182.67 187.786 1170.41 186.771C1169.65 186.771 1168.78 186.872 1168.02 186.974C1168.02 186.872 1168.02 186.872 1168.02 186.771C1168.02 179.458 1161.73 173.567 1153.92 173.567C1146.11 173.567 1139.81 179.458 1139.81 186.771C1139.81 186.872 1139.81 186.872 1139.81 186.974C1139.16 186.872 1138.4 186.771 1137.65 186.771C1129.94 186.771 1123.76 192.458 1123.54 199.567" fill="#F0FFFF"/> <path d="M843.261 134.367C844.475 134.367 845.688 134.567 846.808 134.967C849.141 133.167 851.941 132.067 855.021 132.067C861.648 132.067 867.155 137.067 868.461 143.767H832.341C833.461 138.367 837.941 134.367 843.261 134.367Z" fill="#F0FFFF"/> <path d="M830.195 173.067C827.861 170.467 823.475 168.667 818.528 168.667C816.568 168.667 814.608 168.967 812.928 169.467C811.901 165.767 808.821 163.067 805.181 163.067C802.475 163.067 800.141 164.567 798.648 166.767C797.061 162.567 793.235 159.567 788.661 159.567C783.808 159.567 779.608 163.067 778.395 167.867C776.061 166.667 773.261 165.967 770.088 165.967C763.555 165.967 758.048 169.067 756.835 173.067H830.195Z" fill="#F0FFFF"/> </svg>
