<svg width="202" height="130" viewBox="0 0 202 130" fill="none" xmlns="http://www.w3.org/2000/svg">
<rect x="114.137" y="71.9041" width="61.8767" height="35.1644" rx="10" fill="#0F80BF" stroke="black" stroke-width="4"/>
<g clip-path="url(#clip0)">
<path d="M171.337 81.8134L159.332 80.2178C152.907 88.3383 141.115 89.7118 132.996 83.2875C131.859 82.387 130.829 81.3575 129.927 80.2178L117.922 81.8134C110.375 82.822 104.739 89.2615 104.739 96.8767V113.973H184.52V96.8767C184.52 89.2615 178.884 82.822 171.337 81.8134Z" fill="#74A32E"/>
<path d="M159.332 80.2178C157.429 79.969 156.009 78.3393 156.027 76.4187V66.4841H133.232V76.4567C133.249 78.3771 131.83 80.007 129.927 80.2559C136.363 88.3669 148.155 89.727 156.268 83.2913C157.404 82.3889 158.433 81.3576 159.332 80.2178Z" fill="#E2A583"/>
<path d="M156.027 74.88V66.4841H133.232V74.88C141.78 78.888 147.479 78.888 156.027 74.88Z" fill="#BB8068"/>
<path d="M165.524 34.1919H163.625V45.5892H165.524C168.672 45.5892 171.223 43.0381 171.223 39.8905C171.223 36.7429 168.672 34.1919 165.524 34.1919Z" fill="#E3B59B"/>
<path d="M123.734 34.1919C120.587 34.1919 118.036 36.7429 118.036 39.8905C118.036 43.0381 120.587 45.5892 123.734 45.5892H125.634V34.1919H123.734Z" fill="#E3B59B"/>
<path d="M165.524 30.3927V51.2877C165.549 54.0801 164.55 56.7831 162.713 58.8858L154.507 68.1746C153.067 69.8138 150.991 70.7561 148.808 70.7579H140.488C138.306 70.7559 136.229 69.8138 134.79 68.1746L126.545 58.8858C124.709 56.7831 123.71 54.0801 123.734 51.2877V26.5937C129.499 25.6515 135.207 24.3826 140.83 22.7946C145.368 21.1495 149.807 19.2481 154.127 17.0959C155.865 19.7458 157.768 22.2837 159.825 24.694L165.524 30.3927Z" fill="#E2A583"/>
<path d="M104.739 96.8766V113.972H112.337V83.7317C107.639 86.4443 104.744 91.4533 104.739 96.8766Z" fill="#688E26"/>
<path d="M159.826 9.49776C159.826 5.8887 157.052 1.89966 144.629 1.89966C121.835 1.89966 116.136 24.6942 116.136 24.6942C133.479 27.5816 148.618 20.5912 154.868 17.0961C156.311 20.4202 159.864 29.0062 165.524 30.3928L166.645 19.1284C167.093 14.6664 164.183 10.5558 159.826 9.49776Z" fill="#A15D30"/>
<path d="M132.073 47.4886L131.332 24.6941L123.734 26.5936V49.844C123.744 54.211 125.634 58.3634 128.92 61.2412C128.92 61.2412 136.651 69.7133 137.772 70.2831L133.593 58.373C132.345 54.8875 131.826 51.1834 132.073 47.4886Z" fill="#BB8068"/>
<path d="M119.802 16.3362C118.218 18.95 116.985 21.7595 116.136 24.6942C132.434 27.4107 147.27 20.7433 154.127 17.0961C137.031 20.8951 127.533 18.9954 119.802 16.3362Z" fill="#8F4F24"/>
<path d="M165.524 45.589H163.625V41.7898H165.524C167.619 41.7898 169.323 40.086 169.323 37.9907C169.323 35.8955 167.619 34.1915 165.524 34.1915H163.625V30.3923H165.524C169.715 30.3923 173.122 33.8002 173.122 37.9904C173.122 42.1807 169.715 45.589 165.524 45.589Z" fill="black"/>
<path d="M125.634 47.4884H123.734C119.544 47.4884 116.136 44.0806 116.136 39.8903C116.136 35.7001 119.544 32.2922 123.734 32.2922H125.634V36.0914H123.734C121.639 36.0914 119.935 37.7952 119.935 39.8906C119.935 41.9859 121.639 43.6897 123.734 43.6897H125.634V47.4884Z" fill="black"/>
<path d="M146.529 47.5646H140.83C140.285 47.5646 139.766 47.3308 139.405 46.9226C139.045 46.5143 138.877 45.9709 138.944 45.4296L140.843 30.2332L144.612 30.7042L142.98 43.7654H146.529V47.5646H146.529Z" fill="black"/>
<path d="M148.812 72.2587H140.488C137.757 72.2549 135.162 71.0772 133.363 69.0294L125.155 59.6438C123.01 57.1858 121.846 54.0382 121.874 50.7787V24.6941H125.674V50.7938C125.653 53.1398 126.485 55.3888 128.016 57.144L136.22 66.524C137.297 67.7512 138.855 68.4578 140.492 68.4596H148.808C150.44 68.4576 151.999 67.751 153.08 66.52L161.288 57.2275C162.813 55.4818 163.645 53.2326 163.622 50.904V28.4933H167.422V50.8889C167.452 54.1313 166.286 57.2789 164.139 59.7369L155.927 69.0332C154.135 71.0772 151.538 72.2549 148.812 72.2587Z" fill="black"/>
<path d="M165.524 32.2923C165.374 32.2923 165.222 32.2752 165.072 32.2373C159.451 30.8601 155.844 23.9345 153.952 19.7422C146.939 23.3588 132.29 29.3159 115.825 26.5672C115.302 26.4797 114.839 26.1779 114.548 25.7351C114.257 25.2926 114.166 24.7474 114.294 24.2325C114.354 23.9912 120.629 0 144.629 0C157.231 0 160.954 4.1088 161.609 8.07113C166.113 9.80721 169.027 14.4137 168.535 19.3184L167.414 30.5807C167.361 31.1279 167.07 31.6254 166.62 31.9426C166.297 32.1726 165.914 32.2923 165.524 32.2923ZM154.868 15.1964C155.071 15.1964 155.278 15.2307 155.474 15.2953C155.985 15.4662 156.395 15.8462 156.61 16.3382L156.756 16.6763C157.827 19.1514 160.393 25.0742 163.898 27.5569L164.755 18.9406C165.108 15.4397 162.796 12.1744 159.377 11.3443C158.524 11.1373 157.926 10.3735 157.926 9.49801C157.926 4.78907 150.695 3.79938 144.629 3.79938C127.285 3.79938 120.562 17.7744 118.623 23.1311C134.611 25.0343 148.538 18.4602 153.941 15.4399C154.228 15.2781 154.547 15.1964 154.868 15.1964Z" fill="black"/>
<path d="M106.638 113.973H102.839V96.8767C102.839 88.3477 109.214 81.0631 117.671 79.9309L129.676 78.3353C130.63 78.21 131.34 77.393 131.332 76.4358V66.4841H135.132V76.4187C135.156 79.2755 133.025 81.726 130.174 82.1002L118.172 83.6958C111.596 84.5753 106.638 90.2416 106.638 96.8767V113.973Z" fill="black"/>
<path d="M186.419 113.973H182.62V96.8767C182.603 90.2643 177.645 84.6113 171.084 83.7338L159.083 82.1382C156.235 81.7678 154.104 79.3174 154.129 76.4396V66.4841H157.928V76.4567C157.918 77.4331 158.629 78.248 159.58 78.3733L171.587 79.969C180.023 81.0973 186.4 88.3631 186.421 96.873V113.973H186.419Z" fill="black"/>
<path d="M121.835 98.7761H118.036V113.973H121.835V98.7761Z" fill="black"/>
<path d="M171.223 98.7761H167.424V113.973H171.223V98.7761Z" fill="black"/>
<path d="M144.65 89.2235C138.551 89.2235 132.506 86.5413 128.438 81.3974L131.416 79.0421C137.179 86.3267 147.8 87.5577 155.084 81.7983C156.104 80.9892 157.033 80.0623 157.844 79.0403L160.819 81.3994C159.829 82.6511 158.692 83.7871 157.442 84.7768C153.656 87.7703 149.137 89.2235 144.65 89.2235Z" fill="black"/>
</g>
<path d="M137.507 53.4246C140.178 56.0958 146.856 56.541 149.973 53.4246" stroke="black" stroke-width="3" stroke-linecap="round" stroke-linejoin="round"/>
<path d="M167.671 114.753V80.4527L161.657 79.661V114.753H167.671Z" fill="#11416D" stroke="black" stroke-width="2"/>
<path d="M121.589 114.753V80.419L127.603 79.6195V114.753H121.589Z" fill="#11416D" stroke="black" stroke-width="2"/>
<g clip-path="url(#clip1)">
<path d="M83.9634 79.7805V34.1915C83.9634 13.2964 76.365 1.89917 57.3697 1.89917C47.2642 1.89917 38.3744 5.69833 32.6757 17.0956C28.3067 25.6055 30.7763 74.0818 30.7763 79.7805H83.9634Z" fill="#70432C"/>
<path d="M56.287 1.89917C46.6563 2.1841 38.2604 6.17314 32.6757 17.0956C28.3067 25.6055 30.7763 74.0818 30.7763 79.7805H49.7716C47.8721 60.7851 44.073 47.4882 44.073 37.9906C44.073 15.7279 51.4621 5.69833 56.287 1.89917Z" fill="#5C3724"/>
<path d="M78.2647 32.292C70.6666 24.6939 66.8674 11.397 66.8674 11.397C66.8674 11.397 59.2694 20.8948 36.4749 32.292V34.1915L37.5195 47.4882C37.9868 58.1123 46.7362 66.4835 57.3697 66.4835C68.0034 66.4835 76.7526 58.1123 77.2198 47.4882L78.2647 32.292Z" fill="#E3B59B"/>
<path d="M36.4747 31.969L37.5194 47.1655C37.8215 54.5205 42.1734 61.1024 48.8216 64.2613C43.5408 52.5792 42.3822 40.0041 42.1731 30.3926C40.4638 31.4504 38.4864 31.9975 36.4747 31.969Z" fill="#C69E8E"/>
<path d="M97.2601 91.2917C97.2621 83.6308 91.5635 77.1667 83.9634 76.2093L74.4656 75.0315V113.972H97.2601V91.2917Z" fill="#E95760"/>
<path d="M30.7761 76.21C23.176 77.1675 17.4774 83.6316 17.4794 91.2925V113.973H40.2739V75.0325L30.7761 76.21Z" fill="#E95760"/>
<path d="M40.2739 94.9768V113.972H74.4657V94.9768C63.5833 99.8206 51.1563 99.8206 40.2739 94.9768Z" fill="#DBDBDB"/>
<path d="M70.1917 74.4996C68.2807 74.2583 66.8522 72.6267 66.8676 70.7005V62.6846H47.8723V70.7196C47.8874 72.6458 46.459 74.2775 44.5481 74.5188L40.2742 75.0317V94.9769C51.1565 99.8207 63.5835 99.8207 74.4659 94.9769V75.0317L70.1917 74.4996Z" fill="#E3B59B"/>
<path d="M47.872 43.6892H42.1734C39.0258 43.6892 36.4747 41.1382 36.4747 37.9906V34.1915C36.4747 33.143 37.3257 32.292 38.3742 32.292H53.5706V37.9906C53.5706 41.138 51.0196 43.6892 47.872 43.6892Z" fill="#EBEBEB"/>
<path d="M70.6665 43.6892H64.9679C61.8203 43.6892 59.2693 41.1382 59.2693 37.9906V32.292H74.4657C75.5142 32.292 76.3652 33.143 76.3652 34.1915V37.9906C76.3652 41.138 73.8141 43.6892 70.6665 43.6892Z" fill="#EBEBEB"/>
<path d="M66.8675 71.2325V64.584H47.8722V71.2325C53.6334 75.0334 61.1061 75.0334 66.8675 71.2325Z" fill="#C69E8E"/>
<path d="M25.0775 78.1467C20.3799 80.8594 17.4852 85.8684 17.4794 91.2916V113.972H25.0775V78.1467Z" fill="#DF3453"/>
<path d="M47.872 97.5031C45.262 96.9106 42.7185 96.0651 40.2739 94.9768V113.972H47.872V97.5031Z" fill="#BFBFBF"/>
<path d="M80.1642 32.292H78.2648V43.6892H80.1642C83.3118 43.6892 85.8629 41.1382 85.8629 37.9906C85.8629 34.843 83.3118 32.292 80.1642 32.292Z" fill="#E3B59B"/>
<path d="M56.7694 49.2908L51.0708 47.3913C50.1058 47.0703 49.5664 46.0464 49.8456 45.0663L53.6447 31.7695L57.2976 32.8142L53.9982 44.3615L57.9721 45.6855L56.7694 49.2908Z" fill="black"/>
<path d="M80.1642 45.5887H78.2648V41.7896H80.1642C82.2594 41.7896 83.9634 40.0858 83.9634 37.9904C83.9634 35.8953 82.2596 34.1912 80.1642 34.1912H78.2648V30.3921H80.1642C84.3547 30.3921 87.7623 33.7999 87.7623 37.9902C87.7623 42.1805 84.3547 45.5887 80.1642 45.5887Z" fill="black"/>
<path d="M57.3698 68.3833C45.6896 68.3833 36.1366 59.2408 35.6219 47.5719L34.5848 36.264L38.3669 35.9162L39.4115 47.3135C39.8409 57.0372 47.7277 64.5841 57.3698 64.5841C67.0118 64.5841 74.8988 57.0372 75.3224 47.4048L76.3691 30.2766L80.1607 30.5083L79.116 47.6042C78.6047 59.2428 69.0499 68.3833 57.3698 68.3833Z" fill="black"/>
<path d="M32.6759 77.881H28.8767C28.8767 76.937 28.8064 74.8608 28.7153 72.019C27.9271 48.1514 27.5832 22.8588 30.9852 16.2275C36.5547 5.30905 45.1843 -0.000244141 57.3698 -0.000244141C76.5437 -0.000244141 85.8629 11.1842 85.8629 34.1915H82.0638C82.0638 13.1732 74.4466 3.79891 57.3698 3.79891C46.7515 3.79891 39.2273 8.42994 34.3683 17.958C30.9549 24.6102 32.0851 58.9616 32.5105 71.8935C32.6055 74.7962 32.6759 76.9178 32.6759 77.881Z" fill="black"/>
<path d="M39.2235 33.9919L37.5234 30.5937C59.3777 19.6675 65.1883 10.5023 65.2452 10.411C65.6384 9.769 66.3698 9.41373 67.1238 9.52013C67.8704 9.62275 68.4877 10.1508 68.6929 10.8744C68.731 11.0018 72.456 23.797 79.6078 30.9487L76.9219 33.6349C71.4018 28.1148 67.8535 19.905 66.1742 15.3176C62.7416 19.1052 54.9554 26.1241 39.2235 33.9919Z" fill="black"/>
<path d="M85.8629 41.7896H82.0637V75.9813H85.8629V41.7896Z" fill="black"/>
<path d="M19.3789 113.972H15.58V91.2916C15.578 82.6943 22.008 75.4 30.5388 74.3249L44.2952 72.6153C45.2469 72.4955 45.9612 71.6788 45.9554 70.7158V64.584H49.7546V70.7004C49.7773 73.5762 47.6327 76.0266 44.7683 76.3839L31.0137 78.0935C24.3785 78.9294 19.3771 84.6033 19.3789 91.2916V113.972Z" fill="black"/>
<path d="M99.1596 113.972H95.3604V91.2916C95.3624 84.6033 90.3608 78.9294 83.7257 78.0955L69.9768 76.3859C67.1086 76.0289 64.964 73.5765 64.9868 70.6873V64.584H68.7859V70.7004C68.7783 71.6788 69.4925 72.4955 70.4461 72.6153L84.1969 74.3249C92.7297 75.398 99.1616 82.6923 99.1596 91.2916V113.972Z" fill="black"/>
<path d="M42.1735 74.0818H38.3744V113.972H42.1735V74.0818Z" fill="black"/>
<path d="M76.3653 74.0818H72.5662V113.972H76.3653V74.0818Z" fill="black"/>
<path d="M57.3698 100.505C51.2761 100.505 45.1806 99.2396 39.5009 96.7113L41.0453 93.2427C51.4188 97.8623 63.3193 97.8623 73.6908 93.2427L75.237 96.7113C69.5611 99.2394 63.4654 100.505 57.3698 100.505Z" fill="black"/>
<path d="M47.872 45.5887H42.1734C37.9829 45.5887 34.5753 42.1809 34.5753 37.9907V34.1915C34.5753 32.0964 36.2791 30.3923 38.3745 30.3923H53.5709C54.6193 30.3923 55.4704 31.2433 55.4704 32.2918V37.9904C55.4704 42.1809 52.0625 45.5887 47.872 45.5887ZM38.3745 34.1915V37.9907C38.3745 40.0858 40.0783 41.7898 42.1736 41.7898H47.8723C49.9674 41.7898 51.6714 40.086 51.6714 37.9907V34.1915H38.3745Z" fill="black"/>
<path d="M70.6665 45.5888H64.9678C60.7773 45.5888 57.3698 42.1809 57.3698 37.9907V32.292C57.3698 31.2436 58.2208 30.3926 59.2692 30.3926H74.4656C76.5608 30.3926 78.2648 32.0964 78.2648 34.1917V37.9909C78.2648 42.1809 74.857 45.5888 70.6665 45.5888ZM61.1689 34.1915V37.9907C61.1689 40.0858 62.8727 41.7898 64.9681 41.7898H70.6667C72.7618 41.7898 74.4658 40.086 74.4658 37.9907V34.1915H61.1689Z" fill="black"/>
<path d="M59.2693 30.3923H53.5707V34.1915H59.2693V30.3923Z" fill="black"/>
<path d="M49.4059 36.0909C49.4059 37.9871 47.8687 39.5243 45.9725 39.5243C44.0763 39.5243 42.5391 37.9871 42.5391 36.0909C42.5391 34.1947 44.0763 32.6575 45.9725 32.6575C47.8687 32.6575 49.4059 34.1947 49.4059 36.0909Z" fill="black" stroke="black" stroke-width="0.731498"/>
<path d="M72.2003 36.0909C72.2003 37.9871 70.6632 39.5243 68.7669 39.5243C66.8707 39.5243 65.3335 37.9871 65.3335 36.0909C65.3335 34.1947 66.8707 32.6575 68.7669 32.6575C70.6632 32.6575 72.2003 34.1947 72.2003 36.0909Z" fill="black" stroke="black" stroke-width="0.731498"/>
</g>
<path d="M59.1504 119.76V119.76C54.9704 119.76 51.5819 116.372 51.5819 112.192V101.467C51.5819 94.8869 47.5003 89.2311 43.5125 83.9966C38.4944 77.4096 35.8516 66.8204 33.7737 46.3013" stroke="black" stroke-width="3"/>
<path d="M63.1575 119.76V102.461C63.1575 95.2663 67.6898 89.0914 71.8119 83.1948C76.4534 76.5553 78.9701 66.0079 80.9657 46.3013" stroke="black" stroke-width="3"/>
<path d="M32.3458 28.7739C28.6179 28.7739 25.5958 31.796 25.5958 35.5239V40.1609C25.5958 43.8888 28.6179 46.9109 32.3458 46.9109H33.6095C35.2664 46.9109 36.6095 45.5678 36.6095 43.9109V31.7739C36.6095 30.1171 35.2664 28.7739 33.6095 28.7739H32.3458Z" fill="#959CB5" stroke="black" stroke-width="3"/>
<path d="M82.3938 28.7739C86.1217 28.7739 89.1438 31.796 89.1438 35.5239V40.1609C89.1438 43.8888 86.1217 46.9109 82.3938 46.9109H81.1301C79.4732 46.9109 78.1301 45.5678 78.1301 43.9109V31.7739C78.1301 30.1171 79.4732 28.7739 81.1301 28.7739H82.3938Z" fill="#959CB5" stroke="black" stroke-width="3"/>
<path d="M136.396 63.6523H70.0525C66.7342 63.6523 64.0348 66.3456 64.0348 69.656V117.213C64.0348 117.935 64.6191 118.519 65.3411 118.519H141.11C141.832 118.519 142.416 117.935 142.416 117.213V69.656C142.416 66.3456 139.716 63.6523 136.396 63.6523ZM69.2602 109.375V70.1841C69.2602 69.4627 69.8451 68.8778 70.5666 68.8778H135.885C136.606 68.8778 137.191 69.4627 137.191 70.1841V109.375C137.191 110.096 136.606 110.681 135.885 110.681H70.5666C69.8451 110.681 69.2602 110.096 69.2602 109.375Z" fill="#507087"/>
<path d="M70.0526 62.1287C65.8962 62.1287 62.5112 65.5006 62.5112 69.656V117.213C62.5112 118.777 63.7776 120.043 65.3412 120.043H141.11C142.674 120.043 143.94 118.777 143.94 117.213V69.656C143.94 65.5 140.553 62.1287 136.396 62.1287H70.0526ZM65.5584 69.656C65.5584 67.1902 67.5725 65.1759 70.0526 65.1759H136.396C138.878 65.1759 140.893 67.1908 140.893 69.656V116.996H65.5584V69.656ZM70.7839 109.158V70.4013H135.667V109.158H70.7839ZM70.5666 67.3541C69.0037 67.3541 67.7367 68.6212 67.7367 70.1841V109.375C67.7367 110.938 69.0037 112.205 70.5666 112.205H135.885C137.447 112.205 138.715 110.938 138.715 109.375V70.1841C138.715 68.6212 137.447 67.3541 135.885 67.3541H70.5666Z" fill="black" stroke="black" stroke-width="2"/>
<path d="M61.0349 114.907H145.417C146.682 114.907 147.778 115.9 147.777 117.213L61.0349 114.907ZM61.0349 114.907C59.7694 114.907 58.674 115.9 58.674 117.213M61.0349 114.907L58.674 117.213M58.674 117.213C58.674 120.688 61.6049 123.444 65.1232 123.444M58.674 117.213L65.1232 123.444M65.1232 123.444H141.328M65.1232 123.444H141.328M141.328 123.444C144.846 123.444 147.777 120.688 147.777 117.213L141.328 123.444Z" fill="#507087" stroke="black" stroke-width="2"/>
<path d="M60.1977 117.213H59.1505L60.3479 118.367C60.2498 117.997 60.1977 117.61 60.1977 117.213Z" fill="black"/>
<path d="M61.0351 115.383C60.0141 115.383 59.1505 116.182 59.1505 117.213H60.1977C60.1977 116.8 60.5516 116.43 61.0351 116.43H145.417C145.9 116.43 146.254 116.8 146.254 117.213H147.301C147.301 116.182 146.438 115.383 145.417 115.383H61.0351Z" fill="black"/>
<path d="M59.1505 117.213C59.1505 120.407 61.8495 122.967 65.1234 122.967L63.8789 121.768C62.1415 121.335 60.7859 120.018 60.3479 118.367L59.1505 117.213Z" fill="black"/>
<path d="M141.328 121.92H80.0793L65.1234 122.967H141.328C144.602 122.967 147.301 120.407 147.301 117.213L146.253 117.286C146.212 119.829 144.039 121.92 141.328 121.92Z" fill="black"/>
<path d="M63.8789 121.768L65.1234 122.967L80.0793 121.92H65.1234C64.6929 121.92 64.2759 121.867 63.8789 121.768Z" fill="black"/>
<path d="M147.301 117.213H146.254C146.254 117.238 146.254 117.262 146.253 117.286L147.301 117.213Z" fill="black"/>
<path d="M64.5634 72.1632C64.5634 67.7518 68.1396 64.1755 72.5511 64.1755H133.913C138.325 64.1755 141.901 67.7518 141.901 72.1632V115.383H64.5634V72.1632Z" fill="#2A3B47"/>
<g style="mix-blend-mode:soft-light">
<path d="M64.5634 72.1632C64.5634 67.7518 68.1396 64.1755 72.5511 64.1755H115.774L90.9272 115.383H64.5634V72.1632Z" fill="url(#paint0_linear)"/>
</g>
<ellipse cx="103.232" cy="90.3295" rx="8.0407" ry="8.04071" fill="white"/>
<path fillRule="evenodd" clipRule="evenodd" d="M103.018 94.5006C101.58 94.4126 100.204 93.5334 99.5345 92.2484C98.9135 91.056 98.9233 89.558 99.558 88.3747C100.269 87.0501 101.678 86.2424 103.238 86.1729C103.238 86.1729 103.626 86.1481 103.885 86.0011C104.652 85.5649 104.767 84.2772 103.942 83.7514C103.72 83.6099 103.455 83.5444 103.19 83.5452C100.584 83.5701 98.0635 85.1989 97.0041 87.6154C96.1137 89.6465 96.2989 92.1096 97.5086 93.9931C98.4713 95.4919 100.041 96.588 101.783 96.9669C104.166 97.4857 106.807 96.6041 108.4 94.7453C109.979 92.9022 110.462 90.1776 109.577 87.8903C109.07 86.579 108.172 85.3832 106.969 84.6638C106.906 84.6262 106.84 84.5953 106.773 84.5706C107.982 85.6065 108.749 87.1437 108.749 88.8583C108.749 91.9747 106.216 94.5048 103.095 94.5048C103.07 94.5048 103.067 94.5035 103.018 94.5006Z" fill="#1292EE"/>
<ellipse cx="103.226" cy="123.767" rx="50.3082" ry="6.23288" fill="black" fill-opacity="0.3"/>
<path d="M50.2466 53.4246C52.9178 56.0958 59.5959 56.541 62.7123 53.4246" stroke="black" stroke-width="3" stroke-linecap="round" stroke-linejoin="round"/>
<ellipse cx="133.945" cy="36.507" rx="4.45206" ry="3.56165" fill="black"/>
<ellipse cx="153.534" cy="36.507" rx="4.45206" ry="3.56165" fill="black"/>
<defs>
<linearGradient id="paint0_linear" x1="95.7961" y1="32.0163" x2="119.466" y2="125.602" gradientUnits="userSpaceOnUse">
<stop stop-color="white"/>
<stop offset="0.653542" stop-color="white" stop-opacity="0"/>
</linearGradient>
<clipPath id="clip0">
<rect width="113.973" height="113.973" fill="white" transform="translate(87.6438)"/>
</clipPath>
<clipPath id="clip1">
<rect width="113.973" height="113.973" fill="white" transform="translate(0.383545)"/>
</clipPath>
</defs>
</svg>
