<svg width="202" height="130" viewBox="0 0 202 130" fill="none" xmlns="http://www.w3.org/2000/svg">
<g clip-path="url(#clip0)">
<path d="M83.9635 62.6849V28.4931C83.9635 13.8058 72.0572 1.89941 57.3698 1.89941C42.6825 1.89941 30.7761 13.8058 30.7761 28.4931V62.6849H83.9635Z" fill="#FECB66"/>
<path d="M64.9679 11.8152C51.6712 19.2234 39.7991 20.8952 32.6758 20.4393C32.0527 22.4318 31.7335 24.5062 31.726 26.5938V32.4445L36.4747 32.2924L64.9679 17.096V11.8152Z" fill="#F5AD76"/>
<path d="M57.3698 37.991H30.7761V62.685H57.3698V37.991Z" fill="#F5AD76"/>
<path d="M83.9636 76.2097L75.8527 75.2028L72.2814 74.7659L57.3699 108.274L42.4776 74.7661L38.9064 75.2031L30.7762 76.2099C23.1761 77.1673 17.4775 83.6315 17.4795 91.2924V113.973H97.2604V91.2921C97.2624 83.6313 91.5637 77.1671 83.9636 76.2097Z" fill="#787D82"/>
<path d="M44.0731 93.0775L42.1734 100.676L57.3698 108.274L42.4775 74.7471L38.9062 75.203L30.7761 93.0775H44.0731Z" fill="#868C91"/>
<path d="M70.6666 93.0775H83.9636L75.8334 75.203L72.2622 74.7471L57.3699 108.274L72.5663 100.676L70.6666 93.0775Z" fill="#868C91"/>
<path d="M57.3698 108.274L64.9679 91.1782H49.7717L57.3698 108.274Z" fill="#90EDED"/>
<path d="M70.1917 74.5002C68.2807 74.2588 66.8522 72.6272 66.8676 70.701V62.6851H47.8722V70.7201C47.8874 72.6463 46.4589 74.278 44.5481 74.5193L42.4777 74.7853L49.7719 91.1785H64.9683L72.2626 74.7664L70.1917 74.5002Z" fill="#FEDAC6"/>
<path d="M66.8677 71.3089V62.6851H47.8723V71.3089C54.9954 75.013 59.7444 75.013 66.8677 71.3089Z" fill="#F5C4B0"/>
<path d="M17.4795 91.026V113.973H25.0776V77.8813C20.38 80.5938 17.4853 85.603 17.4795 91.026Z" fill="#717478"/>
<path d="M36.4749 30.3927L37.5195 47.4886C38.0001 58.4509 47.2755 66.9494 58.2378 66.4708C68.5297 66.0207 76.7698 57.7804 77.2201 47.4886L78.2648 30.3927L64.968 17.0959L36.4749 30.3927Z" fill="#FEDAC6"/>
<path d="M46.5425 38.4847L45.9727 25.188C42.9315 27.1427 39.7574 28.8807 36.4749 30.3927L38.0705 48.0014C38.4845 56.9503 44.8309 64.5179 53.5708 66.4839L51.0444 61.7921C46.8274 53.985 46.5425 47.3746 46.5425 38.4847Z" fill="#F5C4B0"/>
<path d="M45.9726 43.6894C50.1689 43.6894 53.5707 40.2876 53.5707 36.0913C53.5707 31.895 50.1689 28.4932 45.9726 28.4932C41.7763 28.4932 38.3745 31.895 38.3745 36.0913C38.3745 40.2876 41.7763 43.6894 45.9726 43.6894Z" fill="#EBEBEB"/>
<path d="M68.7672 43.6894C72.9635 43.6894 76.3653 40.2876 76.3653 36.0913C76.3653 31.895 72.9635 28.4932 68.7672 28.4932C64.5709 28.4932 61.1691 31.895 61.1691 36.0913C61.1691 40.2876 64.5709 43.6894 68.7672 43.6894Z" fill="#EBEBEB"/>
<path d="M80.1644 32.2922H78.2649V43.6895H80.1644C83.312 43.6895 85.863 41.1385 85.863 37.9909C85.863 34.8433 83.312 32.2922 80.1644 32.2922Z" fill="#FEDAC6"/>
<path d="M28.8767 37.9909C28.8767 41.1385 31.4277 43.6895 34.5753 43.6895H36.4748V32.2922H34.5753C31.4277 32.2922 28.8767 34.8433 28.8767 37.9909Z" fill="#F5C4B0"/>
<path d="M56.7695 47.3916L51.0709 45.4922C50.0757 45.1598 49.5381 44.0846 49.8704 43.0892L53.6696 31.6919L57.2731 32.8944L54.0743 42.489L57.9703 43.7884L56.7695 47.3916Z" fill="black"/>
<path d="M80.1644 45.589H78.2649V41.7898H80.1644C82.2595 41.7898 83.9635 40.086 83.9635 37.9907C83.9635 35.8955 82.2597 34.1915 80.1644 34.1915H78.2649V30.3923H80.1644C84.3549 30.3923 87.7625 33.8002 87.7625 37.9904C87.7625 42.1807 84.3549 45.589 80.1644 45.589Z" fill="black"/>
<path d="M57.3699 68.3836C45.6897 68.3836 36.1367 59.2411 35.622 47.5722L34.5791 30.5086L38.3707 30.2769L39.4154 47.3728C39.8408 57.0377 47.7278 64.5846 57.3699 64.5846C67.0119 64.5846 74.8989 57.0377 75.3225 47.4053L76.3692 30.2771L80.1608 30.5088L79.1162 47.6047C78.6048 59.2431 69.05 68.3836 57.3699 68.3836Z" fill="black"/>
<path d="M37.3697 33.9677L35.5822 30.615L64.0753 15.4186C64.8522 15.0064 65.8192 15.1793 66.4004 15.844L79.6971 31.0404L76.8365 33.5421L64.5332 19.4798L37.3697 33.9677Z" fill="black"/>
<path d="M36.4747 45.589H34.5753C30.3848 45.589 26.9772 42.1812 26.9772 37.9909C26.9772 33.8007 30.385 30.3928 34.5753 30.3928H36.4747V34.1918H34.5753C32.4801 34.1918 30.7761 35.8956 30.7761 37.9909C30.7761 40.0861 32.4799 41.7901 34.5753 41.7901H36.4747V45.589Z" fill="black"/>
<path d="M85.8631 34.1918H82.0639V28.4932C82.0639 14.8772 70.9858 3.79916 57.3699 3.79916C43.7539 3.79916 32.6759 14.8772 32.6759 28.4932V34.1918H28.8767V28.4932C28.8767 12.7821 41.6588 0 57.3699 0C73.081 0 85.8631 12.7821 85.8631 28.4932V34.1918Z" fill="black"/>
<path d="M66.8676 3.79907H63.0685V17.0958H66.8676V3.79907Z" fill="black"/>
<path d="M45.9726 64.5843H30.7762C29.7277 64.5843 28.8767 63.7353 28.8767 62.6849V41.7898H32.6759V60.7852H45.9726V64.5843Z" fill="black"/>
<path d="M83.9635 64.5843H68.7671V60.7852H82.0638V41.7898H85.863V62.6849C85.863 63.7353 85.014 64.5843 83.9635 64.5843Z" fill="black"/>
<path d="M45.9727 45.5891C40.7357 45.5891 36.4749 41.3285 36.4749 36.0913C36.4749 30.8541 40.7355 26.5935 45.9727 26.5935C51.2098 26.5935 55.4704 30.8541 55.4704 36.0913C55.4704 41.3285 51.2096 45.5891 45.9727 45.5891ZM45.9727 30.3927C42.8308 30.3927 40.274 32.9495 40.274 36.0913C40.274 39.2331 42.8308 41.7899 45.9727 41.7899C49.1145 41.7899 51.6713 39.2331 51.6713 36.0913C51.6713 32.9495 49.1145 30.3927 45.9727 30.3927Z" fill="black"/>
<path d="M68.7671 45.5891C63.5301 45.5891 59.2693 41.3285 59.2693 36.0913C59.2693 30.8541 63.5299 26.5935 68.7671 26.5935C74.0043 26.5935 78.2649 30.8541 78.2649 36.0913C78.2649 41.3285 74.004 45.5891 68.7671 45.5891ZM68.7671 30.3927C65.6253 30.3927 63.0685 32.9495 63.0685 36.0913C63.0685 39.2331 65.6253 41.7899 68.7671 41.7899C71.9089 41.7899 74.4657 39.2331 74.4657 36.0913C74.4657 32.9495 71.9089 30.3927 68.7671 30.3927Z" fill="black"/>
<path d="M61.1691 30.3926H51.6713V34.1917H61.1691V30.3926Z" fill="black"/>
<path d="M57.3699 110.173C56.6195 110.173 55.9394 109.733 55.6338 109.045L40.4374 74.8533L43.9078 73.3088L57.3699 103.597L70.83 73.3111L74.3024 74.8555L59.106 109.047C58.8003 109.733 58.1203 110.173 57.3699 110.173Z" fill="black"/>
<path d="M19.3789 113.973H15.58V91.2921C15.578 82.6948 22.0081 75.4005 30.5389 74.3254L44.2953 72.6158C45.2469 72.496 45.9612 71.6793 45.9555 70.7163V64.5845H49.7546V70.7009C49.7773 73.5767 47.6328 76.0272 44.7683 76.3844L31.0137 78.094C24.3786 78.9299 19.3771 84.6038 19.3789 91.2921V113.973Z" fill="black"/>
<path d="M99.1598 113.973H95.3606V91.2921C95.3626 84.6038 90.3609 78.9299 83.7258 78.096L69.977 76.3864C67.1087 76.0294 64.9642 73.577 64.9869 70.6878V64.5845H68.786V70.7009C68.7785 71.6793 69.4926 72.496 70.4462 72.6158L84.1971 74.3254C92.7299 75.3985 99.1618 82.6928 99.1598 91.2921V113.973Z" fill="black"/>
<path d="M56.5208 109.974L41.3244 102.376C40.5286 101.977 40.1143 101.079 40.3309 100.216L41.6396 94.9774H30.7761C30.1341 94.9774 29.5338 94.6526 29.1843 94.113C28.8348 93.5737 28.7796 92.8936 29.0418 92.3066L36.6399 75.2107L40.1103 76.7551L33.6993 91.1785H44.0729C44.6579 91.1785 45.2106 91.4482 45.5696 91.9097C45.9287 92.3694 46.0578 92.9715 45.9153 93.5376L44.3843 99.6578L58.2186 106.576L56.5208 109.974Z" fill="black"/>
<path d="M59.2696 108.274H55.4705V113.973H59.2696V108.274Z" fill="black"/>
<path d="M58.2188 109.974L56.5188 106.576L70.3513 99.6577L68.8223 93.5374C68.6798 92.9696 68.8071 92.3692 69.168 91.9095C69.5288 91.4478 70.0818 91.1783 70.6668 91.1783H81.0403L74.6293 76.7532L78.1017 75.2087L85.6998 92.3046C85.962 92.8934 85.9068 93.5717 85.5573 94.1111C85.2079 94.6504 84.6075 94.9772 83.9637 94.9772H73.1003L74.4072 100.216C74.6238 101.079 74.2097 101.977 73.4157 102.376L58.2188 109.974Z" fill="black"/>
<path d="M64.9682 89.2786H49.7717V93.0777H64.9682V89.2786Z" fill="black"/>
<path d="M85.8631 34.1918H82.0639V28.4932C82.0639 14.8772 70.9858 3.79916 57.3699 3.79916C43.7539 3.79916 32.6759 14.8772 32.6759 28.4932V34.1918H28.8767V28.4932C28.8767 12.7821 41.6588 0 57.3699 0C73.081 0 85.8631 12.7821 85.8631 28.4932V34.1918Z" fill="black"/>
<path d="M45.9726 64.5843H30.7762C29.7277 64.5843 28.8767 63.7353 28.8767 62.6849V41.7898H32.6759V60.7852H45.9726V64.5843Z" fill="black"/>
<path d="M83.9635 64.5843H68.7671V60.7852H82.0638V41.7898H85.863V62.6849C85.863 63.7353 85.014 64.5843 83.9635 64.5843Z" fill="black"/>
</g>
<path d="M52.0275 52.5342C51.9915 58.6966 63.8496 58.2395 63.5989 52.5342H52.0275Z" fill="white" stroke="black" stroke-width="3" stroke-linecap="round" stroke-linejoin="round"/>
<path d="M68.7226 38.733C70.5667 38.733 72.0616 37.2381 72.0616 35.394C72.0616 33.5499 70.5667 32.0549 68.7226 32.0549C66.8785 32.0549 65.3835 33.5499 65.3835 35.394C65.3835 37.2381 66.8785 38.733 68.7226 38.733Z" fill="black"/>
<path d="M46.4623 38.733C48.3064 38.733 49.8014 37.2381 49.8014 35.394C49.8014 33.5499 48.3064 32.0549 46.4623 32.0549C44.6182 32.0549 43.1233 33.5499 43.1233 35.394C43.1233 37.2381 44.6182 38.733 46.4623 38.733Z" fill="black"/>
<g clip-path="url(#clip1)">
<path d="M165.494 34.1399H163.597V45.5198H165.494C168.636 45.5198 171.184 42.9726 171.184 39.8298C171.184 36.6871 168.634 34.1399 165.494 34.1399Z" fill="#F6C18F"/>
<path d="M118.077 39.8301C118.077 42.9728 120.624 45.5201 123.767 45.5201H125.663V34.1401H123.767C120.624 34.1399 118.077 36.6872 118.077 39.8301Z" fill="#E09C6B"/>
<path d="M165.494 34.1399L167.732 22.6271C168.466 18.2571 165.517 14.1205 161.147 13.3866C160.703 13.3127 160.253 13.2766 159.804 13.2766C158.67 9.88148 155.493 7.59045 151.914 7.58666H129.457L125.664 1.89648L123.767 3.79306C118.53 9.0298 118.529 17.5192 123.763 22.7559C123.765 22.7579 123.765 22.7597 123.767 22.7597H157.907L165.494 34.1399Z" fill="#48443B"/>
<path d="M171.298 77.8961L157.547 75.9995L144.63 83.4534L131.714 76.0754L117.963 77.972C110.456 78.9753 104.838 85.3615 104.8 92.9367V113.8H184.46V92.9367C184.46 85.3348 178.833 78.9034 171.298 77.8961Z" fill="#DBDBDB"/>
<path d="M157.547 76.0754L156.01 75.8666V62.5901H133.25V75.8666L131.714 76.0754L144.63 83.4533L157.547 76.0754Z" fill="#F6C18F"/>
<path d="M133.25 91.0402L144.63 83.4535L133.25 75.8667H129.457L133.25 91.0402Z" fill="#EAEAEA"/>
<path d="M144.63 83.4535L156.01 91.0402L159.804 75.8667H156.01L144.63 83.4535Z" fill="#EAEAEA"/>
<path d="M138.94 113.8L140.837 92.9367L138.94 87.2468L144.63 83.4534L150.32 87.2468L148.424 92.9367L150.32 113.8" fill="#2E6AA3"/>
<path d="M156.01 73.0976V62.5901H133.25V73.0976C141.785 76.7959 147.475 76.7959 156.01 73.0976Z" fill="#E09C6B"/>
<path d="M104.8 92.9367V113.8H112.387V79.8118C107.696 82.5202 104.804 87.5216 104.8 92.9367Z" fill="#BFBFBF"/>
<path d="M165.494 34.1399V44.9508C165.492 50.3013 164.128 55.5608 161.53 60.2381C158.119 66.3739 151.65 70.1784 144.63 70.1767C137.611 70.1787 131.141 66.3739 127.731 60.2381C125.133 55.561 123.769 50.3016 123.767 44.9508V22.7598H157.907L165.494 34.1399Z" fill="#F6C18F"/>
<path d="M131.354 22.76H123.767V44.9511C123.769 50.3016 125.133 55.561 127.731 60.2383C129.628 63.6335 132.512 66.3722 136 68.0907C129.457 49.3134 131.354 22.76 131.354 22.76Z" fill="#E09C6B"/>
<path d="M120.239 10.0903C119.113 14.6403 120.452 19.4466 123.767 22.76H154.114C132.567 22.76 123.767 15.1732 120.239 10.0903Z" fill="#24231F"/>
<path d="M165.494 47.4167H163.597V43.6233H165.494C167.586 43.6233 169.287 41.9219 169.287 39.8299C169.287 37.7379 167.586 36.0365 165.494 36.0365H163.597V32.2432H165.494C169.678 32.2432 173.081 35.6459 173.081 39.8299C173.081 44.014 169.678 47.4167 165.494 47.4167Z" fill="black"/>
<path d="M125.664 47.4167H123.767C119.583 47.4167 116.18 44.014 116.18 39.8299C116.18 35.6459 119.583 32.2432 123.767 32.2432H125.664V36.0365H123.767C121.675 36.0365 119.974 37.7379 119.974 39.8299C119.974 41.9219 121.675 43.6233 123.767 43.6233H125.664V47.4167Z" fill="black"/>
<path d="M146.527 51.21H140.837C140.241 51.21 139.682 50.9311 139.323 50.4551C138.965 49.979 138.849 49.3646 139.014 48.7919L142.808 35.5151L146.455 36.5583L143.35 47.4166H146.525V51.21H146.527Z" fill="black"/>
<path d="M144.634 72.0734C144.63 72.0734 144.626 72.0734 144.623 72.0734C136.922 72.0734 129.814 67.8931 126.071 61.158C123.323 56.2133 121.87 50.6086 121.868 44.953V22.7601C121.868 21.7132 122.718 20.8635 123.765 20.8635H157.905C158.538 20.8635 159.13 21.1803 159.483 21.7076L167.07 33.0876C167.277 33.3985 167.388 33.7647 167.388 34.1402V44.9512C167.386 50.6071 165.932 56.2118 163.185 61.1582C159.445 67.8911 152.336 72.0734 144.634 72.0734ZM144.628 68.28C144.63 68.28 144.632 68.28 144.632 68.28C150.959 68.28 156.797 64.8452 159.87 59.3164C162.305 54.9314 163.593 49.964 163.595 44.9492V34.7128L156.89 24.6567H125.663V44.951C125.665 49.9658 126.953 54.9331 129.388 59.3164C132.461 64.8472 138.299 68.28 144.624 68.28C144.626 68.28 144.628 68.28 144.628 68.28Z" fill="black"/>
<path d="M133.258 41.7266C135.353 41.7266 137.051 40.0283 137.051 37.9333C137.051 35.8382 135.353 34.1399 133.258 34.1399C131.163 34.1399 129.465 35.8382 129.465 37.9333C129.465 40.0283 131.163 41.7266 133.258 41.7266Z" fill="black"/>
<path d="M156.018 41.7266C158.113 41.7266 159.811 40.0283 159.811 37.9333C159.811 35.8382 158.113 34.1399 156.018 34.1399C153.923 34.1399 152.225 35.8382 152.225 37.9333C152.225 40.0283 153.923 41.7266 156.018 41.7266Z" fill="black"/>
<path d="M167.364 36.3497L163.622 35.7257L165.86 22.3163C166.131 20.7004 165.757 19.0768 164.807 17.7454C163.857 16.414 162.446 15.53 160.832 15.2589C160.494 15.2019 160.111 15.1603 159.805 15.1754C159.803 15.1754 159.803 15.1754 159.802 15.1754C158.986 15.1754 158.26 14.6539 158.004 13.8801C157.125 11.2532 154.677 9.48747 151.91 9.48369H129.457C128.823 9.48369 128.232 9.16692 127.879 8.63958L125.368 4.87469L125.106 5.13447C122.932 7.30797 121.734 10.2005 121.734 13.2751C121.734 16.3514 122.93 19.2419 125.104 21.4157L122.424 24.1014C116.455 18.1307 116.455 8.41965 122.424 2.45277L124.321 0.556192C124.723 0.155952 125.284 -0.0488431 125.849 0.00992411C126.415 0.0649071 126.925 0.372099 127.24 0.844463L130.472 5.69053H151.913C155.876 5.69432 159.424 7.96843 161.112 11.464C161.23 11.4791 161.344 11.4962 161.461 11.5152C164.077 11.9532 166.362 13.3835 167.901 15.5418C169.439 17.7002 170.044 20.3271 169.604 22.9407L167.364 36.3497Z" fill="black"/>
<path d="M106.697 113.8H102.904V92.9367C102.904 84.4206 109.269 77.147 117.713 76.0164L131.354 74.2051V66.3833H135.147V75.8666C135.147 76.8169 134.443 77.621 133.501 77.7463L118.214 79.7758C111.649 80.6539 106.697 86.3098 106.697 92.9349V113.8Z" fill="black"/>
<path d="M186.357 113.8H182.564V92.9367C182.564 86.3116 177.613 80.6539 171.045 79.7775L155.76 77.748C154.817 77.6229 154.114 76.8186 154.114 75.8683V66.385H157.907V74.2068L171.546 76.0182C179.99 77.1468 186.357 84.4223 186.357 92.9384V113.8Z" fill="black"/>
<path d="M121.878 98.6267H118.084V113.8H121.878V98.6267Z" fill="black"/>
<path d="M171.191 98.6267H167.398V113.8H171.191V98.6267Z" fill="black"/>
<path d="M133.25 92.9368C133.019 92.9368 132.788 92.8951 132.566 92.8097C131.991 92.5877 131.56 92.0984 131.411 91.501L127.617 76.3277L131.297 75.4097L134.438 87.9714L143.578 81.8774L145.681 85.0335L134.301 92.6202C133.986 92.8306 133.618 92.9368 133.25 92.9368Z" fill="black"/>
<path d="M144.63 85.3499C144.306 85.3499 143.982 85.2665 143.69 85.0995L130.413 77.5127L132.294 74.2202L144.63 81.2701L156.966 74.2202L158.848 77.5127L145.571 85.0995C145.279 85.2667 144.955 85.3499 144.63 85.3499Z" fill="black"/>
<path d="M156.01 92.9366C155.642 92.9366 155.274 92.8284 154.958 92.618L143.578 85.0313L145.681 81.8752L154.821 87.9692L157.962 75.4075L161.64 76.3255L157.846 91.4988C157.698 92.0962 157.266 92.5855 156.691 92.8075C156.473 92.8949 156.242 92.9366 156.01 92.9366Z" fill="black"/>
<path d="M140.829 113.973L137.051 113.627L138.912 93.1604L137.14 87.846L140.738 86.6455L142.635 92.3355C142.716 92.5839 142.749 92.8477 142.724 93.1075L140.829 113.973Z" fill="black"/>
<path d="M148.429 113.973L146.533 93.1092C146.51 92.8474 146.54 92.5856 146.624 92.3372L148.52 86.6472L152.116 87.8477L150.345 93.1621L152.206 113.629L148.429 113.973Z" fill="black"/>
<path d="M148.431 91.04H140.844V94.8334H148.431V91.04Z" fill="black"/>
</g>
<path d="M138.397 56.9863C141.069 59.6576 147.747 60.1028 150.863 56.9863" stroke="black" stroke-width="3" stroke-linecap="round" stroke-linejoin="round"/>
<path d="M161.885 96.4924H142.908C142.167 96.4924 141.567 97.093 141.567 97.8337V108.742C141.567 109.483 142.167 110.083 142.908 110.083H161.885C162.626 110.083 163.226 109.483 163.226 108.742V97.8337C163.226 97.093 162.626 96.4924 161.885 96.4924Z" fill="#75CFF2"/>
<path d="M161.885 96.4924H160.969V110.083H161.885C162.625 110.083 163.226 109.483 163.226 108.742V97.8337C163.226 97.093 162.625 96.4924 161.885 96.4924Z" fill="#53B4E4"/>
<path d="M149.527 108.215H144.389C144.155 108.215 143.966 108.026 143.966 107.792V101.709C143.966 101.475 144.155 101.285 144.389 101.285H149.527C149.761 101.285 149.951 101.475 149.951 101.709V107.792C149.951 108.026 149.761 108.215 149.527 108.215Z" fill="#EDEDED"/>
<path d="M149.527 101.285H147.693V108.215H149.527C149.761 108.215 149.951 108.026 149.951 107.792V101.709C149.95 101.475 149.761 101.285 149.527 101.285Z" fill="#D6D6D6"/>
<path d="M146.961 105.336C147.645 105.336 148.199 104.781 148.199 104.097C148.199 103.413 147.645 102.858 146.961 102.858C146.277 102.858 145.722 103.413 145.722 104.097C145.722 104.781 146.277 105.336 146.961 105.336Z" fill="#345863"/>
<path d="M146.944 105.335C145.778 105.335 144.833 106.281 144.833 107.446V108.215H149.055V107.446C149.055 106.281 148.11 105.335 146.944 105.335Z" fill="#345863"/>
<path d="M160.827 100.957H152.396C152.215 100.957 152.069 101.104 152.069 101.285C152.069 101.466 152.215 101.612 152.396 101.612H160.827C161.008 101.612 161.155 101.466 161.155 101.285C161.155 101.104 161.008 100.957 160.827 100.957Z" fill="black"/>
<path d="M161.155 102.858C161.155 102.677 161.008 102.53 160.827 102.53H152.396C152.215 102.53 152.069 102.677 152.069 102.858C152.069 103.039 152.215 103.186 152.396 103.186H160.827C161.008 103.186 161.155 103.039 161.155 102.858Z" fill="black"/>
<path d="M152.396 104.104C152.215 104.104 152.069 104.25 152.069 104.431C152.069 104.612 152.215 104.759 152.396 104.759H156.826C157.007 104.759 157.154 104.612 157.154 104.431C157.154 104.25 157.007 104.104 156.826 104.104H152.396Z" fill="black"/>
<path d="M149.527 100.957H144.389C143.975 100.957 143.638 101.294 143.638 101.708V107.791C143.638 108.205 143.975 108.542 144.389 108.542H149.527C149.942 108.542 150.279 108.205 150.279 107.791V101.708C150.279 101.294 149.942 100.957 149.527 100.957ZM146.961 105.007C146.459 105.007 146.05 104.599 146.05 104.096C146.05 103.594 146.459 103.186 146.961 103.186C147.463 103.186 147.872 103.594 147.872 104.096C147.872 104.599 147.463 105.007 146.961 105.007ZM146.944 105.663C147.927 105.663 148.727 106.463 148.727 107.446V107.887H145.161V107.446C145.161 106.463 145.961 105.663 146.944 105.663ZM149.623 107.791C149.623 107.844 149.58 107.887 149.527 107.887H149.383V107.446C149.383 106.485 148.824 105.652 148.014 105.255C148.329 104.968 148.527 104.555 148.527 104.096C148.527 103.233 147.825 102.53 146.961 102.53C146.097 102.53 145.394 103.233 145.394 104.096C145.394 104.549 145.588 104.958 145.896 105.244C145.074 105.637 144.505 106.476 144.505 107.446V107.887H144.389C144.337 107.887 144.294 107.844 144.294 107.791V101.708C144.294 101.655 144.337 101.612 144.389 101.612H149.527C149.58 101.612 149.623 101.655 149.623 101.708V107.791Z" fill="black"/>
<path d="M161.885 95.9146H148.452C148.431 95.9146 148.41 95.9157 148.39 95.9178C148.37 95.9157 148.349 95.9146 148.328 95.9146H142.908C141.85 95.9146 140.989 96.7753 140.989 97.8336V108.742C140.989 109.8 141.85 110.661 142.908 110.661H161.885C162.944 110.661 163.804 109.8 163.804 108.742V97.8336C163.804 96.7752 162.944 95.9146 161.885 95.9146ZM148.391 97.0669C148.411 97.069 148.431 97.0701 148.452 97.0701H161.885C162.306 97.0701 162.649 97.4128 162.649 97.8336V108.742C162.649 109.163 162.306 109.505 161.885 109.505H142.908C142.487 109.505 142.145 109.163 142.145 108.742V97.8336C142.145 97.4129 142.487 97.0702 142.908 97.0702H148.328C148.349 97.0702 148.37 97.0691 148.391 97.0669Z" fill="black" stroke="black" stroke-width="0.5"/>
<ellipse cx="103.671" cy="123.767" rx="43.6302" ry="6.23288" fill="black" fill-opacity="0.3"/>
<path d="M117.691 60.0278H88.6605C84.2787 60.0278 80.7137 63.5926 80.7137 67.9744V73.4836H84.5829V67.9744C84.5829 65.7263 86.412 63.8972 88.6603 63.8972H117.691C119.939 63.8972 121.768 65.7263 121.768 67.9744V73.4836H125.638V67.9744C125.638 63.5928 122.073 60.0278 117.691 60.0278Z" fill="#7D685F"/>
<path d="M134.838 124.425H72.5049C70.0615 124.425 68.0623 122.426 68.0623 119.982V77.2098C68.0623 74.7663 70.0615 72.7671 72.5049 72.7671H134.838C137.281 72.7671 139.281 74.7663 139.281 77.2098V119.983C139.28 122.426 137.281 124.425 134.838 124.425Z" fill="#963F19"/>
<path d="M75.2278 119.983V77.2099C75.2278 74.7664 77.227 72.7673 79.6704 72.7673H72.5053C70.0618 72.7673 68.0626 74.7666 68.0626 77.2099V119.983C68.0626 122.426 70.0618 124.425 72.5053 124.425H79.6706C77.227 124.425 75.2278 122.426 75.2278 119.983Z" fill="#823817"/>
<path d="M134.837 72.7673H72.5039C70.0607 72.7676 68.062 74.7663 68.0615 77.2093V98.594C74.4799 100.696 82.6843 102.232 91.8839 102.949H92.3174H115.024H115.457C124.657 102.232 132.861 100.696 139.28 98.594V77.21C139.28 74.7667 137.281 72.7676 134.837 72.7673Z" fill="#BE501F"/>
<path d="M75.2276 77.2099C75.2276 74.7664 77.2268 72.7673 79.6703 72.7673H72.5052C72.461 72.7673 72.4175 72.7693 72.3737 72.7706C72.3416 72.7716 72.3093 72.7715 72.2773 72.7731C72.2375 72.7751 72.1982 72.7791 72.1585 72.7821C72.1231 72.785 72.0876 72.7867 72.0523 72.7903C72.0161 72.794 71.9802 72.7994 71.9441 72.8042C71.9063 72.8089 71.8683 72.8129 71.8308 72.8186C71.7673 72.8284 71.7042 72.8401 71.6416 72.8526C71.632 72.8545 71.6223 72.8559 71.6127 72.8578C71.4877 72.8836 71.3649 72.9155 71.2439 72.9516C71.2253 72.9572 71.2063 72.9619 71.1878 72.9677C71.1419 72.982 71.0968 72.9982 71.0516 73.014C71.0284 73.0221 71.0048 73.0293 70.9817 73.0377C70.9182 73.0611 70.8555 73.0862 70.7934 73.1124C70.7891 73.1143 70.7845 73.1157 70.7802 73.1176C70.7604 73.126 70.7414 73.1355 70.7218 73.1441C69.298 73.7736 68.2605 75.13 68.0884 76.7361C68.0877 76.743 68.0864 76.7497 68.0857 76.7566C68.0802 76.8096 68.077 76.8632 68.0734 76.9168C68.0719 76.9385 68.0695 76.9598 68.0684 76.9816C68.0662 77.0231 68.0661 77.0653 68.0652 77.1071C68.0645 77.1414 68.0626 77.1753 68.0626 77.2097V98.5937C70.2533 99.3114 72.6523 99.9628 75.2279 100.538L75.2276 77.2099Z" fill="#A9461A"/>
<path d="M108.576 101.015C108.582 100.927 108.586 100.839 108.586 100.75C108.586 98.7594 106.972 97.1455 104.981 97.1455H101.372C99.3808 97.1455 97.767 98.7595 97.767 100.75C97.767 100.839 97.7713 100.927 97.7776 101.015V104.884C97.7713 104.971 97.767 105.059 97.767 105.148C97.767 107.139 99.381 108.753 101.372 108.753H104.981C106.972 108.753 108.586 107.139 108.586 105.148C108.586 105.059 108.582 104.971 108.576 104.884V101.015Z" fill="#FFB940"/>
<path d="M101.35 105.148C101.35 105.059 101.354 104.971 101.36 104.884V101.015C101.354 100.927 101.35 100.839 101.35 100.75C101.35 98.7594 102.964 97.1455 104.954 97.1455H101.372C99.3808 97.1455 97.767 98.7595 97.767 100.75C97.767 100.839 97.7713 100.927 97.7776 101.015V104.884C97.7713 104.971 97.767 105.059 97.767 105.148C97.767 107.139 99.381 108.753 101.372 108.753H104.954C102.964 108.753 101.35 107.139 101.35 105.148Z" fill="#E6A73A"/>
<path d="M113.089 101.015H107.293H100.048H94.252C93.1835 101.015 92.3174 101.881 92.3174 102.949C92.3174 104.018 93.1835 104.884 94.252 104.884H100.048H107.293H113.089C114.158 104.884 115.024 104.018 115.024 102.949C115.024 101.881 114.158 101.015 113.089 101.015Z" fill="#FFB940"/>
<path d="M99.7693 102.949C99.7693 101.881 100.635 101.015 101.704 101.015H100.048H94.252C93.1835 101.015 92.3174 101.881 92.3174 102.949C92.3174 104.018 93.1835 104.884 94.252 104.884H100.048H101.704C100.635 104.884 99.7693 104.018 99.7693 102.949Z" fill="#E6A73A"/>
<path d="M135.003 71.6966C134.78 71.69 134.517 71.6949 126.711 71.6923V67.9745C126.711 63 122.665 58.9531 117.69 58.9531H95.7341C95.1404 58.9531 94.6594 59.4342 94.6594 60.0279C94.6594 60.6216 95.1404 61.1027 95.7341 61.1027H117.69C121.479 61.1027 124.562 64.1854 124.562 67.9745V71.6922H122.842V67.9745C122.842 65.1336 120.531 62.8223 117.69 62.8223H88.659C85.8182 62.8223 83.5067 65.1335 83.5067 67.9745V71.6922H81.787V67.9745C81.787 64.1855 84.8698 61.1027 88.659 61.1027H96.1027C96.6964 61.1027 97.1775 60.6216 97.1775 60.0279C97.1775 59.4342 96.6964 58.9531 96.1027 58.9531H88.659C83.6844 58.9531 79.6375 63 79.6375 67.9745V71.6922C73.0461 71.7343 72.4753 71.6028 71.4873 71.7876C68.907 72.2703 66.9858 74.5408 66.9858 77.2091C66.9858 78.6656 66.9858 97.0118 66.9858 98.5937V119.982C66.9858 123.025 69.4608 125.5 72.5034 125.5H123.129C123.723 125.5 124.204 125.019 124.204 124.425C124.204 123.832 123.723 123.35 123.129 123.35H72.5034C70.6462 123.35 69.1354 121.84 69.1354 119.983V100.059C71.8246 100.874 74.7807 101.593 77.9467 102.2C78.5286 102.311 79.0928 101.93 79.2046 101.347C79.3162 100.764 78.9343 100.201 78.3513 100.089C75.0112 99.4484 71.9153 98.6827 69.1354 97.8097V77.2098C69.1354 75.6952 70.1398 74.4144 71.5148 73.9903C72.2499 73.7642 68.1946 73.842 134.836 73.842C136.577 73.842 138.014 75.1699 138.186 76.866C138.219 77.1906 138.198 75.9216 138.204 97.8097C131.985 99.7631 124.298 101.151 115.885 101.837C115.698 101.37 115.38 100.939 114.989 100.619C113.857 99.693 112.969 99.9749 109.587 99.9398C109.202 97.7445 107.283 96.0706 104.979 96.0706H101.37C99.0657 96.0706 97.1467 97.7445 96.7615 99.9398C94.5166 100.012 92.9086 99.5223 91.7374 101.299C91.6228 101.473 91.5163 101.682 91.4545 101.837C88.65 101.608 85.8924 101.297 83.2502 100.912C82.6636 100.827 82.1172 101.233 82.0315 101.82C81.946 102.408 82.3527 102.953 82.9401 103.039C85.6744 103.438 88.5296 103.757 91.4312 103.991C91.8562 105.137 92.9581 105.959 94.251 105.959H96.7613C97.1465 108.154 99.0655 109.828 101.369 109.828H104.979C107.283 109.828 109.202 108.154 109.587 105.959H113.088C114.381 105.959 115.482 105.138 115.907 103.991C124.25 103.319 131.913 101.966 138.204 100.059V119.982C138.204 121.84 136.693 123.35 134.836 123.35H128.144C127.55 123.35 127.069 123.831 127.069 124.425C127.069 125.019 127.55 125.5 128.144 125.5H134.836C137.878 125.5 140.353 123.025 140.353 119.982V98.5937C140.337 76.101 140.393 77.1989 140.309 76.5257C139.977 73.8495 137.734 71.7776 135.003 71.6966ZM120.693 71.6925H85.6564V67.9745C85.6564 66.3189 87.0033 64.972 88.659 64.972H117.69C119.345 64.972 120.692 66.3189 120.692 67.9745L120.693 71.6925ZM101.37 98.2202H104.979C106.091 98.2202 107.038 98.941 107.377 99.9398H98.9727C99.3113 98.941 100.258 98.2202 101.37 98.2202ZM104.979 107.678H101.37C100.258 107.678 99.3113 106.957 98.9725 105.959H107.376C107.038 106.957 106.091 107.678 104.979 107.678ZM113.088 103.809C111.35 103.809 96.2066 103.809 94.2512 103.809C93.7771 103.809 93.3914 103.423 93.3914 102.949C93.3914 102.475 93.7771 102.089 94.2512 102.089C97.443 102.089 111.24 102.089 113.088 102.089C113.562 102.089 113.948 102.475 113.948 102.949C113.948 103.423 113.562 103.809 113.088 103.809Z" fill="black"/>
<defs>
<clipPath id="clip0">
<rect width="113.973" height="113.973" fill="white" transform="translate(0.383545)"/>
</clipPath>
<clipPath id="clip1">
<rect width="113.973" height="113.973" fill="white" transform="translate(87.6439)"/>
</clipPath>
</defs>
</svg>
