<svg width="202" height="130" viewBox="0 0 202 130" fill="none" xmlns="http://www.w3.org/2000/svg">
<path d="M155.828 65.3247H133.432V67.191V74.6561V111.982H155.828V74.6561V65.3247Z" fill="#F6C18F"/>
<path d="M118.39 76.6529C110.975 77.6438 105.438 83.9705 105.438 91.4525V111.982H133.432V74.656L118.39 76.6529Z" fill="#A53D3D"/>
<path d="M183.822 91.4527C183.822 83.9708 178.285 77.6441 170.87 76.6531L155.828 74.6562V111.982H183.822V91.4527H183.822Z" fill="#A53D3D"/>
<path d="M133.432 83.5024V111.982H155.828V83.5024C149.423 89.131 139.838 89.131 133.432 83.5024Z" fill="#EFF3F5"/>
<path d="M155.828 65.3247H133.432V83.5024C139.837 89.1292 149.423 89.1292 155.828 83.5024V65.3247Z" fill="#F6C18F"/>
<path d="M140.897 87.2909C138.137 86.6899 135.571 85.406 133.432 83.5583V111.982H140.897V87.2909Z" fill="white"/>
<path d="M155.828 72.7898V65.3247H133.432V72.7898C141.831 76.5224 147.43 76.5224 155.828 72.7898Z" fill="#E09C6B"/>
<path d="M145.19 3.73731C135.913 3.73534 127.725 9.79521 125.015 18.6675H165.327C162.627 9.80461 154.456 3.74671 145.19 3.73731Z" fill="#A15D30"/>
<path d="M125.015 18.6677C124.108 21.6201 123.871 24.7387 124.325 27.7939L124.605 29.8656V48.5283C124.605 59.866 133.796 69.0576 145.134 69.0576C156.472 69.0576 165.663 59.8662 165.663 48.5283V29.8656L165.813 29.2311C166.567 25.728 166.399 22.0888 165.327 18.6679C165.327 18.6677 125.015 18.6677 125.015 18.6677Z" fill="#F6C18F"/>
<path d="M131.566 18.6678V20.534H157.694H164.823C161.432 9.40158 149.66 3.12715 138.527 6.51829C131.812 8.56369 126.557 13.8191 124.511 20.534H131.566V18.6678Z" fill="#A15D30"/>
<path d="M131.566 20.5339H124.512C123.606 23.4863 123.364 26.603 123.802 29.6602L124.101 31.7318C124.101 31.7316 131.566 27.999 131.566 20.5339Z" fill="#A15D30"/>
<path d="M164.823 20.5339H157.694C157.694 27.999 165.159 31.7316 165.159 31.7316L165.29 31.0971C166.038 27.594 165.878 23.9585 164.823 20.5339Z" fill="#A15D30"/>
<path d="M131.566 47.8562V20.5339C131.566 27.999 124.101 31.7316 124.101 31.7316V50.3943C124.099 59.4906 130.084 67.5044 138.807 70.0837L134.16 59.8379C132.449 56.0754 131.564 51.9901 131.566 47.8562Z" fill="#E09C6B"/>
<path d="M167.025 31.7317H165.159V42.9293H167.025C170.118 42.9293 172.624 40.4229 172.624 37.3305C172.624 34.2381 170.118 31.7317 167.025 31.7317Z" fill="#F6C18F"/>
<path d="M116.636 37.3305C116.636 40.4229 119.142 42.9293 122.235 42.9293H124.101V31.7317H122.235C119.142 31.7317 116.636 34.2381 116.636 37.3305Z" fill="#E09C6B"/>
<path d="M146.495 5.59985H142.762V20.53H146.495V5.59985Z" fill="#91542B"/>
<path d="M135.392 21.1282L138.933 19.948L135.201 8.7492L131.66 9.92944L135.392 21.1282Z" fill="#91542B"/>
<path d="M153.763 21.3678L159.362 10.1711L156.023 8.50195L150.425 19.6986L153.763 21.3678Z" fill="#91542B"/>
<path d="M158.851 48.0801C158.39 49.002 157.268 49.3753 156.347 48.9125C156.153 48.8154 155.977 48.6849 155.828 48.528C153.405 46.1281 150.13 44.7861 146.72 44.7955H142.633C139.134 44.7992 135.778 46.1878 133.302 48.6586C132.576 49.3902 131.394 49.3959 130.663 48.6717C130.542 48.5523 130.437 48.4161 130.353 48.2667L124.101 36.9756V50.3943C124.101 61.7319 133.292 70.9236 144.63 70.9236C155.968 70.9236 165.16 61.7322 165.16 50.3943V35.4641L158.851 48.0801Z" fill="#A15D30"/>
<path d="M131.566 49.1439C131.056 49.0339 130.618 48.7165 130.353 48.2666L124.101 36.9756V50.3943C124.108 58.2887 128.643 65.4795 135.765 68.8893C133.018 63.8783 131.574 58.2552 131.566 52.5407V49.1439H131.566Z" fill="#8F4F24"/>
<path d="M157.694 1.87085C155.029 1.87282 152.569 3.29664 151.237 5.6034L162.64 14.9348C165.732 12.2081 166.027 7.49023 163.301 4.39764C161.882 2.78901 159.84 1.8691 157.694 1.87085Z" fill="#8F4F24"/>
<path d="M133.43 76.5186H122.233V111.978H133.43V76.5186Z" fill="#EB5757"/>
<path d="M112.903 111.982H105.438V85.8538L112.903 78.3887V111.982Z" fill="#EB5757"/>
<path d="M122.233 87.7163H112.901V97.0477H122.233V87.7163Z" fill="#F18989"/>
<path d="M131.564 87.7163H122.233V97.0477H131.564V87.7163Z" fill="#D44E4E"/>
<path d="M112.901 87.7163H105.436V97.0477H112.901V87.7163Z" fill="#D44E4E"/>
<path d="M131.676 106.379H122.345V111.978H131.676V106.379Z" fill="#D44E4E"/>
<path d="M167.024 76.5186H155.826V111.978H167.024V76.5186Z" fill="#EB5757"/>
<path d="M176.357 111.982H183.822V85.8538L176.357 78.3887V111.982Z" fill="#EB5757"/>
<path d="M176.355 87.7163H167.024V97.0477H176.355V87.7163Z" fill="#F18989"/>
<path d="M167.024 87.7163H157.692V97.0477H167.024V87.7163Z" fill="#D44E4E"/>
<path d="M183.82 87.7163H176.355V97.0477H183.82V87.7163Z" fill="#D44E4E"/>
<path d="M166.914 106.379H157.582V111.978H166.914V106.379Z" fill="#D44E4E"/>
<path d="M112.901 106.379H105.436V111.978H112.901V106.379Z" fill="#D44E4E"/>
<path d="M122.233 106.379H112.901V111.978H122.233V106.379Z" fill="#F18989"/>
<path d="M183.82 106.379H176.355V111.978H183.82V106.379Z" fill="#D44E4E"/>
<path d="M176.355 106.379H167.024V111.978H176.355V106.379Z" fill="#F18989"/>
<path fillRule="evenodd" clipRule="evenodd" d="M103.573 111.981C103.574 110.907 104.445 110.038 105.518 110.038L183.744 110.084C184.817 110.085 185.687 110.956 185.686 112.029C185.686 113.102 184.815 113.972 183.742 113.971L105.516 113.925C104.442 113.925 103.573 113.054 103.573 111.981Z" fill="black"/>
<path d="M124.935 33.4018L123.265 30.063L124.099 31.7333L123.259 30.0667C123.325 30.033 129.698 26.7241 129.698 20.5356H133.43C133.432 29.0554 125.282 33.2282 124.935 33.4018Z" fill="black"/>
<path d="M164.325 33.4019C163.978 33.2282 155.828 29.0554 155.828 20.5339H159.56C159.56 26.7226 165.934 30.0315 165.999 30.065L164.325 33.4019Z" fill="black"/>
<path d="M159.767 18.2195H129.493V22.6715H159.767V18.2195Z" fill="black"/>
<path d="M163.877 16.3329L161.406 13.5371C161.862 13.134 162.246 12.6618 162.55 12.1356C164.094 9.46318 163.176 6.03092 160.501 4.48768C157.827 2.9462 154.396 3.86238 152.853 6.5368L149.621 4.67053C150.868 2.51118 152.879 0.967723 155.287 0.322083C157.696 -0.323556 160.212 0.00844929 162.367 1.25533C166.824 3.82892 168.354 9.54716 165.783 14.0039C165.277 14.8809 164.635 15.6648 163.877 16.3329Z" fill="black"/>
<path d="M133.431 39.1929C135.492 39.1929 137.163 37.5218 137.163 35.4603C137.163 33.3989 135.492 31.7278 133.431 31.7278C131.369 31.7278 129.698 33.3989 129.698 35.4603C129.698 37.5218 131.369 39.1929 133.431 39.1929Z" fill="black"/>
<path d="M155.826 39.1929C157.887 39.1929 159.558 37.5218 159.558 35.4603C159.558 33.3989 157.887 31.7278 155.826 31.7278C153.764 31.7278 152.093 33.3989 152.093 35.4603C152.093 37.5218 153.764 39.1929 155.826 39.1929Z" fill="black"/>
<path d="M146.496 46.6616H140.897C140.298 46.6616 139.735 46.3743 139.384 45.8852C139.033 45.3981 138.938 44.7728 139.126 44.2038L142.859 33.0061L146.399 34.1874L143.484 42.9291H146.494V46.6616H146.496Z" fill="black"/>
<path d="M167.025 44.7954H165.159V41.0629H167.025C169.084 41.0629 170.758 39.3889 170.758 37.3303C170.758 35.2718 169.084 33.5978 167.025 33.5978H165.159V29.8652H167.025C171.142 29.8652 174.491 33.2133 174.491 37.3303C174.491 41.4474 171.142 44.7954 167.025 44.7954Z" fill="black"/>
<path d="M124.101 44.7954H122.235C118.118 44.7954 114.77 41.4474 114.77 37.3303C114.77 33.2133 118.118 29.8652 122.235 29.8652H124.101V33.5978H122.235C120.176 33.5978 118.502 35.2718 118.502 37.3303C118.502 39.3889 120.176 41.0629 122.235 41.0629H124.101V44.7954Z" fill="black"/>
<path d="M131.981 51.0813C131.648 51.0813 131.314 51.0364 130.984 50.945C130.023 50.6799 129.222 50.0549 128.729 49.1888L122.479 38.2579L125.719 36.4065L131.971 47.343C134.828 44.5007 138.61 42.9349 142.629 42.9312H146.754C150.671 42.9312 154.357 44.4484 157.138 47.205L163.489 34.6262L166.82 36.3077L160.475 48.8865C160.297 49.2393 160.064 49.5641 159.782 49.8458C159.081 50.5494 158.144 50.9393 157.147 50.9413C157.145 50.9413 157.143 50.9413 157.141 50.9413C156.147 50.9413 155.21 50.5551 154.506 49.8532C152.435 47.8004 149.678 46.6657 146.754 46.6657H142.631C139.606 46.6677 136.76 47.847 134.617 49.984C134.386 50.2174 134.115 50.4245 133.82 50.5942C133.25 50.9151 132.619 51.0813 131.981 51.0813Z" fill="black"/>
<path d="M144.63 72.7899C132.281 72.7899 122.235 62.7438 122.235 50.3944V31.8659L121.955 29.9268C121.955 29.9268 121.955 29.9248 121.955 29.9231C121.805 28.8741 121.729 27.8068 121.727 26.7504C121.695 14.0916 131.967 3.769 144.626 3.73729C146.22 3.72985 147.902 3.90329 149.505 4.24864C161.871 6.9025 169.769 19.1228 167.117 31.4889L167.027 31.9219V50.3926C167.026 62.7438 156.979 72.7899 144.63 72.7899ZM125.65 29.3988L125.948 31.4648C125.962 31.5525 125.967 31.6422 125.967 31.7316V50.3944C125.967 60.685 134.339 69.0571 144.63 69.0571C154.92 69.0571 163.293 60.6868 163.293 50.3944V31.7316C163.293 31.6048 163.306 31.4779 163.332 31.3528L163.463 30.7183C165.687 20.3511 159.073 10.1202 148.721 7.89545C147.381 7.60807 145.968 7.45868 144.637 7.46809C134.037 7.49412 125.435 16.1389 125.461 26.7375C125.462 27.6257 125.525 28.5198 125.65 29.3988Z" fill="black"/>
<path d="M107.305 111.982H103.572V91.4527C103.572 83.0732 109.835 75.9158 118.144 74.8037L131.566 73.0214V67.1912H135.299V74.6563C135.299 75.5913 134.606 76.3826 133.679 76.5057L118.636 78.5025C112.177 79.3667 107.304 84.9318 107.304 91.4508L107.305 111.982Z" fill="black"/>
<path d="M185.689 111.982H181.956V91.4527C181.956 84.9337 177.085 79.3666 170.622 78.5044L155.582 76.5076C154.654 76.3845 153.962 75.5932 153.962 74.6582V67.1926H157.694V73.0229L171.115 74.8051C179.423 75.9155 185.689 83.0747 185.689 91.4542V111.982Z" fill="black"/>
<path d="M144.638 89.5865C144.632 89.5865 144.626 89.5865 144.621 89.5865C140.05 89.5865 135.638 87.9236 132.201 84.9041L134.662 82.1008C137.419 84.5213 140.955 85.8539 144.621 85.8539C144.624 85.8539 144.63 85.8539 144.634 85.8539C148.303 85.8539 151.838 84.5213 154.594 82.1008L157.058 84.9041C153.622 87.9238 149.21 89.5865 144.638 89.5865Z" fill="black"/>
<path d="M135.297 74.6523H131.564V111.978H135.297V74.6523Z" fill="black"/>
<path d="M157.692 74.6523H153.96V111.978H157.692V74.6523Z" fill="black"/>
<path d="M133.432 97.0516H122.235C121.652 97.0516 121.106 96.7791 120.751 96.3182C120.398 95.8554 120.281 95.2544 120.434 94.6945L126.032 74.1653L129.634 75.1451L124.677 93.3171H133.432V97.0516Z" fill="black"/>
<path d="M167.026 97.0516H155.828V93.319H164.581L159.626 75.1471L163.228 74.1672L168.827 94.6965C168.98 95.2564 168.864 95.8574 168.509 96.3202C168.157 96.7791 167.608 97.0516 167.026 97.0516Z" fill="black"/>
<path d="M126.9 106.383C125.357 106.383 124.101 105.127 124.101 103.583C124.101 102.04 125.357 100.784 126.9 100.784C128.444 100.784 129.7 102.04 129.7 103.583C129.7 105.127 128.444 106.383 126.9 106.383ZM126.9 102.65C126.385 102.65 125.967 103.07 125.967 103.584C125.967 104.097 126.385 104.517 126.9 104.517C127.416 104.517 127.834 104.097 127.834 103.584C127.833 103.07 127.416 102.65 126.9 102.65Z" fill="black"/>
<path d="M137.507 53.4246C137.463 61.5503 152.062 60.9476 151.754 53.4246H137.507Z" fill="white" stroke="black" stroke-width="3" stroke-linecap="round" stroke-linejoin="round"/>
<g clip-path="url(#clip0)">
<path d="M30.7668 41.7898V53.1871C30.7668 58.8857 23.1687 68.3835 25.0682 79.7808C46.1511 85.9734 68.5696 85.9734 89.6526 79.7808C91.552 68.3835 86.7843 58.8857 85.8534 53.1871C84.5959 43.7407 83.9615 34.224 83.9539 24.6939C83.9539 12.1 75.6529 1.89941 63.0589 1.89941H51.6616C40.1219 1.89941 30.7666 11.2547 30.7666 22.7945C30.7668 22.7945 30.7668 41.7898 30.7668 41.7898Z" fill="#835050"/>
<path d="M50.9208 1.89941C39.6718 2.29832 30.759 11.5377 30.7665 22.7945V53.1871C30.7665 58.8857 23.1684 68.3835 25.0679 79.7808C34.7916 82.6359 44.8535 84.1876 54.9857 84.3967C40.2643 36.0912 42.164 15.1964 50.9208 1.89941Z" fill="#643B40"/>
<path d="M57.3603 100.676C65.9672 100.674 73.1266 94.058 73.8104 85.4796L74.4562 76.9316L70.2392 76.3998C68.3282 76.1585 66.8997 74.5269 66.9151 72.6007V62.6851H47.8627V72.6196C47.8779 74.5458 46.4494 76.1775 44.5386 76.4188L40.2646 76.9316L40.9104 85.4796C41.5943 94.058 48.7554 100.674 57.3603 100.676Z" fill="#E2A583"/>
<path d="M32.6664 98.7764L30.9379 78.0903L27.4617 78.5273C21.7212 79.2396 17.4263 84.1405 17.4702 89.9246V113.973H26.968C26.968 109.041 28.5674 104.241 31.5269 100.296L32.6664 98.7764Z" fill="#E2A583"/>
<path d="M87.2591 78.5273L83.783 78.0903L82.0544 98.7764L83.1942 100.296C86.1537 104.241 87.7531 109.041 87.7531 113.973H97.2509V89.8487C97.2564 84.093 92.9711 79.2379 87.2591 78.5273Z" fill="#E2A583"/>
<path d="M82.0545 98.7761L83.783 78.09L74.4562 76.9314L73.8104 85.4793C73.0544 94.5649 65.0743 101.316 55.9908 100.56C47.9557 99.8911 41.5809 93.5144 40.9104 85.4793L40.2646 76.9314L30.8808 78.09L32.6663 98.7761L31.5266 100.296C28.5671 104.241 26.9677 109.041 26.9677 113.972H87.7531C87.7531 109.041 86.1537 104.241 83.1942 100.296L82.0545 98.7761Z" fill="#E56B2E"/>
<path d="M17.4697 89.6013V113.725H23.1684V79.7808C19.6581 81.8076 17.4889 85.5477 17.4697 89.6013Z" fill="#BB8068"/>
<path d="M66.8579 71.3087V62.6848H47.8625V71.3087C54.9858 75.0128 59.7346 75.0128 66.8579 71.3087Z" fill="#BB8068"/>
<path d="M34.5657 32.2922C31.4181 32.2922 28.8671 34.8433 28.8671 37.9909C28.8671 41.1385 31.4181 43.6895 34.5657 43.6895H38.3649V32.2922H34.5657Z" fill="#BB8068"/>
<path d="M72.6707 58.8858C70.8244 61.0248 68.5714 62.7743 66.0413 64.0335L62.4512 65.8382C59.2466 67.4376 55.4741 67.4376 52.2696 65.8382L48.4704 63.9387C42.1391 60.7817 37.7835 54.6918 36.8452 47.6787L36.4652 32.2924V22.7946L38.3647 20.8951C40.7543 18.477 44.0083 17.1093 47.4066 17.0959H61.843C70.657 17.0959 70.657 17.0959 72.5565 22.7946C72.5565 22.7946 70.657 47.4886 70.657 51.2877C70.7863 53.9338 71.4719 56.5229 72.6707 58.8858Z" fill="#E2A583"/>
<path d="M44.0634 26.5936C44.0634 23.446 44.4984 20.3137 45.3552 17.2859C42.7033 17.7229 40.2569 18.9859 38.3648 20.8949L36.4653 22.7944V32.2922L36.8642 47.6785C37.6563 53.4931 40.8021 58.7263 45.5642 62.153C43.0377 49.692 44.0634 35.0275 44.0634 26.5936Z" fill="#BB8068"/>
<path d="M29.4561 103.639C27.8282 106.84 26.9752 110.381 26.9677 113.973H39.6567C33.0463 111.199 30.4438 106.944 29.4561 103.639Z" fill="#D65B25"/>
<path d="M68.7574 39.8903C70.8556 39.8903 72.5566 38.1894 72.5566 36.0912C72.5566 33.9929 70.8556 32.292 68.7574 32.292C66.6592 32.292 64.9583 33.9929 64.9583 36.0912C64.9583 38.1894 66.6592 39.8903 68.7574 39.8903Z" fill="black"/>
<path d="M56.7601 49.2911L51.0614 47.3917C50.539 47.2169 50.1174 46.8256 49.9084 46.3165C49.6976 45.8074 49.7185 45.2317 49.9633 44.7398L55.662 33.3425L59.0602 35.0425L54.3417 44.4813L57.9624 45.6876L56.7601 49.2911Z" fill="black"/>
<path d="M19.3695 113.973H15.5703V89.8486C15.5191 83.1146 20.5301 77.3991 27.2278 76.567L44.3237 74.4396C45.2753 74.3198 45.9897 73.5031 45.9839 72.5401V64.5847H49.783V72.5247C49.8057 75.4005 47.6612 77.8509 44.7967 78.2082L27.6988 80.3356C22.914 80.9302 19.3352 85.0143 19.3713 89.8334V113.973H19.3695Z" fill="black"/>
<path d="M99.1693 113.973H95.3702V89.9434C95.4083 85.1091 91.8275 81.027 87.0444 80.4304L69.9485 78.3048C67.0803 77.944 64.9357 75.4936 64.9584 72.6062V64.5845H68.7576V72.6195C68.75 73.5979 69.4641 74.4126 70.4198 74.5344L87.5119 76.66C94.2098 77.4921 99.2206 83.2096 99.1693 89.9567V113.973Z" fill="black"/>
<path d="M53.85 18.1026C52.3608 15.7188 50.0528 13.9863 47.3478 13.2265L48.3773 9.56982C51.9939 10.588 55.0808 12.9035 57.0715 16.091L53.85 18.1026Z" fill="black"/>
<path d="M44.6238 20.3402C43.714 19.438 40.8153 17.0958 38.3649 17.0958V13.2966C42.8232 13.2966 46.8616 17.206 47.3059 17.6523L44.6238 20.3402Z" fill="black"/>
<path d="M44.0636 39.8903C46.1618 39.8903 47.8627 38.1894 47.8627 36.0912C47.8627 33.9929 46.1618 32.292 44.0636 32.292C41.9653 32.292 40.2644 33.9929 40.2644 36.0912C40.2644 38.1894 41.9653 39.8903 44.0636 39.8903Z" fill="black"/>
<path d="M72.8072 67.4261C67.595 58.3045 69.0461 44.7912 70.2086 33.9333C70.7726 28.681 71.3047 23.7194 70.7157 21.3545C70.3737 19.9944 69.728 19.0846 68.7383 18.5773C66.5501 17.4471 63.0301 18.3988 61.8619 18.8602L60.4543 15.3309C61.0451 15.0953 66.3466 13.0875 70.4612 15.1904C72.433 16.199 73.7949 18.0112 74.3991 20.4331C75.1532 23.4514 74.6384 28.2574 73.9868 34.3378C72.8794 44.6523 71.5021 57.4876 76.1049 65.5398L72.8072 67.4261Z" fill="black"/>
<path d="M72.6726 60.7855H72.5566V56.9863L72.6726 60.7855Z" fill="black"/>
<path d="M57.3602 68.9286C55.32 68.9286 53.2819 68.4652 51.424 67.5383L47.6231 65.6388C40.7202 62.1969 35.9883 55.5769 34.9646 47.9312C34.955 47.8628 34.9494 47.7945 34.9494 47.7259L34.5695 32.3396V22.7944H38.3686V32.2922L38.7466 47.5265C39.6299 53.8805 43.5771 59.3739 49.3233 62.2403L53.1243 64.1398C55.7779 65.4638 58.9502 65.4638 61.6095 64.1398L65.1938 62.3371C67.5131 61.1861 69.5437 59.6056 71.2401 57.6453L74.116 60.128C72.0909 62.474 69.6597 64.3622 66.8938 65.7354L63.3113 67.5363C61.4443 68.4652 59.4004 68.9286 57.3602 68.9286Z" fill="black"/>
<path d="M23.1952 80.0922C21.9168 72.4179 24.5818 65.7203 26.7225 60.3368C27.8718 57.4439 28.8671 54.9458 28.8671 53.1871V41.7898H32.6662V53.1871C32.6662 55.6735 31.5474 58.4848 30.2519 61.7408C28.2839 66.6872 25.8355 72.8398 26.9409 79.4693L23.1952 80.0922Z" fill="black"/>
<path d="M91.5255 80.0922L87.7778 79.4692C89.0847 71.6184 87.0635 64.7382 85.4413 59.2126C84.8031 57.0413 84.2522 55.1685 83.9768 53.493C82.7098 43.944 82.064 34.2735 82.0544 24.696C82.0544 12.5864 74.065 3.79916 63.0591 3.79916H51.6618C40.6559 3.79916 32.6665 12.5864 32.6665 24.6942V34.1918H28.8673V24.694C28.8671 10.3849 38.4541 0 51.6616 0H63.0589C76.2663 0 85.8534 10.3849 85.8534 24.694C85.863 34.1063 86.4954 43.6077 87.7359 52.9365C87.9639 54.3231 88.4843 56.0917 89.0847 58.1394C90.7295 63.7296 92.9787 71.3829 91.5255 80.0922Z" fill="black"/>
<path d="M36.4655 45.589H34.566C30.3755 45.589 26.9679 42.1812 26.9679 37.9909C26.9679 33.8006 30.3757 30.3928 34.566 30.3928H36.4655V34.1918H34.566C32.4709 34.1918 30.7668 35.8956 30.7668 37.9909C30.7668 40.0861 32.4706 41.7901 34.566 41.7901H36.4655V45.589Z" fill="black"/>
<path d="M57.3603 102.575C47.8302 102.573 39.7725 95.129 39.0165 85.6295L38.3707 78.0427L42.1565 77.7197L42.8023 85.3178C43.4027 92.8685 49.7965 98.7742 57.3585 98.7762C64.9206 98.7742 71.3164 92.8685 71.9147 85.3294L72.5625 77.7197L76.3463 78.0427L75.7005 85.6408C74.9481 95.129 66.8924 102.574 57.3603 102.575Z" fill="black"/>
<path d="M28.867 113.973H25.0679C25.0679 108.663 26.8211 103.404 30.0085 99.1562L30.7037 98.2293L28.8766 79.9708L32.6566 79.5928L34.5561 98.5881C34.6035 99.0612 34.4706 99.536 34.1857 99.916L33.046 101.436C30.3507 105.028 28.867 109.482 28.867 113.973Z" fill="black"/>
<path d="M89.6525 113.973H85.8534C85.8534 109.48 84.3697 105.028 81.6762 101.434L80.5345 99.916C80.2496 99.5343 80.1167 99.0612 80.1641 98.5864L82.0636 79.5911L85.8436 79.969L84.018 98.2256L84.7132 99.1525C87.8993 103.404 89.6525 108.663 89.6525 113.973Z" fill="black"/>
</g>
<path d="M50.2467 53.113C50.2134 59.2052 61.1593 58.7533 60.9279 53.113H50.2467Z" fill="white" stroke="black" stroke-width="2.24922" stroke-linecap="round" stroke-linejoin="round"/>
<ellipse cx="104.562" cy="125.993" rx="22.2603" ry="4.00685" fill="black" fill-opacity="0.3"/>
<g clip-path="url(#clip1)">
<path d="M118.843 102.247V84.8421C118.843 72.9 114.017 61.4643 105.462 53.1321L105.459 53.1295C96.8935 61.4626 92.0616 72.9052 92.0613 84.8555L92.0613 102.247L118.843 102.247Z" fill="#1292EE"/>
<path d="M109.087 79.0776C111.098 81.0883 111.098 84.3488 109.087 86.3596C107.076 88.3707 103.816 88.3703 101.805 86.3596C99.7937 84.3485 99.7934 81.0883 101.804 79.0773C103.815 77.0665 107.076 77.0665 109.087 79.0776Z" fill="white"/>
<path d="M108.268 65.5419C109.826 67.1005 109.826 69.6275 108.268 71.1858C106.709 72.7444 104.182 72.7444 102.624 71.1858C101.066 69.6275 101.066 67.1005 102.624 65.5419C104.182 63.9836 106.709 63.9836 108.268 65.5419Z" fill="white"/>
<path d="M111.455 107.396C111.456 112.886 109.744 118.24 106.56 122.712L105.446 124.277L104.332 122.712C101.148 118.24 99.4364 112.886 99.4361 107.396L111.455 107.396Z" fill="#FFC66C"/>
<path d="M92.0484 107.719C92.0487 111.175 90.9717 114.545 88.9675 117.36L88.266 118.345L87.5646 117.36C85.5604 114.545 84.4834 111.175 84.483 107.719L92.0484 107.719Z" fill="#FFC66C"/>
<path d="M126.409 107.719C126.409 111.175 125.332 114.544 123.327 117.36L122.626 118.344L121.925 117.36C119.92 114.544 118.843 111.175 118.843 107.719L126.409 107.719Z" fill="#FFC66C"/>
<path d="M102.477 93.0172L108.413 93.0172L108.414 103.478C108.414 106.363 107.358 109.148 105.446 111.309C103.534 109.148 102.478 106.363 102.478 103.478L102.477 93.0172Z" fill="#4DBAF6"/>
<path d="M126.408 107.72L118.843 107.72L118.843 92.9534C118.843 90.2 119.85 87.5424 121.675 85.4813L122.626 84.4079L123.576 85.4813C125.401 87.5424 126.408 90.2 126.408 92.9534L126.408 107.72Z" fill="#4DBAF6"/>
<path d="M92.048 107.72H84.4827L84.4827 92.9534C84.483 90.2003 85.4903 87.5428 87.3149 85.4813L88.2657 84.4076L89.2157 85.4813C91.0407 87.5424 92.0483 90.2003 92.048 92.9534V107.72Z" fill="#4DBAF6"/>
<path d="M100.967 78.2396C99.7703 79.4361 99.1118 81.0271 99.1118 82.7185C99.1114 84.4103 99.7703 86.0009 100.967 87.1974C102.163 88.3935 103.754 89.0524 105.446 89.0524C107.137 89.0524 108.728 88.3935 109.924 87.1971C111.12 86.0009 111.779 84.4103 111.78 82.7185C111.779 81.0268 111.121 79.4361 109.925 78.2396C108.728 77.0432 107.137 76.3846 105.446 76.3846C103.754 76.3846 102.163 77.0435 100.967 78.2396ZM109.41 82.7185C109.411 83.7775 108.998 84.7731 108.249 85.522C107.5 86.2709 106.505 86.6834 105.445 86.6834C104.387 86.6834 103.391 86.2712 102.642 85.5223C101.893 84.7734 101.48 83.7779 101.48 82.7185C101.481 81.6595 101.893 80.6636 102.642 79.9147C103.391 79.1658 104.387 78.7536 105.446 78.7539C106.505 78.7536 107.501 79.1658 108.249 79.9147C108.998 80.6636 109.411 81.6595 109.41 82.7185Z" fill="black"/>
<path d="M110.621 68.3637C110.621 66.9817 110.083 65.6819 109.105 64.7044C108.128 63.7268 106.828 63.1886 105.446 63.1886C104.063 63.1886 102.764 63.7271 101.786 64.7047C100.809 65.6819 100.27 66.9817 100.271 68.364C100.27 69.7463 100.809 71.0458 101.786 72.0233C102.764 73.0009 104.063 73.5394 105.446 73.5391C106.828 73.5394 108.128 73.0006 109.105 72.0233C110.083 71.0461 110.621 69.7463 110.621 68.3637ZM103.461 70.3483C102.931 69.8183 102.64 69.1135 102.64 68.3637C102.64 67.6145 102.931 66.9098 103.461 66.3798C103.991 65.8498 104.696 65.5576 105.446 65.5576C106.195 65.5576 106.9 65.8498 107.43 66.3798C107.96 66.9098 108.252 67.6141 108.252 68.364C108.252 69.1132 107.96 69.8183 107.43 70.3483C106.9 70.8783 106.195 71.1701 105.446 71.1701C104.696 71.1704 103.991 70.8783 103.461 70.3483Z" fill="black"/>
<path d="M116.452 67.1729C114.08 61.5529 110.663 56.5453 106.294 52.2893C105.835 51.8342 105.096 51.8303 104.633 52.2804C100.257 56.5385 96.8326 61.55 94.4571 67.1755C92.0816 72.8005 90.8773 78.7493 90.8773 84.8555L90.877 85.6658C90.6355 85.3315 90.3787 85.0073 90.1032 84.6958L89.1525 83.6221C88.9277 83.3685 88.6048 83.2229 88.2655 83.2226C87.9266 83.2226 87.6043 83.3682 87.3786 83.6221L86.4285 84.6958C84.4099 86.9755 83.2985 89.9079 83.2989 92.9528L83.2985 102.162C83.2989 102.162 83.2985 102.163 83.2985 102.163C83.2985 102.163 83.2989 102.163 83.2985 102.163L83.2985 107.719C83.2985 111.442 84.4403 115.014 86.5996 118.047L87.3011 119.031C87.5232 119.344 87.8824 119.529 88.2659 119.529C88.5826 119.529 88.8832 119.402 89.1034 119.182C89.1495 119.136 89.1921 119.086 89.2307 119.031L89.9321 118.047C92.0914 115.014 93.2325 111.442 93.2329 107.719V103.431L96.1436 103.431L96.144 107.396C96.1436 108.05 96.674 108.581 97.3283 108.581L98.2774 108.581C98.5031 113.922 100.25 119.022 103.367 123.399L104.481 124.964C104.703 125.276 105.063 125.461 105.446 125.462C105.763 125.461 106.063 125.335 106.283 125.115C106.329 125.068 106.372 125.018 106.411 124.964L107.525 123.399C110.641 119.022 112.389 113.922 112.614 108.581H113.577C113.891 108.581 114.193 108.456 114.415 108.234C114.637 108.012 114.762 107.71 114.762 107.396L114.762 103.431H117.658L117.658 107.719C117.658 111.443 118.8 115.014 120.959 118.047L121.66 119.031C121.883 119.344 122.242 119.529 122.625 119.529C122.942 119.529 123.243 119.402 123.463 119.182C123.509 119.136 123.551 119.086 123.59 119.031L124.291 118.047C126.451 115.013 127.593 111.442 127.593 107.719L127.592 92.9528C127.592 89.9082 126.481 86.9755 124.463 84.6958L123.512 83.6221C123.287 83.3682 122.964 83.2229 122.625 83.2229C122.286 83.2226 121.964 83.3679 121.738 83.6221L120.788 84.6958C120.517 85.0011 120.264 85.3194 120.027 85.6472L120.027 84.8417C120.027 78.7398 118.824 72.7949 116.452 67.1729ZM85.6675 92.9528C85.6675 90.4873 86.5676 88.1124 88.2021 86.2659L88.2659 86.1942L88.329 86.2659C89.9638 88.112 90.8639 90.4869 90.8642 92.9528L90.8639 100.978L85.6675 100.978V92.9528ZM85.6675 103.347L90.8639 103.347L90.8642 106.535L85.6675 106.535L85.6675 103.347ZM85.713 108.904L90.8187 108.904C90.6178 111.548 89.7473 114.074 88.2659 116.291C86.7845 114.074 85.9136 111.549 85.713 108.904ZM98.513 103.431H101.293L101.294 103.478C101.294 104.404 101.393 105.32 101.584 106.212L99.4372 106.212C99.4369 106.212 99.4365 106.212 99.4365 106.212C99.4362 106.212 99.4359 106.212 99.4356 106.212H98.513L98.513 103.431ZM107.229 103.479C107.229 105.589 106.604 107.636 105.446 109.372C104.288 107.636 103.662 105.588 103.662 103.478L103.662 94.2019L107.229 94.2015V103.479ZM105.595 122.025L105.446 122.235L105.296 122.026C102.467 118.052 100.873 113.426 100.649 108.581H102.337C102.88 109.853 103.626 111.04 104.559 112.093C104.784 112.348 105.107 112.493 105.446 112.493C105.761 112.493 106.062 112.367 106.283 112.146C106.3 112.129 106.316 112.112 106.332 112.093C107.265 111.04 108.012 109.852 108.555 108.581L110.242 108.581C110.018 113.426 108.424 118.052 105.595 122.025ZM112.393 106.212H109.307C109.499 105.32 109.598 104.404 109.598 103.478L109.598 103.432L112.393 103.432V106.212ZM120.028 103.347L125.224 103.347L125.224 106.535L120.028 106.535V103.347ZM120.073 108.904H125.178C124.978 111.548 124.107 114.074 122.625 116.291C121.144 114.074 120.273 111.548 120.073 108.904ZM122.562 86.2659L122.626 86.1939L122.689 86.2659C124.324 88.1124 125.224 90.4869 125.224 92.9531V100.978H120.027L120.027 92.9511C120.028 90.486 120.928 88.1121 122.562 86.2659ZM117.658 92.9528V101.062H113.578C113.578 101.062 113.578 101.062 113.577 101.062L113.577 101.062L109.598 101.062V93.0169C109.598 92.3632 109.068 91.8329 108.414 91.8326L102.478 91.8326C102.164 91.8326 101.862 91.9572 101.64 92.1793C101.418 92.4015 101.294 92.7028 101.294 93.0169V101.062H93.246L93.246 84.8555C93.246 73.6841 97.6829 62.8001 105.459 54.8052C113.226 62.7981 117.659 73.6779 117.659 84.842L117.658 92.9508C117.659 92.9518 117.659 92.9524 117.658 92.9528Z" fill="black"/>
<path d="M95.626 91.8985L95.6261 97.1547C95.6261 97.809 96.1564 98.3394 96.8104 98.339C97.1375 98.339 97.4336 98.2065 97.6479 97.9923C97.8622 97.778 97.9947 97.4819 97.9947 97.1547L97.9947 91.8985C97.995 91.2445 97.4647 90.7142 96.8104 90.7142C96.1564 90.7138 95.626 91.2442 95.626 91.8985Z" fill="black"/>
<path d="M95.973 86.2838C95.7525 86.5043 95.6253 86.8089 95.6262 87.1213C95.6262 87.4328 95.7519 87.7377 95.973 87.9589C96.1932 88.1791 96.4978 88.305 96.8106 88.3057C97.122 88.3057 97.4276 88.1794 97.6481 87.9589C97.8689 87.738 97.9946 87.4331 97.9946 87.1217C97.9943 86.8099 97.8683 86.504 97.6481 86.2838C97.427 86.0626 97.1211 85.936 96.8102 85.9373C96.4978 85.9364 96.1939 86.063 95.973 86.2838Z" fill="black"/>
</g>
<defs>
<clipPath id="clip0">
<rect width="113.973" height="113.973" fill="white" transform="translate(0.383545)"/>
</clipPath>
<clipPath id="clip1">
<rect width="74.7945" height="74.7945" fill="white" transform="translate(68.0548 50.7534)"/>
</clipPath>
</defs>
</svg>
