<svg width="92" height="89" viewBox="0 0 92 89" fill="none" xmlns="http://www.w3.org/2000/svg">
<path d="M50.75 85.478V86.9615H91.9167V72.8077C69.1625 72.8077 50.75 78.3918 50.75 85.478Z" fill="#B6DEDC"/>
<path d="M0.0826416 72.8077V86.9615H41.2494V85.478C41.2494 78.3918 22.8369 72.8077 0.0826416 72.8077Z" fill="#B6DEDC"/>
<path d="M46 13.047C33.7576 13.047 23.8333 22.2883 23.8333 33.688C23.7728 37.744 24.9507 41.723 27.2118 45.101C29.4729 48.479 32.7111 51.0975 36.5 52.6115L37.1333 52.953L39.6666 57.0812H52.3333L54.8666 52.953L55.5 52.6115C59.2888 51.0975 62.5271 48.479 64.7882 45.101C67.0493 41.723 68.2271 37.744 68.1667 33.688C68.1667 22.2883 58.2423 13.047 46 13.047Z" fill="#FCD821"/>
<path d="M52.3332 57.0812H39.6665C37.9176 57.0812 36.4999 58.4894 36.4999 60.2265C36.4999 61.9636 37.9176 63.3718 39.6665 63.3718H52.3332C54.0821 63.3718 55.4999 61.9636 55.4999 60.2265C55.4999 58.4894 54.0821 57.0812 52.3332 57.0812Z" fill="#344496"/>
<path d="M52.3332 63.3718H39.6665C37.9176 63.3718 36.4999 64.78 36.4999 66.5171C36.4999 68.2542 37.9176 69.6624 39.6665 69.6624H52.3332C54.0821 69.6624 55.4999 68.2542 55.4999 66.5171C55.4999 64.78 54.0821 63.3718 52.3332 63.3718Z" fill="#344496"/>
<path d="M12.0416 14.4539L13.458 11.6403L22.958 16.3582L21.5416 19.1718L12.0416 14.4539Z" fill="#FCD821"/>
<path d="M68.6732 15.5828L78.7486 12.2453L79.7506 15.2293L69.6752 18.5668L68.6732 15.5828Z" fill="#FCD821"/>
<path d="M6.4165 31.9189H15.9165V35.0642H6.4165V31.9189Z" fill="#FCD821"/>
<path d="M76.0833 31.9189H85.5833V35.0642H76.0833V31.9189Z" fill="#FCD821"/>
<path d="M12.0416 55.6746L21.5416 50.9566L22.958 53.7702L13.458 58.4881L12.0416 55.6746Z" fill="#FCD821"/>
<path d="M69.0417 53.7702L70.4581 50.9566L79.9581 55.6746L78.5418 58.4881L69.0417 53.7702Z" fill="#FCD821"/>
<path d="M56.181 54.0334C60.2431 52.3948 63.7121 49.5755 66.1334 45.9451C68.5547 42.3146 69.8152 38.0423 69.7499 33.688C69.7499 21.4393 59.0956 11.4743 45.9999 11.4743C32.9041 11.4743 22.2499 21.4393 22.2499 33.688C22.1845 38.0423 23.4451 42.3146 25.8664 45.9451C28.2876 49.5755 31.7566 52.3948 35.8188 54.0334L36.0028 54.1325L37.2601 56.1816C36.6518 56.5313 36.1303 57.0122 35.7341 57.5887C35.3378 58.1652 35.0769 58.8228 34.9705 59.5128C34.8642 60.2029 34.9151 60.9078 35.1196 61.5757C35.3241 62.2436 35.6769 62.8573 36.152 63.3718C35.5328 64.0459 35.1247 64.8845 34.9776 65.7852C34.8304 66.6859 34.9505 67.6097 35.3233 68.4437C35.6961 69.2777 36.3053 69.9858 37.0766 70.4815C37.8479 70.9772 38.7479 71.239 39.6665 71.235H52.3332C53.2519 71.239 54.1519 70.9772 54.9232 70.4815C55.6945 69.9858 56.3037 69.2777 56.6764 68.4437C57.0492 67.6097 57.1694 66.6859 57.0222 65.7852C56.875 64.8845 56.467 64.0459 55.8478 63.3718C56.3229 62.8573 56.6757 62.2436 56.8802 61.5757C57.0846 60.9078 57.1356 60.2029 57.0292 59.5128C56.9229 58.8228 56.662 58.1652 56.2657 57.5887C55.8694 57.0122 55.3479 56.5313 54.7396 56.1816L55.997 54.1325L56.181 54.0334ZM52.3332 68.0897H39.6665C39.2466 68.0897 38.8439 67.924 38.547 67.6291C38.25 67.3342 38.0832 66.9342 38.0832 66.5171C38.0832 66.1 38.25 65.7 38.547 65.405C38.8439 65.1101 39.2466 64.9444 39.6665 64.9444H52.3332C52.7531 64.9444 53.1559 65.1101 53.4528 65.405C53.7497 65.7 53.9166 66.1 53.9166 66.5171C53.9166 66.9342 53.7497 67.3342 53.4528 67.6291C53.1559 67.924 52.7531 68.0897 52.3332 68.0897ZM52.3332 61.7991H39.6665C39.2466 61.7991 38.8439 61.6334 38.547 61.3385C38.25 61.0436 38.0832 60.6436 38.0832 60.2265C38.0832 59.8094 38.25 59.4094 38.547 59.1144C38.8439 58.8195 39.2466 58.6538 39.6665 58.6538H52.3332C52.7531 58.6538 53.1559 58.8195 53.4528 59.1144C53.7497 59.4094 53.9166 59.8094 53.9166 60.2265C53.9166 60.6436 53.7497 61.0436 53.4528 61.3385C53.1559 61.6334 52.7531 61.7991 52.3332 61.7991ZM54.7438 51.229L54.1106 51.5708C53.8656 51.7035 53.66 51.8978 53.5145 52.1344L51.4441 55.5085H50.7499V43.5785L58.2026 36.176L55.9638 33.9522L48.0471 41.8155C47.7502 42.1103 47.5833 42.5103 47.5832 42.9273V55.5085H44.4165V42.9273C44.4164 42.5103 44.2496 42.1103 43.9526 41.8155L36.036 33.9522L33.7971 36.1759L41.2499 43.5785V55.5085H40.5556L38.4852 52.1344C38.3397 51.8978 38.1342 51.7035 37.8892 51.5708L37.256 51.229C37.2052 51.2021 37.1531 51.1777 37.0998 51.1561C33.6029 49.7587 30.6145 47.3414 28.5288 44.223C26.4431 41.1045 25.358 37.4314 25.4165 33.688C25.4165 23.174 34.6498 14.6196 45.9999 14.6196C57.35 14.6196 66.5832 23.174 66.5832 33.688C66.6418 37.4314 65.5567 41.1045 63.4709 44.223C61.3852 47.3414 58.3969 49.7587 54.9 51.1561C54.8467 51.1777 54.7946 51.2021 54.7438 51.229Z" fill="black"/>
<path d="M44.4166 0.46579H47.5833V8.32904H44.4166V0.46579Z" fill="#FCD821"/>
<path d="M91.9161 74.3803V71.235C71.2593 71.235 49.3083 76.1949 49.1668 85.3889H42.8319C42.6905 76.1949 20.7395 71.235 0.0826416 71.235V74.3803C23.2783 74.3803 39.4755 80.1626 39.6575 85.3889H0.0826416V88.5342H91.9161V85.3889H52.3412C52.5233 80.1626 68.7205 74.3803 91.9161 74.3803Z" fill="black"/>
<path d="M0 82.2413L0.165304 79.1005L30.2481 80.6838L30.0828 83.8246L0 82.2413Z" fill="black"/>
<path d="M61.7499 80.6759L91.833 79.0979L92 82.2386L61.9169 83.8166L61.7499 80.6759Z" fill="black"/>
</svg>
