<svg width="110" height="95" viewBox="0 0 110 95" fill="none" xmlns="http://www.w3.org/2000/svg">
<path fillRule="evenodd" clipRule="evenodd" d="M56.2495 9.05711L54.9087 7.19063L53.5102 9.05711L52.8209 8.54061L54.9234 5.73462L56.949 8.5546L56.2495 9.05711ZM50.7131 12.7901L50.0238 12.2736L47.2267 16.0065L47.916 16.523L50.7131 12.7901ZM45.1189 20.256L44.4296 19.7395L41.6325 23.4725L42.3218 23.989L45.1189 20.256ZM39.5247 27.7219L38.8354 27.2054L36.0383 30.9384L36.7276 31.4549L39.5247 27.7219ZM33.9305 35.1878L33.2412 34.6714L30.4441 38.4043L31.1334 38.9208L33.9305 35.1878ZM28.3364 42.6538L27.647 42.1373L24.8499 45.8702L25.5393 46.3867L28.3364 42.6538ZM22.7422 50.1197L22.0529 49.6032L19.2558 53.3362L19.9451 53.8527L22.7422 50.1197ZM17.148 57.5856L16.4587 57.0691L14.0277 60.3135H18.1463V59.4521H15.7494L17.148 57.5856ZM22.94 59.4521V60.3135H27.7337V59.4521H22.94ZM32.5274 59.4521V60.3135H37.3211V59.4521H32.5274ZM42.1148 59.4521V60.3135H46.9085V59.4521H42.1148ZM51.7022 59.4521V60.3135H56.4959V59.4521H51.7022ZM61.2896 59.4521V60.3135H66.0833V59.4521H61.2896ZM70.877 59.4521V60.3135H75.6707V59.4521H70.877ZM80.4644 59.4521V60.3135H85.2581V59.4521H80.4644ZM90.0518 59.4521V60.3135H94.1279L91.8075 57.0831L91.108 57.5856L92.4487 59.4521H90.0518ZM88.4265 53.8527L89.1261 53.3502L86.4447 49.6172L85.7451 50.1197L88.4265 53.8527ZM83.0637 46.3867L83.7633 45.8842L81.0818 42.1513L80.3823 42.6538L83.0637 46.3867ZM77.7009 38.9208L78.4004 38.4183L75.719 34.6853L75.0194 35.1879L77.7009 38.9208ZM72.338 31.4549L73.0376 30.9524L70.3561 27.2194L69.6566 27.7219L72.338 31.4549ZM66.9752 23.989L67.6747 23.4865L64.9933 19.7535L64.2937 20.256L66.9752 23.989ZM61.6123 16.523L62.3119 16.0205L59.6305 12.2876L58.9309 12.7901L61.6123 16.523Z" fill="black"/>
<path fillRule="evenodd" clipRule="evenodd" d="M54.7761 8.47242V6.0127H55.9246V8.47242H54.7761ZM54.7761 18.3113V13.3919H55.9246V18.3113H54.7761ZM54.7761 28.1502V23.2308H55.9246V28.1502H54.7761ZM54.7761 37.9891V33.0697H55.9246V37.9891H54.7761ZM54.7761 47.828V42.9086H55.9246V47.828H54.7761ZM54.7761 57.6669V52.7475H55.9246V57.6669H54.7761ZM54.7761 65.0461V62.5864H55.9246V65.0461H54.7761Z" fill="black"/>
<path d="M70.808 20.9047C70.808 29.0352 64.2169 35.6263 56.0864 35.6263C47.9559 35.6263 41.3649 29.0352 41.3649 20.9047C41.3649 12.7742 47.9559 6.18317 56.0864 6.18317C64.2169 6.18317 70.808 12.7742 70.808 20.9047Z" fill="#C4C4C4"/>
<path fillRule="evenodd" clipRule="evenodd" d="M71.9564 20.9047C71.9564 29.6695 64.8512 36.7747 56.0864 36.7747C47.3217 36.7747 40.2164 29.6695 40.2164 20.9047C40.2164 12.14 47.3217 5.03473 56.0864 5.03473C64.8512 5.03473 71.9564 12.14 71.9564 20.9047ZM56.0864 35.6263C64.2169 35.6263 70.808 29.0352 70.808 20.9047C70.808 12.7742 64.2169 6.18319 56.0864 6.18319C47.956 6.18319 41.3649 12.7742 41.3649 20.9047C41.3649 29.0352 47.956 35.6263 56.0864 35.6263Z" fill="black"/>
<mask id="mask0" mask-type="alpha" maskUnits="userSpaceOnUse" x="41" y="0" width="30" height="36">
<path fillRule="evenodd" clipRule="evenodd" d="M70.8081 0H41.365V20.0213H41.3911C41.3738 20.3136 41.365 20.6081 41.365 20.9047C41.365 29.0352 47.9561 35.6263 56.0865 35.6263C64.217 35.6263 70.8081 29.0352 70.8081 20.9047C70.8081 20.6081 70.7993 20.3136 70.782 20.0213H70.8081V0Z" fill="#C4C4C4"/>
</mask>
<g mask="url(#mask0)">
<path d="M47.4336 14.1813V17.8883C47.4336 19.7418 44.9623 22.8311 45.5801 26.5381C52.4375 28.5523 59.7293 28.5523 66.5866 26.5381C67.2044 22.8311 65.6537 19.7418 65.3509 17.8883C64.9419 14.8158 64.7356 11.7205 64.7331 8.62073C64.7331 4.52446 62.0331 1.20667 57.9368 1.20667H54.2298C50.4764 1.20667 47.4336 4.24955 47.4336 8.00292C47.4336 8.00292 47.4336 14.1813 47.4336 14.1813Z" fill="#A0521F"/>
<path d="M53.9889 1.20667C50.3301 1.33641 47.4312 4.34157 47.4336 8.00292V17.8883C47.4336 19.7418 44.9623 22.831 45.5801 26.5381C48.7428 27.4667 52.0155 27.9714 55.3111 28.0394C50.5228 12.3278 51.1407 5.53159 53.9889 1.20667Z" fill="#8E4617"/>
<path d="M56.0834 33.3343C58.8829 33.3337 61.2115 31.1818 61.4339 28.3916L61.644 25.6113L60.2724 25.4383C59.6508 25.3598 59.1862 24.8291 59.1912 24.2026V20.9775H52.9943V24.2088C52.9992 24.8353 52.5346 25.366 51.9131 25.4445L50.5229 25.6113L50.733 28.3916C50.9554 31.1818 53.2846 33.3337 56.0834 33.3343Z" fill="#FEDAC6"/>
<path d="M48.0515 32.7165L47.4893 25.9882L46.3587 26.1303C44.4916 26.362 43.0946 27.956 43.1089 29.8373V37.6592H46.1981C46.1981 36.0552 46.7183 34.494 47.6809 33.2108L48.0515 32.7165Z" fill="#FEDAC6"/>
<path d="M65.8082 26.1303L64.6776 25.9882L64.1154 32.7165L64.4861 33.2108C65.4487 34.494 65.9689 36.0552 65.9689 37.6592H69.0581V29.8127C69.0599 27.9406 67.6661 26.3614 65.8082 26.1303Z" fill="#FEDAC6"/>
<path d="M64.1154 32.7165L64.6776 25.9882L61.6439 25.6113L61.4339 28.3916C61.188 31.3467 58.5925 33.5425 55.638 33.2966C53.0245 33.0791 50.951 31.0051 50.733 28.3916L50.5229 25.6113L47.4708 25.9882L48.0515 32.7165L47.6808 33.2107C46.7182 34.494 46.198 36.0552 46.198 37.6592H65.9689C65.9689 36.0552 65.4487 34.494 64.4861 33.2107L64.1154 32.7165Z" fill="#2CD37F"/>
<path d="M43.1088 29.7323V37.5788H44.9623V26.5381C43.8206 27.1973 43.115 28.4138 43.1088 29.7323Z" fill="#F5C4B0"/>
<path d="M59.1726 23.7825V20.9775H52.9943V23.7825C55.3112 24.9873 56.8557 24.9873 59.1726 23.7825Z" fill="#F5C4B0"/>
<path d="M48.6693 11.0922C47.6455 11.0922 46.8158 11.9219 46.8158 12.9457C46.8158 13.9695 47.6455 14.7992 48.6693 14.7992H49.905V11.0922H48.6693Z" fill="#F5C4B0"/>
<path d="M61.0632 19.7418C60.4627 20.4376 59.7299 21.0066 58.9069 21.4162L57.7392 22.0031C56.6969 22.5234 55.4699 22.5234 54.4276 22.0031L53.1919 21.3853C51.1326 20.3585 49.7159 18.3777 49.4107 16.0966L49.2871 11.0922V8.00293L49.9049 7.38512C50.6822 6.5986 51.7406 6.15376 52.8459 6.14941H57.5414C60.4082 6.14941 60.4082 6.14941 61.026 8.00293C61.026 8.00293 60.4082 16.0348 60.4082 17.2705C60.4503 18.1312 60.6733 18.9733 61.0632 19.7418Z" fill="#FEDAC6"/>
<path fillRule="evenodd" clipRule="evenodd" d="M55.8754 19.1266C54.9834 19.1314 53.8911 18.8226 53.3904 17.9812L54.326 17.4244C54.5336 17.7731 55.1295 18.0419 55.8696 18.0379C56.2177 18.036 56.5415 17.9709 56.7888 17.8604C57.0391 17.7486 57.1664 17.6125 57.2168 17.4923L58.2209 17.9133C58.0291 18.3705 57.6413 18.672 57.2329 18.8545C56.8217 19.0382 56.3434 19.1241 55.8754 19.1266Z" fill="black"/>
<path d="M51.7586 9.23863C51.7586 8.21485 51.9 7.19607 52.1787 6.21124C51.3162 6.35337 50.5205 6.76418 49.905 7.38511L49.2872 8.00293V11.0921L49.417 16.0966C49.6746 17.9879 50.6978 19.69 52.2467 20.8046C51.4249 16.7515 51.7586 11.9818 51.7586 9.23863Z" fill="#F5C4B0"/>
<path d="M47.0074 34.2982C46.4779 35.3392 46.2005 36.4909 46.198 37.6592H50.3252C48.1751 36.7571 47.3286 35.3732 47.0074 34.2982Z" fill="#28BE72"/>
<path d="M59.7904 13.5635C60.4729 13.5635 61.0261 13.0102 61.0261 12.3278C61.0261 11.6453 60.4729 11.0921 59.7904 11.0921C59.1079 11.0921 58.5547 11.6453 58.5547 12.3278C58.5547 13.0102 59.1079 13.5635 59.7904 13.5635Z" fill="black"/>
<path d="M55.8883 16.6211L54.0347 16.0033C53.8648 15.9465 53.7277 15.8192 53.6597 15.6536C53.5911 15.488 53.5979 15.3008 53.6776 15.1408L55.5311 11.4337L56.6364 11.9867L55.1017 15.0567L56.2793 15.4491L55.8883 16.6211Z" fill="black"/>
<path d="M43.7267 37.6592H42.491V29.8127C42.4743 27.6224 44.1042 25.7634 46.2826 25.4927L51.8432 24.8008C52.1527 24.7618 52.3851 24.4962 52.3832 24.183V21.5954H53.6189V24.178C53.6263 25.1133 52.9287 25.9104 51.9971 26.0266L46.4358 26.7185C44.8795 26.9119 43.7155 28.2403 43.7273 29.8077V37.6592H43.7267Z" fill="black"/>
<path d="M69.6821 37.6592H68.4464V29.8435C68.4588 28.2711 67.2941 26.9434 65.7384 26.7494L60.1778 26.058C59.2449 25.9406 58.5474 25.1436 58.5547 24.2045V21.5954H59.7904V24.2088C59.788 24.527 60.0203 24.792 60.3311 24.8316L65.8904 25.523C68.0689 25.7937 69.6987 27.6533 69.6821 29.8479V37.6592Z" fill="black"/>
<path d="M54.9417 6.47689C54.4573 5.70153 53.7066 5.13801 52.8268 4.8909L53.1616 3.70154C54.338 4.03271 55.342 4.78585 55.9895 5.82258L54.9417 6.47689Z" fill="black"/>
<path d="M51.9408 7.20467C51.6449 6.91122 50.702 6.1494 49.905 6.1494V4.9137C51.3551 4.9137 52.6687 6.18524 52.8132 6.33041L51.9408 7.20467Z" fill="black"/>
<path d="M51.7585 13.5635C52.441 13.5635 52.9942 13.0102 52.9942 12.3278C52.9942 11.6453 52.441 11.0921 51.7585 11.0921C51.0761 11.0921 50.5228 11.6453 50.5228 12.3278C50.5228 13.0102 51.0761 13.5635 51.7585 13.5635Z" fill="black"/>
<path d="M61.1077 22.5197C59.4124 19.5528 59.8844 15.1575 60.2625 11.6259C60.4459 9.91757 60.619 8.30378 60.4274 7.53457C60.3162 7.09219 60.1062 6.79628 59.7842 6.63127C59.0725 6.26368 57.9276 6.57321 57.5476 6.7233L57.0898 5.57535C57.282 5.49875 59.0064 4.84567 60.3446 5.52966C60.986 5.85772 61.429 6.44715 61.6255 7.2349C61.8708 8.21661 61.7033 9.77979 61.4914 11.7575C61.1312 15.1123 60.6832 19.2871 62.1803 21.9061L61.1077 22.5197Z" fill="black"/>
<path d="M61.0638 20.3597H61.0261V19.124L61.0638 20.3597Z" fill="black"/>
<path d="M56.0834 23.0084C55.4198 23.0084 54.7569 22.8577 54.1526 22.5562L52.9163 21.9384C50.6711 20.8189 49.132 18.6657 48.799 16.1789C48.7959 16.1566 48.7941 16.1344 48.7941 16.1121L48.6705 11.1076V8.00296H49.9062V11.0922L50.0292 16.0472C50.3165 18.1139 51.6003 19.9007 53.4693 20.833L54.7056 21.4508C55.5687 21.8815 56.6005 21.8815 57.4655 21.4508L58.6313 20.8645C59.3857 20.4901 60.0461 19.976 60.5979 19.3384L61.5333 20.146C60.8746 20.909 60.0839 21.5231 59.1842 21.9698L58.019 22.5555C57.4117 22.8577 56.7469 23.0084 56.0834 23.0084Z" fill="black"/>
<path d="M44.971 26.6394C44.5552 24.1433 45.422 21.9648 46.1183 20.2138C46.4921 19.2729 46.8158 18.4604 46.8158 17.8883V14.1813H48.0515V17.8883C48.0515 18.697 47.6876 19.6114 47.2663 20.6705C46.6261 22.2793 45.8298 24.2805 46.1893 26.4368L44.971 26.6394Z" fill="black"/>
<path d="M67.1959 26.6394L65.9769 26.4367C66.402 23.8832 65.7446 21.6454 65.217 19.8481C65.0094 19.1419 64.8302 18.5328 64.7407 17.9878C64.3285 14.8819 64.1185 11.7365 64.1154 8.62137C64.1154 4.68265 61.5168 1.82454 57.937 1.82454H54.23C50.6502 1.82454 48.0516 4.68265 48.0516 8.62079V11.7099H46.8159V8.62072C46.8158 3.96658 49.9341 0.588837 54.2299 0.588837H57.937C62.2328 0.588837 65.351 3.96658 65.351 8.62072C65.3541 11.6821 65.5598 14.7725 65.9633 17.8068C66.0375 18.2578 66.2067 18.833 66.402 19.4991C66.937 21.3173 67.6686 23.8066 67.1959 26.6394Z" fill="black"/>
<path d="M49.2873 15.417H48.6695C47.3065 15.417 46.1981 14.3086 46.1981 12.9457C46.1981 11.5828 47.3065 10.4743 48.6695 10.4743H49.2873V11.71H48.6695C47.988 11.71 47.4337 12.2641 47.4337 12.9457C47.4337 13.6271 47.9879 14.1814 48.6695 14.1814H49.2873V15.417Z" fill="black"/>
<path d="M56.0833 33.9522C52.9836 33.9515 50.3628 31.5302 50.1169 28.4404L49.9069 25.9728L51.1382 25.8677L51.3483 28.3391C51.5435 30.795 53.6232 32.7158 56.0828 32.7165C58.5424 32.7158 60.6227 30.795 60.8173 28.3428L61.028 25.8677L62.2587 25.9728L62.0486 28.4441C61.8039 31.5302 59.1837 33.9516 56.0833 33.9522Z" fill="black"/>
<path d="M46.8158 37.6592H45.5801C45.5801 35.9323 46.1503 34.2216 47.1871 32.8401L47.4132 32.5386L46.8189 26.5999L48.0484 26.4769L48.6662 32.6553C48.6816 32.8092 48.6384 32.9636 48.5457 33.0872L48.175 33.5815C47.2983 34.7498 46.8158 36.1986 46.8158 37.6592Z" fill="black"/>
<path d="M66.5867 37.6592H65.351C65.351 36.1981 64.8684 34.7499 63.9923 33.5809L63.621 33.0873C63.5283 32.9631 63.4851 32.8092 63.5005 32.6548L64.1183 26.4764L65.3478 26.5994L64.754 32.5374L64.9801 32.8389C66.0164 34.2216 66.5867 35.9323 66.5867 37.6592Z" fill="black"/>
</g>
<path d="M107.612 55.4771C107.612 63.6076 101.021 70.1986 92.8902 70.1986C84.7598 70.1986 78.1687 63.6076 78.1687 55.4771C78.1687 47.3466 84.7598 40.7556 92.8902 40.7556C101.021 40.7556 107.612 47.3466 107.612 55.4771Z" fill="#C4C4C4"/>
<path fillRule="evenodd" clipRule="evenodd" d="M108.76 55.4771C108.76 64.2419 101.655 71.3471 92.8903 71.3471C84.1255 71.3471 77.0203 64.2419 77.0203 55.4771C77.0203 46.7124 84.1255 39.6071 92.8903 39.6071C101.655 39.6071 108.76 46.7124 108.76 55.4771ZM92.8903 70.1987C101.021 70.1987 107.612 63.6076 107.612 55.4771C107.612 47.3466 101.021 40.7556 92.8903 40.7556C84.7598 40.7556 78.1687 47.3466 78.1687 55.4771C78.1687 63.6076 84.7598 70.1987 92.8903 70.1987Z" fill="black"/>
<mask id="mask1" mask-type="alpha" maskUnits="userSpaceOnUse" x="78" y="34" width="30" height="37">
<path fillRule="evenodd" clipRule="evenodd" d="M107.612 34.5724H78.1687V54.5938H78.1948C78.1775 54.886 78.1687 55.1805 78.1687 55.4771C78.1687 63.6076 84.7598 70.1987 92.8902 70.1987C101.021 70.1987 107.612 63.6076 107.612 55.4771C107.612 55.1805 107.603 54.886 107.586 54.5938H107.612V34.5724Z" fill="#C4C4C4"/>
</mask>
<g mask="url(#mask1)">
<path d="M96.5929 56.7621H89.1874V57.3792V59.8477V72.1901H96.5929V59.8477V56.7621Z" fill="#FEDAC6"/>
<path d="M84.2135 60.508C81.7616 60.8356 79.9307 62.9277 79.9307 65.4017V72.19H89.1875V59.8477L84.2135 60.508Z" fill="#59B3F3"/>
<path d="M105.85 65.4018C105.85 62.9278 104.019 60.8357 101.567 60.508L96.593 59.8477V72.1902H105.85V65.4018H105.85Z" fill="#59B3F3"/>
<path d="M89.1874 62.7728V72.1901H96.5929V62.7728C94.4749 64.634 91.3054 64.634 89.1874 62.7728Z" fill="#EFF3F5"/>
<path d="M96.5929 56.7621H89.1874V62.7729C91.3053 64.6335 94.4749 64.6335 96.5929 62.7729V56.7621Z" fill="#FEDAC6"/>
<path d="M91.6559 64.0256C90.7432 63.8268 89.8946 63.4023 89.1874 62.7914V72.1901H91.6559V64.0256Z" fill="white"/>
<path d="M96.5929 59.2306V56.7621H89.1874V59.2306C91.9644 60.4648 93.8158 60.4648 96.5929 59.2306Z" fill="#F5C4B0"/>
<path d="M93.0752 36.397C90.0075 36.3964 87.3002 38.4002 86.4042 41.334H99.734C98.8411 38.4033 96.1393 36.4001 93.0752 36.397Z" fill="#A15D30"/>
<path d="M86.4043 41.334C86.1043 42.3103 86.0259 43.3415 86.1759 44.3518L86.2685 45.0368V51.208C86.2685 54.957 89.3078 57.9964 93.0569 57.9964C96.8059 57.9964 99.8453 54.9571 99.8453 51.208V45.0368L99.8946 44.827C100.144 43.6687 100.088 42.4653 99.7342 41.3341C99.7341 41.334 86.4043 41.334 86.4043 41.334Z" fill="#FEDAC6"/>
<path d="M88.5704 41.334V41.9512H97.2101H99.5675C98.4462 38.27 94.5534 36.1952 90.8722 37.3166C88.6518 37.9929 86.914 39.7308 86.2377 41.9512H88.5704V41.334Z" fill="#A15D30"/>
<path d="M88.5704 41.9511H86.2376C85.9383 42.9274 85.8581 43.958 86.0031 44.9689L86.1018 45.6539C86.1019 45.6539 88.5704 44.4196 88.5704 41.9511Z" fill="#A15D30"/>
<path d="M99.5675 41.9511H97.2101C97.2101 44.4196 99.6786 45.6539 99.6786 45.6539L99.7217 45.444C99.9692 44.2857 99.9161 43.0835 99.5675 41.9511Z" fill="#A15D30"/>
<path d="M88.5703 50.9857V41.9511C88.5703 44.4196 86.1018 45.6539 86.1018 45.6539V51.825C86.1012 54.8329 88.0803 57.4828 90.9647 58.3357L89.4281 54.9477C88.8622 53.7036 88.5697 52.3527 88.5703 50.9857Z" fill="#F5C4B0"/>
<path d="M100.296 45.6539H99.6785V49.3566H100.296C101.318 49.3566 102.147 48.5278 102.147 47.5052C102.147 46.4827 101.318 45.6539 100.296 45.6539Z" fill="#FEDAC6"/>
<path d="M83.6334 47.5052C83.6334 48.5278 84.4622 49.3566 85.4848 49.3566H86.1019V45.6539H85.4848C84.4622 45.6539 83.6334 46.4827 83.6334 47.5052Z" fill="#F5C4B0"/>
<path d="M93.5067 37.0129H92.2725V41.9499H93.5067V37.0129Z" fill="#91542B"/>
<path d="M89.8354 42.1477L91.0063 41.7574L89.7721 38.0544L88.6012 38.4446L89.8354 42.1477Z" fill="#91542B"/>
<path d="M95.9103 42.2269L97.7615 38.5245L96.6576 37.9725L94.8064 41.6749L95.9103 42.2269Z" fill="#91542B"/>
<path d="M97.5926 51.0598C97.4402 51.3646 97.0693 51.4881 96.7645 51.3351C96.7003 51.303 96.6423 51.2598 96.5929 51.2079C95.7919 50.4143 94.7089 49.9706 93.5814 49.9737H92.2299C91.0729 49.9749 89.9632 50.4341 89.1443 51.2511C88.9043 51.493 88.5136 51.4949 88.2717 51.2554C88.2316 51.2159 88.197 51.1709 88.1693 51.1215L86.1019 47.3879V51.825C86.1019 55.574 89.1412 58.6134 92.8903 58.6134C96.6394 58.6134 99.6787 55.5741 99.6787 51.825V46.8881L97.5926 51.0598Z" fill="#A15D30"/>
<path fillRule="evenodd" clipRule="evenodd" d="M94.6514 52.0359C94.9454 52.0971 95.1341 52.3851 95.0728 52.6791C94.9718 53.164 94.6489 53.5334 94.2832 53.79C93.9148 54.0484 93.4621 54.2236 93.0038 54.3151C92.1299 54.4896 91.0002 54.3945 90.349 53.6647C90.1491 53.4406 90.1687 53.0969 90.3928 52.8969C90.6169 52.697 90.9607 52.7166 91.1606 52.9407C91.4304 53.2432 92.0659 53.3933 92.7909 53.2486C93.1319 53.1806 93.437 53.0552 93.6585 52.8997C93.8826 52.7425 93.9816 52.5848 94.0082 52.4573C94.0694 52.1633 94.3574 51.9746 94.6514 52.0359Z" fill="black"/>
<path d="M88.5703 51.4116C88.4018 51.3752 88.2568 51.2703 88.1692 51.1215L86.1018 47.3879V51.825C86.1043 54.4355 87.6038 56.8133 89.9588 57.9408C89.0504 56.2838 88.5728 54.4244 88.5704 52.5348V51.4116H88.5703Z" fill="#8F4F24"/>
<path d="M97.21 35.7799C96.3288 35.7805 95.5154 36.2513 95.0748 37.0141L98.8454 40.0997C99.868 39.1981 99.9655 37.638 99.0639 36.6154C98.5949 36.0835 97.9197 35.7793 97.21 35.7799Z" fill="#8F4F24"/>
<path d="M89.1867 60.4635H85.484V72.1889H89.1867V60.4635Z" fill="#1292EE"/>
<path d="M82.3991 72.1901H79.9305V63.5504L82.3991 61.0819V72.1901Z" fill="#1292EE"/>
<path d="M85.484 64.1663H82.3984V67.2518H85.484V64.1663Z" fill="#0D66A7"/>
<path d="M88.5697 64.1663H85.4841V67.2518H88.5697V64.1663Z" fill="#094977"/>
<path d="M82.3985 64.1663H79.9301V67.2518H82.3985V64.1663Z" fill="#094977"/>
<path d="M100.295 60.4635H96.5923V72.1889H100.295V60.4635Z" fill="#1292EE"/>
<path d="M103.381 72.1901H105.85V63.5504L103.381 61.0819V72.1901Z" fill="#1292EE"/>
<path d="M103.381 64.1662H100.295V67.2518H103.381V64.1662Z" fill="#0D66A7"/>
<path d="M100.295 64.1663H97.2095V67.2518H100.295V64.1663Z" fill="#094977"/>
<path d="M105.849 64.1663H103.381V67.2518H105.849V64.1663Z" fill="#094977"/>
<path d="M86.3777 46.2062L85.8254 45.1021L86.1012 45.6544L85.8235 45.1033C85.8451 45.0922 87.9526 43.9981 87.9526 41.9517H89.1868C89.1874 44.7689 86.4925 46.1487 86.3777 46.2062Z" fill="black"/>
<path d="M99.4027 46.2062C99.2879 46.1487 96.5929 44.7689 96.5929 41.9511H97.8271C97.8271 43.9975 99.9346 45.0917 99.9562 45.1028L99.4027 46.2062Z" fill="black"/>
<path d="M97.8955 41.1858H87.8849V42.658H97.8955V41.1858Z" fill="black"/>
<path d="M99.2545 40.562L98.4374 39.6375C98.588 39.5042 98.7152 39.3481 98.8158 39.1741C99.3261 38.2904 99.0225 37.1555 98.1382 36.6452C97.2538 36.1354 96.1195 36.4384 95.6092 37.3227L94.5404 36.7056C94.9526 35.9916 95.6179 35.4812 96.414 35.2677C97.2107 35.0542 98.0426 35.164 98.7553 35.5763C100.229 36.4273 100.735 38.3182 99.8847 39.7919C99.7174 40.0819 99.505 40.3411 99.2545 40.562Z" fill="black"/>
<path d="M89.1869 48.1211C89.8685 48.1211 90.4211 47.5685 90.4211 46.8869C90.4211 46.2052 89.8685 45.6526 89.1869 45.6526C88.5052 45.6526 87.9526 46.2052 87.9526 46.8869C87.9526 47.5685 88.5052 48.1211 89.1869 48.1211Z" fill="black"/>
<path d="M96.5923 48.1211C97.2739 48.1211 97.8265 47.5685 97.8265 46.8869C97.8265 46.2052 97.2739 45.6526 96.5923 45.6526C95.9106 45.6526 95.358 46.2052 95.358 46.8869C95.358 47.5685 95.9106 48.1211 96.5923 48.1211Z" fill="black"/>
<path d="M93.5073 50.5908H91.656C91.4579 50.5908 91.2715 50.4957 91.1555 50.334C91.0395 50.173 91.008 49.9662 91.0703 49.778L92.3045 46.0753L93.4752 46.4659L92.5112 49.3565H93.5067V50.5908H93.5073Z" fill="black"/>
<path d="M100.296 49.9737H99.6785V48.7395H100.296C100.976 48.7395 101.53 48.1859 101.53 47.5052C101.53 46.8245 100.976 46.271 100.296 46.271H99.6785V45.0367H100.296C101.657 45.0367 102.764 46.1438 102.764 47.5052C102.764 48.8666 101.657 49.9737 100.296 49.9737Z" fill="black"/>
<path d="M86.1018 49.9737H85.4847C84.1233 49.9737 83.0162 48.8666 83.0162 47.5052C83.0162 46.1438 84.1233 45.0367 85.4847 45.0367H86.1018V46.271H85.4847C84.804 46.271 84.2505 46.8245 84.2505 47.5052C84.2505 48.1859 84.804 48.7395 85.4847 48.7395H86.1018V49.9737Z" fill="black"/>
<path d="M88.7073 52.0522C88.5975 52.0522 88.487 52.0374 88.3778 52.0072C88.0599 51.9195 87.7952 51.7128 87.6323 51.4264L85.5656 47.8119L86.6368 47.1997L88.7042 50.8161C89.649 49.8762 90.8993 49.3585 92.2286 49.3572H93.5924C94.8878 49.3572 96.1066 49.8589 97.0261 50.7705L99.1262 46.6111L100.228 47.1671L98.1295 51.3265C98.0709 51.4431 97.9938 51.5505 97.9005 51.6437C97.6685 51.8763 97.3587 52.0053 97.0291 52.0059C97.0285 52.0059 97.0279 52.0059 97.0273 52.0059C96.6983 52.0059 96.3885 51.8782 96.1559 51.6461C95.4708 50.9673 94.5594 50.5921 93.5924 50.5921H92.2291C91.2287 50.5928 90.2876 50.9827 89.5792 51.6894C89.5027 51.7666 89.4132 51.835 89.3156 51.8912C89.1269 51.9973 88.9184 52.0522 88.7073 52.0522Z" fill="black"/>
<path d="M92.8903 59.2306C88.8068 59.2306 85.4848 55.9086 85.4848 51.8251V45.6983L85.3922 45.0571C85.3922 45.0571 85.3922 45.0564 85.3922 45.0559C85.3428 44.709 85.3175 44.3561 85.3169 44.0068C85.3064 39.8209 88.7031 36.4075 92.889 36.397C93.416 36.3946 93.972 36.4519 94.5021 36.5661C98.5911 37.4437 101.203 41.4846 100.326 45.5736L100.296 45.7168V51.8245C100.296 55.9086 96.9737 59.2306 92.8903 59.2306ZM86.6141 44.8825L86.7128 45.5657C86.7171 45.5947 86.7189 45.6243 86.7189 45.6539V51.8251C86.7189 55.2279 89.4873 57.9963 92.8901 57.9963C96.2929 57.9963 99.0614 55.2285 99.0614 51.8251V45.6539C99.0614 45.612 99.0657 45.57 99.0743 45.5286L99.1175 45.3188C99.8531 41.8907 97.666 38.5077 94.2428 37.772C93.7997 37.677 93.3326 37.6276 92.8926 37.6307C89.3873 37.6393 86.543 40.4979 86.5517 44.0025C86.5518 44.2962 86.5728 44.5919 86.6141 44.8825Z" fill="black"/>
<path d="M80.5478 72.1901H79.3135V65.4018C79.3135 62.631 81.3845 60.2642 84.132 59.8965L88.5703 59.3071V57.3793H89.8046V59.8477C89.8046 60.1569 89.5756 60.4186 89.2689 60.4593L84.2949 61.1196C82.159 61.4053 80.5477 63.2455 80.5477 65.4012L80.5478 72.1901Z" fill="black"/>
<path d="M106.467 72.1901H105.233V65.4018C105.233 63.2462 103.622 61.4053 101.485 61.1202L96.5115 60.4599C96.2048 60.4192 95.9758 60.1575 95.9758 59.8483V57.3797H97.2101V59.3076L101.648 59.8969C104.395 60.2641 106.467 62.6314 106.467 65.4023V72.1901Z" fill="black"/>
<path d="M92.8926 64.7847C92.8908 64.7847 92.8889 64.7847 92.8871 64.7847C91.3758 64.7847 89.9168 64.2348 88.7802 63.2363L89.5941 62.3094C90.5056 63.1098 91.675 63.5504 92.8871 63.5504C92.8883 63.5504 92.8902 63.5504 92.8914 63.5504C94.1047 63.5504 95.2735 63.1098 96.185 62.3094L96.9996 63.2363C95.8635 64.2349 94.4046 64.7847 92.8926 64.7847Z" fill="black"/>
<path d="M89.8039 59.8464H88.5697V72.1888H89.8039V59.8464Z" fill="black"/>
<path d="M97.2093 59.8464H95.9751V72.1888H97.2093V59.8464Z" fill="black"/>
<path d="M89.1874 67.2532H85.4847C85.2922 67.2532 85.1114 67.1631 84.9941 67.0107C84.8774 66.8576 84.8386 66.6589 84.8891 66.4738L86.7405 59.6854L87.9316 60.0094L86.2925 66.0183H89.1874V67.2532V67.2532Z" fill="black"/>
<path d="M100.296 67.2532H96.5929V66.0189H99.4872L97.8488 60.01L99.0398 59.686L100.891 66.4744C100.942 66.6596 100.904 66.8583 100.786 67.0113C100.67 67.1631 100.488 67.2532 100.296 67.2532Z" fill="black"/>
<path d="M87.0275 70.3387C86.5171 70.3387 86.1018 69.9234 86.1018 69.413C86.1018 68.9026 86.5171 68.4873 87.0275 68.4873C87.5379 68.4873 87.9532 68.9026 87.9532 69.413C87.9532 69.9234 87.5378 70.3387 87.0275 70.3387ZM87.0275 69.1045C86.8572 69.1045 86.7189 69.2434 86.7189 69.4131C86.7189 69.5828 86.8571 69.7217 87.0275 69.7217C87.1978 69.7217 87.3361 69.5828 87.3361 69.4131C87.336 69.2434 87.1978 69.1045 87.0275 69.1045Z" fill="black"/>
</g>
<path d="M31.9431 55.4771C31.9431 63.6076 25.352 70.1986 17.2215 70.1986C9.09106 70.1986 2.5 63.6076 2.5 55.4771C2.5 47.3466 9.09106 40.7556 17.2215 40.7556C25.352 40.7556 31.9431 47.3466 31.9431 55.4771Z" fill="#C4C4C4"/>
<path fillRule="evenodd" clipRule="evenodd" d="M33.0916 55.4771C33.0916 64.2419 25.9863 71.3471 17.2216 71.3471C8.45681 71.3471 1.35156 64.2419 1.35156 55.4771C1.35156 46.7124 8.45681 39.6071 17.2216 39.6071C25.9863 39.6071 33.0916 46.7124 33.0916 55.4771ZM17.2216 70.1987C25.3521 70.1987 31.9431 63.6076 31.9431 55.4771C31.9431 47.3466 25.3521 40.7556 17.2216 40.7556C9.09108 40.7556 2.50002 47.3466 2.50002 55.4771C2.50002 63.6076 9.09108 70.1987 17.2216 70.1987Z" fill="black"/>
<mask id="mask2" mask-type="alpha" maskUnits="userSpaceOnUse" x="2" y="34" width="30" height="37">
<path fillRule="evenodd" clipRule="evenodd" d="M31.9431 34.5724H2.5V54.5938H2.52607C2.50877 54.886 2.5 55.1805 2.5 55.4771C2.5 63.6076 9.09106 70.1987 17.2215 70.1987C25.352 70.1987 31.9431 63.6076 31.9431 55.4771C31.9431 55.1805 31.9343 54.886 31.917 54.5938H31.9431V34.5724Z" fill="#C4C4C4"/>
</mask>
<g mask="url(#mask2)">
<path d="M22.7853 64.2159H11.658C9.79537 63.4624 8.57383 61.6566 8.56702 59.6476V44.434C8.56702 39.6541 12.4418 35.7794 17.2216 35.7794C22.0015 35.7794 25.8762 39.6541 25.8762 44.434V59.6475C25.87 61.6566 24.6479 63.4624 22.7853 64.2159Z" fill="#361905"/>
<path d="M9.18524 67.3068H6.71252V72.2523H9.18524V67.3068Z" fill="#FEDAC6"/>
<path d="M6.71246 67.3068H4.23975V72.2523H6.71246V67.3068Z" fill="#F5C4B0"/>
<path d="M30.2036 67.3068H25.2581V72.2523H30.2036V67.3068Z" fill="#FEDAC6"/>
<path d="M30.2036 64.4014C30.2178 62.519 28.8201 60.9241 26.952 60.6923L22.6618 60.1545L21.4254 60C20.8035 59.9214 20.3386 59.3904 20.3436 58.7636V55.5613H14.1308V58.7944C14.1358 59.4213 13.6709 59.9523 13.049 60.0308L11.7818 60.1853L7.49161 60.7232C5.62343 60.955 4.22571 62.5499 4.23998 64.4323V67.3068H9.18548L9.05566 67.5665C8.32804 69.0211 7.94909 70.6258 7.94909 72.2523H26.4946C26.4953 70.6259 26.1163 69.0211 25.3881 67.5665L25.2582 67.3068H30.2037V64.4014H30.2036Z" fill="#C58AF3"/>
<path d="M20.3126 58.9861V55.5613H14.1307V58.9861C16.4489 60.1916 17.9944 60.1916 20.3126 58.9861Z" fill="#FEDAC6"/>
<path d="M8.56699 68.673C8.1466 69.8192 7.9371 71.0314 7.94883 72.2523H12.0783C10.4357 71.6379 9.14994 70.3273 8.56699 68.673Z" fill="#A34CE6"/>
<path d="M20.3126 57.4159V55.5613H14.1307V58.6523C15.6699 58.7512 17.2216 58.6523 20.3126 57.4159Z" fill="#F5C4B0"/>
<path d="M6.71246 60.9086C5.23193 61.4322 4.24156 62.8312 4.23975 64.4013V67.3068H6.71246V60.9086Z" fill="#A34CE6"/>
<path d="M22.7853 64.2159V44.434C21.6015 44.1175 20.5308 43.4752 19.6943 42.5794C18.7868 41.6187 17.9597 40.5845 17.2216 39.4885C16.4835 40.5845 15.6564 41.6187 14.7489 42.5794C13.7882 43.4869 12.754 44.3141 11.658 45.0521V64.2158C9.79537 63.4623 8.57383 61.6566 8.56702 59.6475V44.434C8.56702 39.6541 12.4418 35.7794 17.2216 35.7794C22.0015 35.7794 25.8762 39.6541 25.8762 44.434V59.6475C25.87 61.6566 24.6479 63.4624 22.7853 64.2159Z" fill="#914513"/>
<path d="M14.7922 36.1317C11.1041 37.2105 8.5689 40.5914 8.56702 44.434V59.6475C8.57383 61.6566 9.79537 63.4623 11.658 64.2159V45.0522C12.5729 44.4315 13.4483 43.754 14.279 43.0245C14.0998 40.7144 14.2729 38.39 14.7922 36.1317Z" fill="#77370D"/>
<path d="M22.7854 53.6079C22.1146 54.6155 21.1917 55.4297 20.1086 55.9693L18.8722 56.5875L20.0406 56.0002L18.8722 56.5875C17.8294 57.108 16.6017 57.108 15.5588 56.5875L14.3224 55.9693C13.3326 55.3431 12.4363 54.5815 11.658 53.7068V45.0522C12.754 44.314 13.7882 43.4869 14.7489 42.5794C15.6564 41.6188 16.4836 40.5846 17.2216 39.4885C17.9598 40.5846 18.7868 41.6188 19.6943 42.5794C20.5308 43.4752 21.6014 44.1175 22.7853 44.434V53.6079H22.7854Z" fill="#FEDAC6"/>
<path d="M14.1307 43.1544C13.3444 43.835 12.5184 44.4686 11.658 45.0522V53.7068C12.44 54.5828 13.3407 55.3444 14.3347 55.9693L15.2496 56.433C14.5566 54.3559 14.1788 52.1867 14.1307 49.9977V43.1544V43.1544Z" fill="#F5C4B0"/>
<path fillRule="evenodd" clipRule="evenodd" d="M18.816 51.9919C19.0547 52.08 19.1767 52.345 19.0885 52.5836C18.9431 52.9772 18.6263 53.2463 18.2877 53.4154C17.9467 53.5858 17.5455 53.6759 17.1499 53.6952C16.3959 53.7318 15.4612 53.5107 15.0071 52.8176C14.8677 52.6048 14.9272 52.3193 15.14 52.1798C15.3528 52.0404 15.6383 52.0999 15.7778 52.3127C15.966 52.5999 16.4796 52.8053 17.1052 52.7749C17.3994 52.7606 17.6708 52.6937 17.8759 52.5913C18.0833 52.4876 18.186 52.3679 18.2242 52.2644C18.3124 52.0257 18.5773 51.9037 18.816 51.9919Z" fill="black"/>
<path d="M20.9307 48.1431C21.6136 48.1431 22.1671 47.5896 22.1671 46.9067C22.1671 46.2239 21.6136 45.6703 20.9307 45.6703C20.2479 45.6703 19.6943 46.2239 19.6943 46.9067C19.6943 47.5896 20.2479 48.1431 20.9307 48.1431Z" fill="black"/>
<path d="M16.1664 51.0529L14.9301 49.8166C14.6883 49.5748 14.6883 49.1841 14.9301 48.9424L16.1665 47.7061L17.0406 48.5802L16.2412 49.3795L17.0406 50.1788L16.1664 51.0529Z" fill="black"/>
<path d="M11.7346 60.811L11.5819 59.5845L12.9728 59.4114C13.2832 59.3725 13.5156 59.1067 13.5131 58.7933V56.1796H14.7495V58.7884C14.7569 59.7243 14.0596 60.5217 13.1261 60.638L11.7346 60.811Z" fill="black"/>
<path d="M4.85791 72.2523H3.62159V64.4014C3.60492 62.2099 5.2357 60.3498 7.41538 60.079L8.46198 59.8979L8.67213 61.1163L7.59649 61.3018C6.01085 61.4996 4.84617 62.8287 4.85791 64.397V72.2523V72.2523Z" fill="black"/>
<path d="M30.8217 72.2523H29.5853V64.4261C29.5977 62.8528 28.4324 61.5244 26.8758 61.3302L25.7574 61.1133L25.9942 59.8997L27.0698 60.1099C29.2075 60.3745 30.8383 62.2353 30.821 64.4304V72.2523H30.8217Z" fill="black"/>
<path d="M22.7117 60.8116L21.3208 60.6447C20.3849 60.5266 19.6869 59.7291 19.6944 58.7895V56.1795H20.9308V58.7944C20.9283 59.1128 21.1607 59.3779 21.4717 59.4176L22.8589 59.5838L22.7117 60.8116Z" fill="black"/>
<path d="M13.5125 48.1431C14.1954 48.1431 14.7489 47.5896 14.7489 46.9067C14.7489 46.2239 14.1954 45.6703 13.5125 45.6703C12.8297 45.6703 12.2761 46.2239 12.2761 46.9067C12.2761 47.5896 12.8297 48.1431 13.5125 48.1431Z" fill="black"/>
<path d="M22.2048 54.9431H22.1671V53.7068L22.2048 54.9431Z" fill="black"/>
<path d="M11.658 64.8341C11.5794 64.8341 11.501 64.8193 11.4261 64.789C9.32122 63.9378 7.95624 61.9206 7.94885 59.65V44.434C7.94885 39.321 12.1086 35.1612 17.2216 35.1612C22.3346 35.1612 26.4944 39.321 26.4944 44.434V59.6475C26.487 61.9206 25.122 63.9371 23.0171 64.7883C22.8261 64.865 22.6103 64.8433 22.4397 64.7278C22.2691 64.614 22.1671 64.4211 22.1671 64.2159V44.8921C21.0532 44.5131 20.0492 43.8652 19.2425 43.0011C18.5205 42.2364 17.843 41.4191 17.2217 40.566C16.6004 41.4203 15.9216 42.2376 15.1984 43.0035C14.273 43.8789 13.2974 44.6702 12.2762 45.378V64.2159C12.2762 64.4212 12.1742 64.614 12.0036 64.7284C11.9003 64.7982 11.7791 64.8341 11.658 64.8341ZM17.2216 38.8703C17.4275 38.8703 17.6197 38.973 17.7347 39.1429C18.4512 40.2068 19.2616 41.22 20.1444 42.1547C20.9042 42.9688 21.8723 43.55 22.9448 43.8362C23.215 43.9091 23.4035 44.1539 23.4035 44.434V63.1842C24.549 62.3911 25.2532 61.0836 25.2581 59.6457V44.434C25.2581 40.0028 21.6529 36.3976 17.2217 36.3976C12.7905 36.3976 9.18525 40.0028 9.18525 44.434V59.6475C9.19017 61.0836 9.89432 62.391 11.0398 63.1841V45.0522C11.0398 44.8463 11.1425 44.6541 11.3124 44.539C12.3775 43.8219 13.3907 43.0109 14.3242 42.13C15.1804 41.2219 15.9914 40.2087 16.7085 39.1429C16.8235 38.973 17.0157 38.8703 17.2216 38.8703Z" fill="black"/>
<path d="M17.2149 57.5933C16.551 57.5933 15.8877 57.4425 15.2831 57.1408L14.0461 56.5227C14.0276 56.5134 14.0097 56.5035 13.9924 56.4917C12.9545 55.8352 12.0136 55.0365 11.1969 54.1179L12.1205 53.2963C12.8543 54.1209 13.6975 54.8393 14.6278 55.4309L15.8364 56.0355C16.7 56.4664 17.733 56.4658 18.5966 56.0355L19.7643 55.4489C19.7822 55.4396 19.8007 55.4322 19.8187 55.4248L19.8329 55.4174C20.8195 54.9259 21.6621 54.1822 22.271 53.2668L23.3009 53.9511C22.5715 55.0471 21.5632 55.9367 20.3849 56.524L19.1492 57.1415C19.1479 57.1422 19.1467 57.1428 19.1455 57.1434C18.5403 57.4431 17.8776 57.5933 17.2149 57.5933Z" fill="black"/>
<path d="M7.33069 72.2523C7.33069 70.5387 7.73558 68.8226 8.50275 67.2902L8.56701 67.161V65.4523H9.8034V67.3069C9.8034 67.4027 9.78116 67.4979 9.73849 67.5832L9.60868 67.8428C8.92684 69.2047 8.56701 70.7298 8.56701 72.2523H7.33069Z" fill="black"/>
<path d="M27.1126 72.2523H25.8762C25.8768 70.7297 25.517 69.2053 24.8345 67.8428L24.7047 67.5832C24.662 67.4978 24.6398 67.4027 24.6398 67.3069V65.4523H25.8762V67.161L25.9404 67.2902C26.7083 68.8233 27.1132 70.5393 27.1126 72.2523Z" fill="black"/>
<path d="M17.2216 60.4407C16.0001 60.4407 14.7786 60.0568 13.7585 59.289L14.5023 58.3012C16.1033 59.5073 18.3393 59.5073 19.9404 58.3012L20.6841 59.289C19.6653 60.0562 18.4438 60.4407 17.2216 60.4407Z" fill="black"/>
<path d="M9.18525 66.6887H4.23975V67.9251H9.18525V66.6887Z" fill="black"/>
<path d="M30.2036 66.6887H25.2581V67.9251H30.2036V66.6887Z" fill="black"/>
</g>
<path d="M50.5587 65.3375C50.8094 65.3375 51.0359 65.1889 51.1353 64.9589C51.2348 64.729 51.1882 64.4619 51.0166 64.2794C48.841 61.9799 48.7228 58.4188 50.7415 55.9801C50.8907 55.808 50.935 55.5685 50.8574 55.3544C50.7795 55.1402 50.5918 54.985 50.3667 54.9488C50.1417 54.9126 49.9149 55.0011 49.7737 55.1802C47.3523 58.1063 47.4926 62.3789 50.1011 65.1397C50.2198 65.2659 50.3854 65.3375 50.5587 65.3375Z" fill="black"/>
<path d="M61.4429 63.6741C61.5909 63.75 61.7634 63.764 61.9218 63.7129C62.0805 63.6617 62.2121 63.5499 62.288 63.4016C63.6608 60.7284 63.3078 57.4941 61.3906 55.1802C61.2498 55.0011 61.0227 54.9126 60.7976 54.9488C60.5728 54.985 60.3851 55.1402 60.3072 55.3544C60.2293 55.5685 60.2736 55.808 60.4231 55.9801C62.0207 57.9077 62.3147 60.6022 61.171 62.829C61.0126 63.1374 61.1345 63.5157 61.4429 63.6741Z" fill="black"/>
<path d="M73.0332 81.3065C73.0211 86.3525 69.5445 93.5359 69.5076 93.6092C69.4955 93.6339 69.4861 93.6586 69.4772 93.6862C69.382 94.017 69.0755 94.2471 68.732 94.2438L56.5609 94.1398C56.2113 94.1337 55.908 93.8882 55.8249 93.5452L55.733 93.1495C55.2794 91.1965 54.1389 89.4582 52.4374 88.1156C52.0725 87.8272 51.7598 87.4837 51.5055 87.0945C50.1442 84.9945 49.3929 83.1489 48.6695 81.3648C47.9859 79.6755 47.3391 78.0813 46.2382 76.4349C46.1006 76.2263 45.9503 75.7359 45.9503 75.1469C45.9503 74.6812 46.0576 73.5621 47.0479 73.2126C48.9915 72.5229 50.1811 73.7521 51.3706 75.8124C52.563 77.8755 52.6367 78.4183 52.64 78.4397C52.6488 78.6913 52.8541 78.8812 53.1056 78.8784C53.3572 78.8751 53.5565 78.6637 53.5593 78.4122L53.5961 60.9155C53.5961 60.278 53.9825 58.466 55.6961 58.466C57.7135 58.466 58.3911 60.223 58.3911 61.0228C58.3911 61.0228 58.379 67.026 58.379 67.0288C58.379 67.173 58.4462 67.3112 58.5629 67.397C58.6795 67.4829 58.8294 67.5104 58.9708 67.4675C60.8286 66.9094 61.9476 67.6481 62.5608 68.3686C63.0205 68.9114 63.79 69.1228 64.4708 68.902C65.0593 68.7088 65.7243 68.7672 66.442 69.0738C67.0212 69.322 67.4505 69.7607 67.7114 70.0887C67.9839 70.4317 68.7105 71.2045 69.5477 70.9745C70.2038 70.7939 71.798 70.9315 72.5488 72.5014C72.8741 73.179 73.0365 75.9445 73.0365 80.7175L73.0332 81.3065V81.3065Z" fill="url(#paint0_linear)"/>
<path d="M46.4198 75.1411C46.4198 74.6842 46.5239 73.8839 47.2108 73.6389C48.4339 73.2035 49.4919 73.4551 50.982 76.0334C51.9844 77.7717 52.1654 78.3784 52.1897 78.4857C52.2266 78.9458 52.6004 79.3136 53.0698 79.3322C53.5631 79.3504 53.9864 78.9762 54.0232 78.4829C54.026 78.4582 54.026 78.4339 54.026 78.4092V78.3998L54.0629 60.9097C54.0629 60.891 54.1333 58.9198 55.7032 58.9198C57.5395 58.9198 57.9381 60.5998 57.9381 61.0137L57.926 67.0197V67.023C57.926 67.3142 58.0636 67.5867 58.2969 67.7617C58.5298 67.9363 58.8332 67.9885 59.1122 67.9059C60.4124 67.5163 61.4577 67.7711 62.2212 68.6661C62.8096 69.3591 63.7542 69.6228 64.6245 69.3377C65.1061 69.1813 65.6577 69.2331 66.2709 69.494C66.7613 69.7021 67.1324 70.0857 67.3592 70.3709C68.0582 71.2477 68.9015 71.6276 69.6771 71.4162C70.189 71.2753 71.5227 71.4041 72.142 72.6977C72.3077 73.0439 72.5867 74.5494 72.5867 80.721V81.3062C72.5713 86.2361 69.1404 93.3336 69.1068 93.4041C69.0821 93.4531 69.0639 93.5053 69.0485 93.5571C69.0116 93.6892 68.8893 93.7811 68.7479 93.7811L56.5801 93.6738C56.4392 93.6705 56.3164 93.5758 56.2856 93.4377L56.1937 93.0424C55.7154 90.9882 54.5198 89.1579 52.7324 87.7537C52.4076 87.4961 52.1285 87.1928 51.9017 86.8432C50.5619 84.7801 49.8228 82.9559 49.1055 81.19C48.4125 79.4792 47.7564 77.8636 46.6312 76.1771C46.564 76.073 46.4198 75.6838 46.4198 75.1411V75.1411ZM45.5 75.1411C45.5 75.7786 45.6596 76.3736 45.8649 76.683C48.0909 80.0187 48.4493 83.2135 51.1289 87.3398C51.4388 87.8153 51.7972 88.183 52.1621 88.471C53.704 89.6852 54.8506 91.3344 55.2953 93.2477L55.3873 93.643C55.5161 94.1951 56.0037 94.5875 56.5707 94.5936L68.7391 94.7009C69.2939 94.707 69.7811 94.3421 69.9314 93.8087C69.9314 93.8087 73.4911 86.5152 73.5 81.3062V80.7178C73.5 77.2901 73.4296 73.2679 72.9666 72.2959C72.142 70.5701 70.3425 70.2724 69.4288 70.5239C68.9323 70.6588 68.3956 70.1991 68.0736 69.7945C67.7516 69.3895 67.2705 68.9205 66.6265 68.6447C65.6395 68.2214 64.8639 68.2858 64.3333 68.4575C63.8274 68.6232 63.2632 68.4697 62.9169 68.0651C62.258 67.2927 60.9793 66.379 58.8457 67.023L58.8579 61.017C58.8579 60.0449 58.0547 58 55.7032 58C53.7595 58 53.1431 59.9437 53.1431 60.9097L53.1095 78.4031V78.4064V78.4092V78.3998C53.1062 78.3266 53.0451 77.7591 51.7818 75.5704C50.2675 72.9459 48.8325 72.0845 46.9075 72.7681C45.8495 73.1485 45.5 74.1938 45.5 75.1411V75.1411Z" fill="black"/>
<path d="M58.0594 73.1967L57.9185 66.7095L58.6698 67.2308C58.8503 67.2308 58.9885 67.4669 58.967 67.7367L58.7309 73.206C58.6879 73.7487 58.0869 73.7427 58.0594 73.1967V73.1967Z" fill="black"/>
<path d="M53.144 80.8682L52.2825 78.7313L51.9941 77.9744L53.0119 78.2408L54.0022 78.5292L53.9746 80.8224C53.9779 81.2452 53.3157 81.2023 53.144 80.8682V80.8682Z" fill="black"/>
<path d="M63.3392 73.3164L63.1031 69.3096C63.0877 69.1285 63.8754 69.2326 63.8754 69.2326C64.0565 69.2326 64.1946 69.3955 64.1731 69.5793L63.937 73.3285C63.8969 73.6995 63.3696 73.6902 63.3392 73.3164V73.3164Z" fill="black"/>
<path d="M68.4088 73.2432L68.1727 71.0849C68.1573 70.9869 68.9455 71.0452 68.9455 71.0452C69.1261 71.0452 69.2642 71.1306 69.2428 71.2319L69.0066 73.2493C68.9637 73.4485 68.4364 73.4425 68.4088 73.2432V73.2432Z" fill="black"/>
<defs>
<linearGradient id="paint0_linear" x1="59.5466" y1="58.4921" x2="59.4717" y2="94.2393" gradientUnits="userSpaceOnUse">
<stop stop-color="#FFB300"/>
<stop offset="0.13" stop-color="#FFB300"/>
<stop offset="0.65" stop-color="#FFCA28"/>
<stop offset="1" stop-color="#FFCA28"/>
</linearGradient>
</defs>
</svg>
