<svg width="92" height="58" viewBox="0 0 92 58" fill="none" xmlns="http://www.w3.org/2000/svg">
<path d="M41.8888 24.7836C42.6899 23.3219 43.2219 21.8283 43.5767 20.4862H45.3598C45.9372 20.4862 46.4098 20.0136 46.4098 19.4362V18.898C46.4098 21.4907 47.8681 23.7592 50.0051 24.9239V27.0033C50.0051 27.4303 49.8586 27.8327 49.6079 28.1588L49.3387 27.8757C49.2001 27.7298 48.9703 27.7219 48.8216 27.8575L48.4319 28.2135C44.96 27.6577 43.0348 26.5953 42.146 25.9529C41.7759 25.685 41.6693 25.1841 41.8888 24.7836V24.7836Z" fill="#754E34"/>
<path d="M57.7109 27.8573C57.5623 27.7217 57.3325 27.7298 57.1939 27.8755L56.9246 28.1586C56.6739 27.8325 56.5274 27.4303 56.5274 27.0031V24.9237C58.6642 23.759 60.1227 21.4905 60.1227 18.8978V19.436C60.1227 20.0134 60.5952 20.486 61.1728 20.486H62.9558C63.3106 21.8281 63.8426 23.3217 64.6437 24.7834C64.8633 25.1839 64.7567 25.6848 64.3865 25.9525C63.4979 26.5951 61.5728 27.6573 58.1006 28.2131L57.7109 27.8573Z" fill="#754E34"/>
<path d="M46.8317 12.8364C47.5254 12.6757 48.368 12.2738 49.3335 11.3965C49.5244 11.2229 49.819 11.2372 49.987 11.4332C51.0313 12.652 54.7342 16.35 60.123 14.8149V18.8982C60.123 22.371 57.5059 25.2601 54.1469 25.6958C54.1858 25.2027 53.8545 24.7477 53.3574 24.6505L52.379 24.459C51.8439 24.3544 51.3254 24.703 51.2208 25.2382C51.208 25.3042 51.2021 25.3699 51.2025 25.4347C48.4319 24.5534 46.4098 21.9509 46.4098 18.8982V13.3588C46.4098 13.1069 46.5863 12.8933 46.8317 12.8364V12.8364Z" fill="#F1B186"/>
<path d="M46.8317 12.8364C47.5254 12.6757 48.368 12.2738 49.3335 11.3965C49.5244 11.2229 49.819 11.2372 49.987 11.4332C51.0313 12.652 54.7342 16.35 60.123 14.8149V18.8982C60.123 22.371 57.5059 25.2601 54.1469 25.6958C54.1858 25.2027 53.8545 24.7477 53.3574 24.6505L52.379 24.459C51.8439 24.3544 51.3254 24.703 51.2208 25.2382C51.208 25.3042 51.2021 25.3699 51.2025 25.4347C48.4319 24.5534 46.4098 21.9509 46.4098 18.8982V13.3588C46.4098 13.1069 46.5863 12.8933 46.8317 12.8364Z" fill="#F1B186"/>
<path d="M60 20C60 20 60 23 56 25C57.7143 23 58.2857 17.6667 57.7143 15C57.7143 15 59.8095 15.1667 60 15V20Z" fill="#C08A66"/>
<path fillRule="evenodd" clipRule="evenodd" d="M50.8081 21.4181C50.9498 21.2991 51.1611 21.3175 51.2802 21.4592C51.3617 21.5563 51.5571 21.6781 51.8762 21.7817C52.183 21.8814 52.5616 21.9504 52.9576 21.9734C53.3537 21.9964 53.7554 21.9728 54.1096 21.8948C54.4672 21.8161 54.7527 21.6873 54.9412 21.5183C55.079 21.3948 55.2908 21.4064 55.4143 21.5442C55.5379 21.682 55.5263 21.8939 55.3885 22.0174C55.0835 22.2908 54.6759 22.4564 54.2537 22.5493C53.8281 22.643 53.3632 22.6683 52.9187 22.6424C52.4742 22.6166 52.0382 22.5389 51.6692 22.4191C51.3125 22.3033 50.9709 22.133 50.767 21.8902C50.648 21.7485 50.6664 21.5371 50.8081 21.4181Z" fill="black"/>
<path d="M53.1911 20.4151L51.9059 19.9111C51.7795 19.8612 51.6797 19.7448 51.6364 19.5966C51.5932 19.4479 51.6112 19.2841 51.6853 19.1535L52.5421 17.6415L53.2549 18.2004L52.7092 19.1636L53.4623 19.459L53.1911 20.4151Z" fill="black"/>
<path d="M61.173 11.6026H63.0212C63.5987 11.6026 64.0713 12.0752 64.0713 12.6526V19.4362C64.0713 20.0136 63.5989 20.4862 63.0212 20.4862H61.173C60.5956 20.4862 60.123 20.0136 60.123 19.4362V12.6526C60.123 12.0752 60.5954 11.6026 61.173 11.6026V11.6026Z" fill="#F1B186"/>
<path d="M64.0715 13.3793H64.1617C65.1701 13.3793 65.9951 14.2043 65.9951 15.2127V16.6787C65.9951 17.6871 65.1701 18.5121 64.1617 18.5121H64.0715V13.3793Z" fill="#F1B186"/>
<path d="M43.5114 11.6026H45.3596C45.9371 11.6026 46.4097 12.0752 46.4097 12.6526V19.4362C46.4097 20.0136 45.9373 20.4862 45.3596 20.4862H43.5114C42.934 20.4862 42.4614 20.0136 42.4614 19.4362V12.6526C42.4614 12.0752 42.934 11.6026 43.5114 11.6026V11.6026Z" fill="#F1B186"/>
<path d="M42.4614 13.3793H42.3712C41.3628 13.3793 40.5378 14.2043 40.5378 15.2127V16.6787C40.5378 17.6871 41.3628 18.5121 42.3712 18.5121H42.4614V13.3793Z" fill="#6598FC"/>
<path d="M45.6554 11.6504C45.561 11.6223 45.4631 11.6026 45.3598 11.6026H43.865V11.0018C43.865 5.7589 48.1303 1.49355 53.3733 1.49355C58.6162 1.49355 62.8816 5.7589 62.8816 11.0018V11.6026H61.173C61.1449 11.6026 61.1185 11.6087 61.091 11.6109V11.0018C61.091 6.74617 57.6288 3.2839 53.3731 3.2839C49.1174 3.2839 45.6552 6.74617 45.6552 11.0018V11.6504H45.6554Z" fill="#DAE6F1"/>
<path d="M61.173 11.6026H63.0212C63.5987 11.6026 64.0713 12.0752 64.0713 12.6526V19.4362C64.0713 20.0136 63.5989 20.4862 63.0212 20.4862H61.173C60.5956 20.4862 60.123 20.0136 60.123 19.4362V12.6526C60.123 12.0752 60.5954 11.6026 61.173 11.6026V11.6026Z" fill="#6598FC"/>
<path d="M64.0715 13.3793H64.1617C65.1701 13.3793 65.9951 14.2043 65.9951 15.2127V16.6787C65.9951 17.6871 65.1701 18.5121 64.1617 18.5121H64.0715V13.3793Z" fill="#6598FC"/>
<path d="M43.5114 11.6026H45.3596C45.9371 11.6026 46.4097 12.0752 46.4097 12.6526V19.4362C46.4097 20.0136 45.9373 20.4862 45.3596 20.4862H43.5114C42.934 20.4862 42.4614 20.0136 42.4614 19.4362V12.6526C42.4614 12.0752 42.934 11.6026 43.5114 11.6026V11.6026Z" fill="#6598FC"/>
<path d="M53.3729 3.28387C57.6286 3.28387 61.0908 6.74614 61.0908 11.0018V11.6108C60.5519 11.6537 60.1227 12.103 60.1227 12.6526V14.8149C54.7337 16.35 51.0307 12.652 49.9866 11.4332C49.8188 11.2371 49.5243 11.2229 49.3332 11.3964C48.3674 12.274 47.525 12.6757 46.8313 12.8364C46.5859 12.8932 46.4097 13.1069 46.4097 13.3588V12.6526C46.4097 12.1782 46.0889 11.7794 45.6551 11.6503V11.0018C45.6549 6.74614 49.1172 3.28387 53.3729 3.28387V3.28387Z" fill="#754E34"/>
<path d="M47.2161 29.3236L48.8218 27.8574C48.9705 27.7217 49.2003 27.7298 49.3389 27.8755L52.4357 31.1311C52.5877 31.291 52.5897 31.5413 52.4401 31.7034L50.8298 33.448C50.645 33.6481 50.3259 33.6394 50.1524 33.4294L47.1805 29.8319C47.0548 29.6801 47.0706 29.4564 47.2161 29.3236V29.3236Z" fill="#B9DCFC"/>
<path d="M59.3166 29.3236L57.7108 27.8574C57.5622 27.7217 57.3324 27.7298 57.1938 27.8755L54.0969 31.1311C53.9449 31.291 53.9429 31.5413 54.0926 31.7034L55.7029 33.448C55.8877 33.6481 56.2067 33.6394 56.3802 33.4294L59.3523 29.8319C59.4779 29.6801 59.4621 29.4564 59.3166 29.3236V29.3236Z" fill="#B9DCFC"/>
<path d="M39.037 33.7924C39.1055 32.5639 39.9647 31.5228 41.1578 31.2223L46.0603 29.9847C46.4168 29.8949 46.7634 29.7707 47.0973 29.6173C47.1016 29.6933 47.1279 29.7687 47.18 29.8317L50.1519 33.4294C50.3254 33.6394 50.6444 33.6483 50.8292 33.4479L52.4395 31.7034C52.5319 31.6031 52.5663 31.4693 52.5434 31.3439H53.989C53.9661 31.4693 54.0003 31.6031 54.0929 31.7034L55.7032 33.4479C55.888 33.6481 56.207 33.6394 56.3805 33.4294L59.3524 29.8319C59.4045 29.7689 59.4308 29.6935 59.4351 29.6175C59.7689 29.7709 60.1156 29.8953 60.4721 29.9849L65.3745 31.2225C66.5677 31.5228 67.4269 32.5641 67.4954 33.7926L68.0371 48.6813C68.0622 49.1292 67.7054 49.5063 67.2567 49.5063H62.9155C62.6238 49.5063 62.3871 49.2698 62.3871 48.9778V39.6711L61.6205 42.1267C61.1193 43.7323 60.8644 45.4046 60.8644 47.0866V48.9778C60.8644 49.2696 60.6279 49.5063 60.3359 49.5063H54.3454H52.1864H46.1959C45.9041 49.5063 45.6674 49.2698 45.6674 48.9778V47.0866C45.6674 45.4046 45.4125 43.7323 44.9113 42.1267L44.1447 39.6711V48.9778C44.1447 49.2696 43.9082 49.5063 43.6163 49.5063H39.2751C38.8264 49.5063 38.4698 49.1292 38.4947 48.6813L39.037 33.7924Z" fill="#389FFE"/>
<path d="M53.9892 31.3441H52.5435C52.5293 31.2665 52.4936 31.1923 52.4356 31.1313L49.6092 28.16C49.8593 27.8333 50.005 27.4303 50.005 27.0031V24.9238C50.384 25.1304 50.785 25.301 51.2025 25.4337C51.2049 25.894 51.5306 26.3043 51.9999 26.3961L52.9782 26.5876C53.5294 26.6956 54.0966 26.3195 54.1467 25.6976C54.9982 25.5873 55.8023 25.3194 56.5278 24.924V27.0033C56.5278 27.4303 56.6735 27.8335 56.9236 28.1602L54.0972 31.1315C54.0392 31.1923 54.0034 31.2665 53.9892 31.3441V31.3441Z" fill="#F1B186"/>
<path d="M50.005 24.9238V27.0031C52.4091 28.6056 55.3553 27.671 56.5278 27.0033V24.924C55.8023 25.3194 54.9983 25.5873 54.1468 25.6976C54.0967 26.3195 53.5295 26.6956 52.9783 26.5876L51.9999 26.3961C51.5307 26.3043 51.2049 25.894 51.2026 25.4337C50.785 25.301 50.3841 25.1304 50.005 24.9238Z" fill="#C08A66"/>
<path d="M51.8515 38.5175V32.3408L52.4397 31.7035C52.5321 31.6033 52.5665 31.4694 52.5436 31.3441H53.9893C53.9664 31.4694 54.0005 31.6033 54.0931 31.7035L54.6814 32.3408V38.5175C54.6814 38.8079 54.4461 39.0432 54.1557 39.0432H52.3776C52.087 39.0432 51.8515 38.8079 51.8515 38.5175V38.5175Z" fill="#B9DCFC"/>
<path d="M44.145 48.9778C44.145 49.2696 43.9085 49.5063 43.6165 49.5063H39.2754C38.8267 49.5063 38.4701 49.1292 38.495 48.6813L38.6806 43.5838H44.145V48.9778Z" fill="#F1B186"/>
<path d="M67.2569 49.5063H62.9158C62.624 49.5063 62.3873 49.2698 62.3873 48.9778V43.5838H67.8518L68.0373 48.6813C68.0624 49.1292 67.7057 49.5063 67.2569 49.5063V49.5063Z" fill="#F1B186"/>
<path d="M67.7234 50H66.187C66.0838 50 66 49.7604 66 49.4646V44H67.9339L67.9996 49.1642C68.0084 49.618 67.8822 50 67.7234 50V50Z" fill="#C08A66"/>
<path d="M54.1365 25.8086C54.2411 25.2736 53.8925 24.7551 53.3575 24.6503L52.3791 24.4588C51.8439 24.3542 51.3255 24.7028 51.2209 25.238C51.1162 25.773 51.4649 26.2914 51.9999 26.3963L52.9782 26.5877C53.5152 26.6928 54.032 26.3416 54.1365 25.8086V25.8086Z" fill="#818182"/>
<path d="M48.3295 28.6902C48.567 28.6902 48.7762 28.5185 48.8159 28.2766C48.8601 28.0078 48.6779 27.7539 48.4088 27.7097C45.0413 27.1561 43.2206 26.1207 42.435 25.5527C42.2696 25.4331 42.2209 25.2045 42.3213 25.0209C43.0354 23.7179 43.611 22.2624 44.0319 20.6941C44.1026 20.431 43.9465 20.1601 43.6831 20.0894C43.42 20.0192 43.1491 20.1749 43.0784 20.4383C42.6779 21.9303 42.132 23.3124 41.4557 24.5463C41.1165 25.1654 41.2887 25.9418 41.8566 26.3524C42.7126 26.9713 44.6814 28.097 48.2487 28.6835C48.276 28.688 48.3028 28.6902 48.3295 28.6902V28.6902Z" fill="black"/>
<path d="M58.1811 28.6938C58.2076 28.6938 58.2344 28.6916 58.2613 28.6873C61.842 28.1021 63.8171 26.9733 64.6759 26.3526C65.2436 25.942 65.4162 25.1654 65.0766 24.5465C64.4019 23.3152 63.8566 21.9361 63.4562 20.4472C63.3854 20.184 63.1149 20.0278 62.8516 20.0987C62.5884 20.1694 62.4322 20.4402 62.5031 20.7034C62.9238 22.2681 63.4985 23.7207 64.211 25.0209C64.3116 25.2045 64.2629 25.4331 64.0974 25.5527C63.3094 26.1224 61.4825 27.1606 58.1019 27.713C57.8331 27.757 57.6505 28.0107 57.6945 28.2798C57.7342 28.5218 57.9436 28.6938 58.1811 28.6938V28.6938Z" fill="black"/>
<path fillRule="evenodd" clipRule="evenodd" d="M62.8646 20.147C63.1012 20.0833 63.3443 20.2236 63.408 20.4602C63.8093 21.9525 64.356 23.3354 65.0328 24.5705L65.0328 24.5705C65.3604 25.1675 65.1937 25.9164 64.6466 26.3121C63.7943 26.9281 61.8265 28.054 58.2533 28.6379C58.2291 28.6418 58.2049 28.6438 58.1812 28.6438C57.9678 28.6438 57.7795 28.4892 57.7439 28.2717C57.7043 28.0299 57.8684 27.8019 58.1101 27.7624C61.4979 27.2088 63.3321 26.1677 64.1268 25.5932L64.1268 25.5932C64.3135 25.4582 64.3672 25.2016 64.2548 24.9968L64.211 25.0209L64.2549 24.9968C64.2549 24.9968 64.2548 24.9968 64.2548 24.9968C63.5445 23.7004 62.9712 22.2516 62.5515 20.6904L62.5514 20.6904C62.4878 20.4539 62.6281 20.2105 62.8646 20.147L62.8646 20.147ZM62.8386 20.0504C63.1287 19.9724 63.4265 20.1444 63.5046 20.4341L63.5046 20.4342C63.904 21.9196 64.4478 23.295 65.1205 24.5224C65.4721 25.1632 65.2936 25.9676 64.7052 26.3931L64.7052 26.3931C63.84 27.0185 61.8576 28.1502 58.2694 28.7366L58.2693 28.7366C58.2399 28.7414 58.2103 28.7438 58.1812 28.7438C57.9196 28.7438 57.6889 28.5545 57.6452 28.2879L57.6452 28.2879C57.5967 27.9915 57.7978 27.7121 58.0939 27.6637L58.0939 27.6637C61.4672 27.1125 63.2867 26.0771 64.0682 25.5122C64.2124 25.4079 64.2562 25.2073 64.1672 25.0449L64.1672 25.0449C63.4526 23.7409 62.8765 22.2846 62.4549 20.7164" fill="black"/>
<path d="M50.4574 18.1038C49.8191 18.1038 49.3017 17.5864 49.3017 16.9481C49.3017 16.3099 49.8191 15.7924 50.4574 15.7924C51.0956 15.7924 51.613 16.3099 51.613 16.9481C51.613 17.5864 51.0956 18.1038 50.4574 18.1038Z" fill="black"/>
<path d="M55.5423 18.1038C54.9041 18.1038 54.3867 17.5864 54.3867 16.9481C54.3867 16.3099 54.9041 15.7924 55.5423 15.7924C56.1806 15.7924 56.698 16.3099 56.698 16.9481C56.698 17.5864 56.1806 18.1038 55.5423 18.1038Z" fill="black"/>
<path d="M54.2936 26.1686C54.3183 26.1686 54.3432 26.1667 54.3685 26.1629C57.9304 25.6212 60.6165 22.4981 60.6165 18.898V14.8147C60.6165 14.6599 60.5438 14.514 60.4202 14.4209C60.2966 14.3275 60.1363 14.2977 59.9877 14.3401C54.8707 15.798 51.3261 12.2379 50.3615 11.112C50.1939 10.9164 49.9602 10.7999 49.7035 10.7837C49.4483 10.7677 49.192 10.8579 49.0015 11.0311C48.2214 11.7398 47.4538 12.1855 46.72 12.3555C46.2468 12.4653 45.9161 12.8777 45.9161 13.3588V18.8982C45.9161 22.0346 47.9162 24.829 50.8928 25.8522C51.1506 25.9406 51.4315 25.8034 51.52 25.5458C51.6086 25.288 51.4714 25.0072 51.2136 24.9186C48.6353 24.0326 46.9032 21.6131 46.9032 18.8982V13.3588C46.9032 13.3365 46.9232 13.3217 46.9429 13.3173C47.8342 13.1108 48.7411 12.5954 49.6388 11.7856C50.5528 12.8431 53.3948 15.6754 57.5668 15.6756C58.2222 15.6756 58.9106 15.6058 59.6294 15.448V18.8982C59.6294 22.0146 57.3038 24.7182 54.22 25.1871C53.9505 25.2282 53.7654 25.4797 53.8062 25.7493C53.8433 25.9935 54.0538 26.1686 54.2936 26.1686V26.1686Z" fill="black"/>
<path d="M61.1732 20.9798H63.0214C63.8726 20.9798 64.5649 20.2875 64.5649 19.4362V12.6526C64.5649 11.8014 63.8726 11.109 63.0214 11.109H61.1732C60.3219 11.109 59.6296 11.8014 59.6296 12.6526V19.4362C59.6296 20.2875 60.3219 20.9798 61.1732 20.9798V20.9798ZM63.0214 12.0961C63.3281 12.0961 63.5779 12.3458 63.5779 12.6526V19.4362C63.5779 19.743 63.3281 19.9927 63.0214 19.9927H61.1732C60.8664 19.9927 60.6166 19.743 60.6166 19.4362V12.6526C60.6166 12.3458 60.8664 12.0961 61.1732 12.0961H63.0214Z" fill="black"/>
<path d="M64.0714 19.0056H64.1616C65.4448 19.0056 66.4885 17.9617 66.4885 16.6787V15.2127C66.4885 13.9295 65.4446 12.8858 64.1616 12.8858H64.0714C63.7987 12.8858 63.5778 13.1067 63.5778 13.3793V18.5121C63.5778 18.7847 63.7987 19.0056 64.0714 19.0056V19.0056ZM64.5649 13.9348C65.1072 14.1064 65.5014 14.6143 65.5014 15.2127V16.6787C65.5014 17.2771 65.1072 17.785 64.5649 17.9566V13.9348Z" fill="black"/>
<path d="M43.5113 20.9798H45.3595C46.2107 20.9798 46.9031 20.2875 46.9031 19.4362V12.6526C46.9031 11.8014 46.2107 11.109 45.3595 11.109H43.5113C42.66 11.109 41.9677 11.8014 41.9677 12.6526V19.4362C41.9679 20.2875 42.6602 20.9798 43.5113 20.9798V20.9798ZM45.3597 12.0961C45.6665 12.0961 45.9162 12.3458 45.9162 12.6526V19.4362C45.9162 19.743 45.6665 19.9927 45.3597 19.9927H43.5115C43.2047 19.9927 42.955 19.743 42.955 19.4362V12.6526C42.955 12.3458 43.2047 12.0961 43.5115 12.0961H45.3597Z" fill="black"/>
<path d="M42.3715 19.0056C42.6441 19.0056 42.865 18.7847 42.865 18.5121C42.865 18.2395 42.6441 18.0186 42.3715 18.0186C41.6327 18.0186 41.0316 17.4174 41.0316 16.6787V15.2127C41.0316 14.474 41.6327 13.8728 42.3715 13.8728C42.6441 13.8728 42.865 13.6519 42.865 13.3793C42.865 13.1067 42.6441 12.8858 42.3715 12.8858C41.0883 12.8858 40.0445 13.9297 40.0445 15.2127V16.6787C40.0443 17.9617 41.0883 19.0056 42.3715 19.0056Z" fill="black"/>
<path d="M45.6551 11.9666C45.9277 11.9666 46.1486 11.7457 46.1486 11.4731V11.0018C46.1486 7.01838 49.3896 3.77742 53.373 3.77742C57.3564 3.77742 60.5974 7.01838 60.5974 11.0018V11.4132C60.5974 11.6859 60.8183 11.9068 61.0909 11.9068C61.3636 11.9068 61.5845 11.6859 61.5845 11.4132V11.0018C61.5845 6.47391 57.9009 2.79034 53.373 2.79034C48.8451 2.79034 45.1615 6.47391 45.1615 11.0018V11.4731C45.1615 11.7457 45.3824 11.9666 45.6551 11.9666Z" fill="black"/>
<path fillRule="evenodd" clipRule="evenodd" d="M45.6551 12.0666C45.983 12.0666 46.2487 11.8009 46.2487 11.473V11.0018C46.2487 7.07361 49.4449 3.87741 53.3731 3.87741C57.3013 3.87741 60.4975 7.07361 60.4975 11.0018V11.4132C60.4975 11.7411 60.7632 12.0068 61.091 12.0068C61.4189 12.0068 61.6846 11.7411 61.6846 11.4132V11.0018C61.6846 6.41868 57.9562 2.69034 53.3731 2.69034C48.79 2.69034 45.0616 6.41868 45.0616 11.0018V11.473C45.0616 11.8009 45.3273 12.0666 45.6551 12.0666ZM46.1487 11.473C46.1487 11.7457 45.9278 11.9666 45.6551 11.9666C45.3825 11.9666 45.1616 11.7457 45.1616 11.473V11.0018C45.1616 6.47391 48.8452 2.79034 53.3731 2.79034C57.901 2.79034 61.5846 6.47391 61.5846 11.0018V11.4132C61.5846 11.6859 61.3637 11.9068 61.091 11.9068C60.8184 11.9068 60.5975 11.6859 60.5975 11.4132V11.0018C60.5975 7.01838 57.3565 3.77741 53.3731 3.77741C49.3896 3.77741 46.1487 7.01838 46.1487 11.0018V11.473Z" fill="black"/>
<path d="M43.8649 11.9048C44.1375 11.9048 44.3584 11.6839 44.3584 11.4113V11.0018C44.3584 6.03112 48.4024 1.98708 53.3732 1.98708C58.3439 1.98708 62.3879 6.03112 62.3879 11.0018V11.4052C62.3879 11.6778 62.6088 11.8987 62.8815 11.8987C63.1541 11.8987 63.375 11.6778 63.375 11.4052V11.0018C63.375 5.48685 58.8882 1 53.3732 1C47.8582 1 43.3713 5.48685 43.3713 11.0018V11.4113C43.3713 11.6839 43.5922 11.9048 43.8649 11.9048Z" fill="black"/>
<path d="M61.1732 20.9798H63.0214C63.8726 20.9798 64.5649 20.2875 64.5649 19.4362V12.6526C64.5649 11.8014 63.8726 11.109 63.0214 11.109H61.1732C60.3219 11.109 59.6296 11.8014 59.6296 12.6526V19.4362C59.6296 20.2875 60.3219 20.9798 61.1732 20.9798V20.9798ZM63.0214 12.0961C63.3281 12.0961 63.5779 12.3458 63.5779 12.6526V19.4362C63.5779 19.743 63.3281 19.9927 63.0214 19.9927H61.1732C60.8664 19.9927 60.6166 19.743 60.6166 19.4362V12.6526C60.6166 12.3458 60.8664 12.0961 61.1732 12.0961H63.0214Z" fill="black"/>
<path d="M64.1614 19.0056C65.4445 19.0056 66.4883 17.9617 66.4883 16.6787V15.2127C66.4883 13.9295 65.4444 12.8858 64.1614 12.8858C63.8887 12.8858 63.6678 13.1067 63.6678 13.3793C63.6678 13.6519 63.8887 13.8728 64.1614 13.8728C64.9001 13.8728 65.5012 14.474 65.5012 15.2127V16.6787C65.5012 17.4174 64.9001 18.0186 64.1614 18.0186C63.8887 18.0186 63.6678 18.2395 63.6678 18.5121C63.6678 18.7847 63.8889 19.0056 64.1614 19.0056Z" fill="black"/>
<path d="M43.5113 20.9798H45.3595C46.2107 20.9798 46.9031 20.2875 46.9031 19.4362V12.6526C46.9031 11.8014 46.2107 11.109 45.3595 11.109H43.5113C42.66 11.109 41.9677 11.8014 41.9677 12.6526V19.4362C41.9679 20.2875 42.6602 20.9798 43.5113 20.9798V20.9798ZM45.3597 12.0961C45.6665 12.0961 45.9162 12.3458 45.9162 12.6526V19.4362C45.9162 19.743 45.6665 19.9927 45.3597 19.9927H43.5115C43.2047 19.9927 42.955 19.743 42.955 19.4362V12.6526C42.955 12.3458 43.2047 12.0961 43.5115 12.0961H45.3597Z" fill="black"/>
<path d="M51.1479 25.7175C51.3779 25.7175 51.5836 25.556 51.6312 25.3221C51.6853 25.0548 51.5127 24.7944 51.2456 24.7403L45.8223 23.6405C45.2154 23.5217 44.7775 22.9898 44.7775 22.3749V20.9717C44.7775 20.699 44.5566 20.4781 44.284 20.4781C44.0114 20.4781 43.7905 20.699 43.7905 20.9717V22.3749C43.7905 23.4607 44.5637 24.4 45.6294 24.6085L51.0494 25.7075C51.0824 25.7142 51.1153 25.7175 51.1479 25.7175V25.7175Z" fill="black"/>
<path d="M50.4989 34.0864C50.7619 34.0864 51.0132 33.9766 51.192 33.7827L52.8023 32.0384C53.1273 31.6864 53.1233 31.1386 52.7933 30.7911L49.6962 27.5353C49.3748 27.1978 48.8331 27.1784 48.4888 27.4927L46.883 28.9589C46.5429 29.2696 46.5064 29.791 46.7999 30.1462L49.7716 33.7436C49.9452 33.9537 50.2008 34.0785 50.473 34.0858C50.4817 34.0864 50.4902 34.0864 50.4989 34.0864V34.0864ZM52.0295 31.4205L50.5007 33.0768L47.6358 29.6086L49.0647 28.3039L52.0295 31.4205ZM47.5491 29.6876C47.5489 29.6876 47.5489 29.6878 47.5487 29.6879L47.5491 29.6876Z" fill="black"/>
<path d="M56.0335 34.0864C56.0422 34.0864 56.0506 34.0864 56.0593 34.086C56.3316 34.0785 56.5872 33.9539 56.7607 33.7439L59.7326 30.1462C60.026 29.7912 59.9895 29.2698 59.6493 28.9591L58.0435 27.4929C57.6993 27.1786 57.1574 27.1974 56.8362 27.5355L53.7393 30.7911C53.409 31.1386 53.4051 31.6864 53.73 32.0384L55.3403 33.7827C55.5192 33.9766 55.7707 34.0864 56.0335 34.0864V34.0864ZM58.8966 29.6084L56.0317 33.0766L54.5029 31.4203L57.4677 28.3035L58.8966 29.6084ZM58.9836 29.688C58.9836 29.6878 58.9834 29.6878 58.9832 29.6876L58.9836 29.688Z" fill="black"/>
<path d="M39.2757 49.9998H43.6167C44.1801 49.9998 44.6387 49.5414 44.6387 48.9778V42.9616C44.9944 44.3071 45.1743 45.6914 45.1743 47.0867V48.978C45.1743 49.5414 45.6327 50 46.1963 50H60.3363C60.8998 50 61.3584 49.5416 61.3584 48.978V47.0867C61.3584 45.6916 61.5384 44.3073 61.8939 42.9616V48.9778C61.8939 49.5412 62.3523 49.9998 62.9158 49.9998H67.2569C67.6059 49.9998 67.9435 49.8545 68.1834 49.6008C68.423 49.3473 68.5494 49.0021 68.53 48.6536L67.9887 33.7745C67.9074 32.313 66.9055 31.0987 65.4952 30.7437L60.593 29.5063C60.302 29.4329 60.0098 29.3322 59.7243 29.2063C59.4748 29.0967 59.1834 29.2096 59.0737 29.459C58.9639 29.7085 59.077 29.9997 59.3264 30.1096C59.6624 30.2577 60.0072 30.3765 60.3515 30.4634L65.2537 31.7008C66.2432 31.9499 66.9458 32.8014 67.0026 33.8199L67.544 48.699C67.5505 48.8163 67.498 48.8887 67.4662 48.9225C67.4342 48.9561 67.3647 49.0127 67.2567 49.0127H62.9156C62.8964 49.0127 62.8808 48.9971 62.8808 48.9778V39.671C62.8808 39.4272 62.7027 39.2199 62.4617 39.183C62.2209 39.1463 61.9889 39.2912 61.9162 39.524L61.1497 41.9796C60.633 43.6345 60.3711 45.3526 60.3711 47.0865V48.9778C60.3711 48.9971 60.3555 49.0127 60.3361 49.0127H46.1961C46.1767 49.0127 46.1611 48.9971 46.1611 48.9778V47.0865C46.1611 45.3524 45.8992 43.6343 45.3825 41.9796L44.616 39.524C44.5433 39.2912 44.3114 39.1471 44.0705 39.183C43.8295 39.2199 43.6514 39.427 43.6514 39.671V48.9778C43.6514 48.9971 43.6358 49.0127 43.6165 49.0127H39.2755C39.1675 49.0127 39.098 48.9563 39.066 48.9225C39.0343 48.8889 38.9818 48.8163 38.9879 48.7087L39.5302 33.8104C39.5864 32.8016 40.289 31.9499 41.2781 31.701L46.1809 30.4634C46.5252 30.3769 46.8709 30.2575 47.2078 30.1088C47.4574 29.9989 47.5703 29.7075 47.4603 29.4582C47.3504 29.2086 47.0584 29.0961 46.8097 29.2057C46.5232 29.332 46.2304 29.4331 45.9396 29.5063L41.0368 30.7439C39.6269 31.0989 38.625 32.313 38.5441 33.765L38.0018 48.6633C37.9828 49.0023 38.1092 49.3473 38.349 49.601C38.5891 49.8545 38.9267 49.9998 39.2757 49.9998V49.9998Z" fill="black"/>
<path fillRule="evenodd" clipRule="evenodd" d="M38.5442 33.765L38.0019 48.6633C37.9829 49.0023 38.1093 49.3473 38.3491 49.601C38.5892 49.8545 38.9268 49.9998 39.2758 49.9998H43.6168C44.1802 49.9998 44.6388 49.5414 44.6388 48.9778V42.9616C44.6738 43.0941 44.7072 43.227 44.7388 43.3603C45.0282 44.5799 45.1744 45.8288 45.1744 47.0867V48.978C45.1744 49.5414 45.6328 50 46.1964 50H60.3364C60.8999 50 61.3584 49.5416 61.3584 48.978V47.0867C61.3584 45.8291 61.5048 44.5803 61.794 43.3605C61.8257 43.2272 61.859 43.0942 61.894 42.9616V48.9778C61.894 49.5412 62.3524 49.9998 62.9159 49.9998H67.257C67.606 49.9998 67.9436 49.8545 68.1835 49.6008C68.4231 49.3473 68.5495 49.0021 68.5301 48.6536L67.9888 33.7744C67.9075 32.313 66.9056 31.0987 65.4953 30.7437L60.5931 29.5063C60.3021 29.4329 60.0099 29.3322 59.7244 29.2063C59.4749 29.0967 59.1835 29.2096 59.0738 29.459C58.964 29.7085 59.0771 29.9997 59.3265 30.1096C59.6625 30.2577 60.0073 30.3765 60.3516 30.4634L65.2538 31.7008C66.2433 31.9499 66.9459 32.8014 67.0027 33.8199L67.5441 48.699C67.5506 48.8163 67.4981 48.8887 67.4663 48.9225C67.4343 48.9561 67.3648 49.0127 67.2568 49.0127H62.9157C62.8965 49.0127 62.8809 48.9971 62.8809 48.9778V39.671C62.8809 39.4272 62.7028 39.2199 62.4618 39.183C62.221 39.1463 61.989 39.2912 61.9163 39.524L61.1498 41.9796C60.6331 43.6345 60.3712 45.3526 60.3712 47.0865V48.9778C60.3712 48.9971 60.3556 49.0127 60.3362 49.0127H46.1962C46.1768 49.0127 46.1612 48.9971 46.1612 48.9778V47.0865C46.1612 45.3524 45.8993 43.6343 45.3826 41.9796L44.6161 39.524C44.5434 39.2912 44.3115 39.1471 44.0706 39.183C43.8296 39.2199 43.6515 39.427 43.6515 39.671V48.9778C43.6515 48.9971 43.6359 49.0127 43.6166 49.0127H39.2756C39.1676 49.0127 39.0981 48.9563 39.0661 48.9225C39.0344 48.8889 38.9818 48.8163 38.988 48.7087L39.5303 33.8104C39.5865 32.8016 40.2891 31.9499 41.2782 31.701L46.181 30.4634C46.5253 30.3769 46.8709 30.2575 47.2079 30.1088C47.4575 29.9989 47.5704 29.7075 47.4604 29.4582C47.3505 29.2086 47.0585 29.0961 46.8097 29.2057C46.5233 29.332 46.2305 29.4331 45.9397 29.5063L41.0369 30.7439C39.627 31.0989 38.6251 32.313 38.5442 33.765ZM41.0125 30.647L45.9153 29.4094C46.2004 29.3376 46.4879 29.2383 46.7694 29.1142C47.0685 28.9824 47.4196 29.1176 47.5519 29.4178C47.6842 29.7176 47.5484 30.0681 47.2483 30.2003M41.0125 30.647C39.5601 31.0126 38.5277 32.2637 38.4443 33.7594L38.4442 33.7613L37.902 48.6577C37.902 48.658 37.9021 48.6574 37.902 48.6577C37.8818 49.0242 38.0182 49.3966 38.2765 49.6697C38.5354 49.9431 38.8993 50.0998 39.2758 50.0998H43.6168C44.2354 50.0998 44.7388 49.5966 44.7388 48.9778V43.8205C44.9618 44.8932 45.0744 45.9865 45.0744 47.0867V48.978C45.0744 49.5966 45.5775 50.1 46.1964 50.1H60.3364C60.9551 50.1 61.4584 49.5968 61.4584 48.978V47.0867C61.4584 45.9868 61.5711 44.8936 61.794 43.821V48.9778C61.794 49.5964 62.2972 50.0998 62.9159 50.0998H67.257C67.6335 50.0998 67.9974 49.9432 68.2561 49.6695C68.5145 49.3963 68.6506 49.0246 68.63 48.649C68.63 48.6487 68.6301 48.6494 68.63 48.649L68.0887 33.7689C68.0049 32.2639 66.9727 31.0125 65.5198 30.6468M65.5198 30.6468L60.6175 29.4094C60.3321 29.3373 60.0453 29.2385 59.7648 29.1148C59.4649 28.9831 59.1143 29.1186 58.9822 29.4187C58.8503 29.7187 58.9863 30.0689 59.2861 30.2011C59.6271 30.3514 59.9773 30.4721 60.3272 30.5604C60.3272 30.5604 60.3272 30.5604 60.3272 30.5604L65.2294 31.7978C66.1761 32.0361 66.848 32.8501 66.9028 33.8245C66.9029 33.8248 66.9028 33.8241 66.9028 33.8245L67.4442 48.7046C67.4487 48.7855 67.4136 48.8325 67.3937 48.8537C67.3717 48.8767 67.3267 48.9127 67.2568 48.9127H62.9809V39.671C62.9809 39.3778 62.7668 39.1286 62.4769 39.0842C62.1872 39.04 61.9083 39.2143 61.8209 39.4942L61.0543 41.9498C60.5347 43.6144 60.2712 45.3425 60.2712 47.0865V48.9127H46.2612V47.0865C46.2612 45.3423 45.9977 43.6142 45.4781 41.9498L44.7115 39.4942C44.6241 39.214 44.3451 39.041 44.0559 39.0841C43.7661 39.1285 43.5515 39.3776 43.5515 39.671V48.9127H39.2756C39.2054 48.9127 39.1603 48.8765 39.1388 48.8537C39.1175 48.8313 39.0838 48.7843 39.0878 48.7144L39.0879 48.7123L39.6301 33.8159C39.6301 33.8156 39.6301 33.8163 39.6301 33.8159C39.6843 32.8515 40.3561 32.0362 41.3026 31.798L46.2053 30.5604" fill="black"/>
<path d="M49.6949 28.5317C49.8561 28.5317 50.0145 28.4527 50.109 28.3072C50.3639 27.9157 50.4985 27.4648 50.4985 27.0031V25.0923C50.4985 24.8197 50.2776 24.5988 50.005 24.5988C49.7324 24.5988 49.5115 24.8197 49.5115 25.0923V27.0031C49.5115 27.2732 49.4321 27.5379 49.2817 27.7687C49.133 27.9971 49.1976 28.3029 49.426 28.4515C49.5093 28.5058 49.6027 28.5317 49.6949 28.5317V28.5317Z" fill="black"/>
<path d="M52.6311 31.8376H53.8527C54.1253 31.8376 54.3462 31.6167 54.3462 31.3441C54.3462 31.0715 54.1253 30.8506 53.8527 30.8506H52.6311C52.3584 30.8506 52.1375 31.0715 52.1375 31.3441C52.1375 31.6167 52.3584 31.8376 52.6311 31.8376Z" fill="black"/>
<path d="M56.8384 28.5327C56.9308 28.5327 57.0242 28.5068 57.1075 28.4525C57.3359 28.3037 57.4002 27.9979 57.2514 27.7697C57.1007 27.5387 57.0212 27.2736 57.0212 27.0033V25.0515C57.0212 24.7788 56.8003 24.5579 56.5277 24.5579C56.255 24.5579 56.0341 24.7788 56.0341 25.0515V27.0033C56.0341 27.4655 56.1691 27.9168 56.4246 28.3086C56.5192 28.4537 56.6771 28.5327 56.8384 28.5327V28.5327Z" fill="black"/>
<path d="M52.3777 39.5368H54.1558C54.7178 39.5368 55.175 39.0796 55.175 38.5175V32.4462C55.175 32.1736 54.9541 31.9527 54.6815 31.9527C54.4089 31.9527 54.188 32.1736 54.188 32.4462V38.5175C54.188 38.5353 54.1736 38.5497 54.1558 38.5497H52.3777C52.3599 38.5497 52.3455 38.5353 52.3455 38.5175V32.4792C52.3455 32.2066 52.1246 31.9857 51.852 31.9857C51.5793 31.9857 51.3584 32.2066 51.3584 32.4792V38.5173C51.3582 39.0796 51.8154 39.5368 52.3777 39.5368Z" fill="black"/>
<path d="M38.8798 44.0773H43.9632C44.2359 44.0773 44.4568 43.8564 44.4568 43.5838C44.4568 43.3112 44.2359 43.0903 43.9632 43.0903H38.8798C38.6072 43.0903 38.3863 43.3112 38.3863 43.5838C38.3863 43.8564 38.6072 44.0773 38.8798 44.0773Z" fill="black"/>
<path d="M62.5614 44.0773H67.6942C67.9668 44.0773 68.1877 43.8564 68.1877 43.5838C68.1877 43.3112 67.9668 43.0903 67.6942 43.0903H62.5614C62.2888 43.0903 62.0679 43.3112 62.0679 43.5838C62.0679 43.8564 62.2888 44.0773 62.5614 44.0773Z" fill="black"/>
<path d="M53.1711 27.1C53.4631 27.1 53.7483 27.0134 53.9957 26.8466C54.323 26.6257 54.5451 26.2906 54.6209 25.9033C54.6969 25.5152 54.617 25.1208 54.3965 24.7927C54.1757 24.4646 53.8405 24.2419 53.4522 24.1661L52.4738 23.9746C51.6727 23.8178 50.8931 24.3422 50.7364 25.1433C50.5796 25.9444 51.1038 26.7238 51.9051 26.8805L52.8835 27.072C52.9792 27.091 53.0756 27.1 53.1711 27.1V27.1ZM52.1894 24.934C52.2207 24.934 52.2523 24.937 52.2843 24.9433L53.2627 25.1348C53.392 25.1601 53.5037 25.2343 53.5774 25.3436C53.651 25.453 53.6775 25.5845 53.6522 25.7138C53.6269 25.8429 53.5529 25.9546 53.4437 26.0283C53.3344 26.1021 53.2025 26.1288 53.0732 26.1033L52.0948 25.9118C51.8277 25.8595 51.6532 25.5999 51.7053 25.3328C51.7511 25.0977 51.9582 24.934 52.1894 24.934V24.934Z" fill="black"/>
<path d="M25.7541 44.7334C24.4747 40.8726 24.4747 29.9339 24.4747 29.9339C24.4747 22.2124 27.0334 18.9951 33.4302 18.9951C36.8333 18.9951 40.4219 20.0504 41.746 24.1428C43.0254 28.0035 43.665 37.6553 40.4666 44.7334C39.0024 47.221 36.3016 48.7022 33.4301 48.5941C30.4096 48.5941 27.5663 47.1637 25.7541 44.7334Z" fill="#A15D30"/>
<path d="M37.9079 19.8381C39.7553 20.6341 41.16 22.2092 41.746 24.1428C43.0254 28.0036 43.665 37.6554 40.4666 44.7334C39.0337 47.1637 36.4175 48.6366 33.6093 48.5942C37.5625 41.4196 37.9079 25.5777 37.9079 19.8381Z" fill="#8F4F24"/>
<path d="M41.745 51.8116H44.3037V56.9593H41.745V51.8116Z" fill="#FEDAC6"/>
<path d="M44.3044 51.8116H46.863V56.9593H44.3044V51.8116Z" fill="#F5C4B0"/>
<path d="M19.9963 51.8116H25.1138V56.9593H19.9963V51.8116Z" fill="#FEDAC6"/>
<path d="M19.9966 48.7872C19.9819 46.8279 21.4282 45.1677 23.3613 44.9264L27.8006 44.3666L28.0821 45.0101C29.3519 47.9809 32.7754 49.3541 35.7287 48.0768C37.0976 47.4848 38.1883 46.387 38.7774 45.0101L39.0589 44.3666L43.4983 44.9264C45.4314 45.1677 46.8777 46.8279 46.8629 48.7872V51.8114H41.7455L41.8798 52.0817C42.6333 53.5957 43.0255 55.2661 43.0249 56.9591H23.8346C23.8339 55.2662 24.226 53.5957 24.9796 52.0817L25.1139 51.8114H19.9965V48.7872H19.9966Z" fill="#F18989"/>
<path d="M44.3044 45.1517C45.8364 45.6967 46.8612 47.1528 46.863 48.7872V51.8114H44.3044V45.1517Z" fill="#EB5757"/>
<path d="M33.43 48.5942C31.1029 48.5955 28.999 47.2005 28.0823 45.0488L27.8008 44.4054L29.0802 44.2445C29.7237 44.1628 30.2048 43.6101 30.1996 42.9576V39.5858H36.6284V42.9511C36.6233 43.6036 37.1043 44.1563 37.7478 44.238L39.0591 44.3989L38.7776 45.0423C37.863 47.1966 35.7584 48.5942 33.43 48.5942Z" fill="#FEDAC6"/>
<path d="M30.2314 43.1506V39.5858H36.6282V43.1506C34.2294 44.4054 32.6302 44.4054 30.2314 43.1506Z" fill="#F5C4B0"/>
<path d="M25.7541 29.2903H27.0334V33.151H25.7541C24.6941 33.151 23.835 32.2869 23.835 31.2207C23.835 30.1545 24.6941 29.2903 25.7541 29.2903Z" fill="#FEDAC6"/>
<path d="M26.3937 29.2903C34.7095 27.36 37.9079 24.1427 37.9079 24.1427L40.4666 29.9338L40.1148 34.4379C39.9574 38.0368 37.011 40.8724 33.4302 40.8724C29.8492 40.8724 26.9029 38.0368 26.7456 34.4379L26.3937 29.2903Z" fill="#FEDAC6"/>
<path fillRule="evenodd" clipRule="evenodd" d="M31.2133 35.8261C31.3666 35.6974 31.5952 35.7173 31.724 35.8706C31.8122 35.9756 32.0235 36.1073 32.3686 36.2194C32.7005 36.3272 33.11 36.4018 33.5384 36.4267C33.9667 36.4516 34.4013 36.4261 34.7844 36.3418C35.1712 36.2566 35.48 36.1172 35.6838 35.9345C35.8329 35.8009 36.062 35.8134 36.1956 35.9625C36.3292 36.1115 36.3167 36.3407 36.1676 36.4743C35.8378 36.77 35.3969 36.9491 34.9402 37.0497C34.4799 37.151 33.9771 37.1783 33.4963 37.1504C33.0155 37.1224 32.5439 37.0384 32.1448 36.9089C31.759 36.7836 31.3894 36.5993 31.1689 36.3367C31.0402 36.1835 31.0601 35.9548 31.2133 35.8261Z" fill="black"/>
<path d="M37.9074 24.1427L40.4661 29.9338L40.1143 34.4379C39.9607 37.8869 37.9074 39.5856 35.3487 40.229C36.321 39.0129 36.6281 38.0027 37.2677 36.3683C38.0353 34.4379 37.9074 24.1427 37.9074 24.1427Z" fill="#F5C4B0"/>
<path d="M42.1874 53.4587C42.7356 54.543 43.0228 55.7424 43.0254 56.9591H38.7523C40.9784 56.0196 41.8548 54.5784 42.1874 53.4587Z" fill="#EB5757"/>
<path d="M30.2807 31.691C29.5741 31.691 29.0013 31.1148 29.0013 30.4041C29.0013 29.6933 29.5741 29.1171 30.2807 29.1171C30.9873 29.1171 31.5601 29.6933 31.5601 30.4041C31.5601 31.1148 30.9873 31.691 30.2807 31.691Z" fill="black"/>
<path d="M33.2934 35L34.6835 34.4549C34.8202 34.4009 34.9282 34.275 34.975 34.1147C35.0218 33.9539 35.0023 33.7767 34.9221 33.6355L33.9954 32L33.2243 32.6045L33.8146 33.6463L33 33.9658L33.2934 35Z" fill="black"/>
<path d="M46.2234 56.9591H47.5028V48.7873C47.52 46.5062 45.8326 44.5701 43.5771 44.2882L37.82 43.5676C37.4996 43.527 37.259 43.2504 37.261 42.9242V40.2293H35.9816V42.919C35.9739 43.8931 36.6961 44.7232 37.6607 44.8442L43.4185 45.5648C45.0298 45.7662 46.235 47.1497 46.2228 48.7821V56.9591H46.2234Z" fill="black"/>
<path d="M19.3506 56.9592H20.63V48.8195C20.6172 47.1819 21.823 45.7991 23.4338 45.597L29.1909 44.877C30.1567 44.7548 30.8789 43.9247 30.8713 42.9466V40.2293H29.5919V42.9512C29.5944 43.2826 29.354 43.5585 29.0322 43.5998L23.2763 44.3198C21.0208 44.6017 19.3334 46.5385 19.3506 48.824V56.9592Z" fill="black"/>
<path d="M25.7541 33.7947H26.3938V32.5077H25.7541C25.0486 32.5077 24.4748 31.9306 24.4748 31.2208C24.4748 30.5111 25.0485 29.9338 25.7541 29.9338H26.3938V28.6469H25.7541C24.343 28.6469 23.1955 29.8013 23.1955 31.2207C23.1955 32.6401 24.343 33.7947 25.7541 33.7947Z" fill="black"/>
<path fillRule="evenodd" clipRule="evenodd" d="M47.4868 56.9595C47.4868 56.6053 47.1996 56.3181 46.8454 56.3181H20.0386C19.6843 56.3181 19.3971 56.6053 19.3971 56.9595C19.3971 57.3138 19.6843 57.601 20.0386 57.601H46.8454C47.1996 57.601 47.4868 57.3138 47.4868 56.9595Z" fill="black"/>
<path d="M33.427 49.2378C33.4295 49.2378 33.4321 49.2378 33.434 49.2378C36.0189 49.2378 38.3474 47.6935 39.3658 45.3024L39.7751 44.3443L38.5994 43.8366L38.1901 44.7954C37.3732 46.7123 35.506 47.9509 33.4334 47.9509C33.4315 47.9509 33.4296 47.9509 33.4277 47.9509C31.3538 47.9509 29.4866 46.7129 28.6697 44.796L28.2604 43.8366L27.0847 44.3443L27.494 45.3031C28.5123 47.6935 30.8414 49.2378 33.427 49.2378Z" fill="black"/>
<path d="M41.0479 44.9999C44.4248 37.5268 43.5638 27.5957 42.3522 23.9396C41.1695 20.2854 38.0836 18.3518 33.4294 18.3518C26.7039 18.3518 23.8342 21.8155 23.8342 29.934H25.1136C25.1136 22.5253 27.4452 19.6388 33.4294 19.6388C37.5342 19.6388 40.1268 21.221 41.1368 24.3424C42.2946 27.8357 43.1134 37.3196 39.8837 44.4672L41.0479 44.9999Z" fill="black"/>
<path d="M33.4296 41.5161C37.3629 41.5161 40.5799 38.4191 40.7532 34.4664L41.1038 29.9847C41.1121 29.8779 41.0935 29.7704 41.0507 29.6726L38.492 23.8815C38.4063 23.6878 38.2317 23.5488 38.0244 23.5102C37.8165 23.4709 37.6042 23.5379 37.4551 23.6878C37.425 23.7174 34.2458 26.8073 26.2492 28.663C25.9428 28.7344 25.733 29.0188 25.7548 29.3341L26.1065 34.4818C26.2787 38.4198 29.4956 41.5161 33.4296 41.5161ZM39.8155 30.0459L39.4758 34.3872C39.3319 37.6727 36.6766 40.2291 33.4296 40.2291C30.1826 40.2291 27.5266 37.6727 27.384 34.4098L27.0686 29.7904C33.079 28.3195 36.3535 26.2057 37.6687 25.1871L39.8155 30.0459Z" fill="black"/>
<path d="M37.9577 31.691C37.2511 31.691 36.6783 31.1148 36.6783 30.4041C36.6783 29.6933 37.2511 29.1171 37.9577 29.1171C38.6643 29.1171 39.2371 29.6933 39.2371 30.4041C39.2371 31.1148 38.6643 31.691 37.9577 31.691Z" fill="black"/>
<path d="M25.1382 44.9099L26.3689 44.5566C25.1292 40.192 25.1139 32.5838 25.1139 32.5073H23.8345C23.8345 32.8271 23.8492 40.3715 25.1382 44.9099Z" fill="black"/>
<path d="M43.6648 56.9591C43.6648 55.1755 43.2458 53.3892 42.452 51.7941L42.3855 51.6596V49.8811H41.1061V51.8115C41.1061 51.9113 41.1291 52.0103 41.1733 52.0991L41.3076 52.3693C42.0132 53.7869 42.3855 55.3743 42.3855 56.9591H43.6648Z" fill="black"/>
<path d="M41.7456 51.1681H46.863V52.455H41.7456V51.1681Z" fill="black"/>
<path d="M19.9963 51.1681H25.1138V52.455H19.9963V51.1681Z" fill="black"/>
<path d="M23.1947 56.9591H24.474C24.4734 55.3742 24.8457 53.7875 25.5519 52.3693L25.6863 52.0991C25.7304 52.0097 25.7534 51.9112 25.7534 51.8115V49.8811H24.474V51.6596L24.4075 51.7941C23.613 53.3899 23.1941 55.1761 23.1947 56.9591Z" fill="black"/>
<path d="M85.9412 1.17117H71.1567C69.7978 1.17117 68.6926 2.27631 68.6926 3.63525V14.7236C68.6926 16.0826 69.7978 17.1877 71.1567 17.1877H72.3887V20.2678C72.3887 20.5068 72.5267 20.7249 72.7436 20.8259C72.8261 20.8641 72.9161 20.8838 73.0048 20.8838C73.1465 20.8838 73.2869 20.8345 73.399 20.7409L77.6631 17.1877H85.9412C87.3001 17.1877 88.4053 16.0826 88.4053 14.7236V3.63525C88.4053 2.27631 87.3001 1.17117 85.9412 1.17117Z" fill="#28BE72"/>
<path fillRule="evenodd" clipRule="evenodd" d="M72.4527 21.4545L72.4511 21.4538C71.9885 21.2382 71.6961 20.7742 71.6961 20.2678V17.8803H71.1567C69.4153 17.8803 68 16.4651 68 14.7236V3.63525C68 1.89377 69.4153 0.478516 71.1567 0.478516H85.9412C87.6827 0.478516 89.0979 1.89377 89.0979 3.63525V14.7236C89.0979 16.4651 87.6827 17.8803 85.9412 17.8803H77.9139L73.843 21.2725M77.6631 17.1877L73.399 20.7409C73.2869 20.8345 73.1465 20.8838 73.0048 20.8838C72.9161 20.8838 72.8261 20.8641 72.7436 20.8259C72.5268 20.7249 72.3888 20.5068 72.3888 20.2678V17.1877H71.1567C69.7978 17.1877 68.6927 16.0826 68.6927 14.7236V3.63525C68.6927 2.27631 69.7978 1.17117 71.1567 1.17117H85.9412C87.3002 1.17117 88.4053 2.27631 88.4053 3.63525V14.7236C88.4053 16.0826 87.3002 17.1877 85.9412 17.1877H77.6631ZM72.4527 21.4545C72.6257 21.5346 72.8148 21.5765 73.0048 21.5765ZM73.0048 21.5765C73.3057 21.5765 73.6037 21.4721 73.8425 21.273Z" fill="black"/>
<path d="M79.1648 11.0277H74.2366C73.8966 11.0277 73.6206 10.7517 73.6206 10.4117C73.6206 10.0716 73.8966 9.79564 74.2366 9.79564H79.1648C79.5048 9.79564 79.7808 10.0716 79.7808 10.4117C79.7808 10.7517 79.5048 11.0277 79.1648 11.0277Z" fill="#FAFAFA"/>
<path fillRule="evenodd" clipRule="evenodd" d="M79.1648 11.5057H74.2366C73.6326 11.5057 73.1426 11.0157 73.1426 10.4117C73.1426 9.8076 73.6326 9.3176 74.2366 9.3176H79.1648C79.7689 9.3176 80.2589 9.8076 80.2589 10.4117C80.2589 11.0157 79.7689 11.5057 79.1648 11.5057ZM74.2366 11.0277H79.1648C79.5048 11.0277 79.7808 10.7517 79.7808 10.4117C79.7808 10.0716 79.5048 9.79565 79.1648 9.79565H74.2366C73.8966 9.79565 73.6206 10.0716 73.6206 10.4117C73.6206 10.7517 73.8966 11.0277 74.2366 11.0277Z" fill="black"/>
<path d="M82.8609 7.33136H74.2366C73.8966 7.33136 73.6206 7.05538 73.6206 6.71534C73.6206 6.3753 73.8966 6.09932 74.2366 6.09932H82.8609C83.2009 6.09932 83.4769 6.3753 83.4769 6.71534C83.4769 7.05538 83.2009 7.33136 82.8609 7.33136Z" fill="#FAFAFA"/>
<path fillRule="evenodd" clipRule="evenodd" d="M82.8609 7.80941H74.2366C73.6326 7.80941 73.1426 7.31941 73.1426 6.71535C73.1426 6.11128 73.6326 5.62128 74.2366 5.62128H82.8609C83.465 5.62128 83.955 6.11128 83.955 6.71535C83.955 7.31941 83.465 7.80941 82.8609 7.80941ZM74.2366 7.33137H82.8609C83.201 7.33137 83.4769 7.05539 83.4769 6.71535C83.4769 6.3753 83.201 6.09933 82.8609 6.09933H74.2366C73.8966 6.09933 73.6206 6.3753 73.6206 6.71535C73.6206 7.05539 73.8966 7.33137 74.2366 7.33137Z" fill="black"/>
<path d="M3.28562 20.3315H18.0701C19.429 20.3315 20.5342 21.4367 20.5342 22.7956V33.884C20.5342 35.2429 19.429 36.3481 18.0701 36.3481H16.8381V39.4282C16.8381 39.6672 16.7001 39.8853 16.4832 39.9863C16.4007 40.0245 16.3107 40.0442 16.222 40.0442C16.0804 40.0442 15.9399 39.9949 15.8278 39.9013L11.5637 36.3481H3.28562C1.92668 36.3481 0.821541 35.2429 0.821541 33.884V22.7956C0.821541 21.4367 1.92668 20.3315 3.28562 20.3315Z" fill="#2196F3"/>
<path d="M9.76743 29.8934C9.76743 29.4945 9.85357 29.1227 10.0258 28.7781C10.1981 28.4336 10.4067 28.1389 10.6515 27.8941C10.8963 27.6493 11.1411 27.4181 11.3859 27.2005C11.6307 26.9738 11.8393 26.729 12.0116 26.466C12.1838 26.194 12.27 25.9084 12.27 25.6092C12.27 25.1558 12.1113 24.8112 11.794 24.5755C11.4857 24.3307 11.0822 24.2083 10.5835 24.2083C9.58609 24.2083 8.94685 24.648 8.66577 25.5276L7.59131 24.9291C7.81799 24.2944 8.20334 23.8139 8.74738 23.4874C9.29141 23.152 9.90798 22.9842 10.5971 22.9842C11.4041 22.9842 12.0932 23.2109 12.6644 23.6642C13.2447 24.1176 13.5349 24.7478 13.5349 25.5548C13.5349 25.9356 13.4487 26.2937 13.2764 26.6292C13.1042 26.9647 12.8956 27.2549 12.6508 27.4997C12.406 27.7445 12.1612 27.9848 11.9164 28.2205C11.6715 28.4472 11.463 28.7056 11.2907 28.9958C11.1184 29.2768 11.0323 29.5761 11.0323 29.8934H9.76743ZM10.3931 32.8312C10.1483 32.8312 9.93971 32.745 9.76743 32.5728C9.59516 32.4005 9.50902 32.1919 9.50902 31.9471C9.50902 31.7023 9.59516 31.4938 9.76743 31.3215C9.93971 31.1492 10.1483 31.0631 10.3931 31.0631C10.647 31.0631 10.8555 31.1492 11.0187 31.3215C11.191 31.4938 11.2771 31.7023 11.2771 31.9471C11.2771 32.1919 11.191 32.4005 11.0187 32.5728C10.8555 32.745 10.647 32.8312 10.3931 32.8312Z" fill="white"/>
<path fillRule="evenodd" clipRule="evenodd" d="M9.20082 30.4601V29.8934C9.20082 29.4097 9.30601 28.9508 9.51906 28.5247C9.71553 28.1318 9.95841 27.7858 10.2508 27.4934C10.5016 27.2426 10.753 27.0051 11.005 26.7809C11.2151 26.5858 11.391 26.3785 11.5351 26.1593C11.6529 25.972 11.7034 25.7917 11.7034 25.6092C11.7034 25.305 11.607 25.1425 11.4561 25.0304L11.4488 25.025L11.4416 25.0193C11.2577 24.8733 10.989 24.775 10.5836 24.775C10.167 24.775 9.8787 24.8664 9.67728 25.005C9.47981 25.1408 9.31548 25.3564 9.20565 25.7001L8.99491 26.3595L6.89624 25.1906L7.0577 24.7385C7.32513 23.9897 7.79069 23.4015 8.45292 23.0033C9.09263 22.6096 9.81273 22.4175 10.5972 22.4175C11.5168 22.4175 12.3332 22.6785 13.0151 23.219C13.7461 23.791 14.1016 24.5933 14.1016 25.5548C14.1016 26.0247 13.9945 26.4717 13.7806 26.8881C13.5839 27.2713 13.3416 27.6104 13.0516 27.9004C12.8043 28.1477 12.557 28.3905 12.3095 28.6287L12.3055 28.6326L12.3015 28.6363C12.0971 28.8256 11.9229 29.0413 11.7781 29.2851L11.774 29.2919C11.6541 29.4875 11.5991 29.6848 11.5991 29.8934V30.4601H9.20082ZM12.6645 23.6642C12.0932 23.2109 11.4041 22.9842 10.5972 22.9842C9.90806 22.9842 9.29149 23.152 8.74746 23.4874C8.20342 23.8139 7.81807 24.2944 7.59139 24.9291L8.66585 25.5276C8.72766 25.3341 8.8068 25.162 8.90325 25.0111C9.2454 24.4759 9.80551 24.2083 10.5836 24.2083C11.0823 24.2083 11.4857 24.3307 11.794 24.5755C12.1114 24.8112 12.2701 25.1558 12.2701 25.6092C12.2701 25.9084 12.1839 26.194 12.0116 26.466C11.8394 26.729 11.6308 26.9738 11.386 27.2005C11.1412 27.4181 10.8964 27.6493 10.6516 27.8941C10.4068 28.1389 10.1982 28.4336 10.0259 28.7781C9.93804 28.9539 9.87257 29.1368 9.82952 29.3267C9.78818 29.5091 9.76751 29.698 9.76751 29.8934H11.0324C11.0324 29.5761 11.1185 29.2768 11.2908 28.9958C11.4631 28.7056 11.6716 28.4472 11.9164 28.2205C12.1613 27.9848 12.4061 27.7445 12.6509 27.4997C12.8957 27.2549 13.1042 26.9647 13.2765 26.6292C13.4488 26.2937 13.5349 25.9356 13.5349 25.5548C13.5349 24.7478 13.2448 24.1176 12.6645 23.6642ZM10.3932 33.3979C9.99886 33.3979 9.64593 33.2526 9.3668 32.9735C9.08767 32.6944 8.9424 32.3414 8.9424 31.9471C8.9424 31.5528 9.08767 31.1999 9.3668 30.9208C9.64593 30.6416 9.99886 30.4964 10.3932 30.4964C10.788 30.4964 11.1473 30.6362 11.4249 30.9262C11.7005 31.2044 11.8439 31.5554 11.8439 31.9471C11.8439 32.3389 11.7005 32.6899 11.4248 32.9681C11.1473 33.2581 10.788 33.3979 10.3932 33.3979ZM11.0188 32.5728C11.1911 32.4005 11.2772 32.1919 11.2772 31.9471C11.2772 31.7023 11.1911 31.4938 11.0188 31.3215C10.8556 31.1492 10.647 31.0631 10.3932 31.0631C10.1483 31.0631 9.93979 31.1492 9.76751 31.3215C9.59524 31.4938 9.5091 31.7023 9.5091 31.9471C9.5091 32.1919 9.59524 32.4005 9.76751 32.5728C9.93979 32.745 10.1483 32.8312 10.3932 32.8312C10.647 32.8312 10.8556 32.745 11.0188 32.5728Z" fill="black"/>
<path fillRule="evenodd" clipRule="evenodd" d="M16.8281 40.7317L16.83 40.7308C17.3383 40.494 17.6593 39.9843 17.6593 39.4282V37.1694H18.07C19.8826 37.1694 21.3555 35.6966 21.3555 33.884V22.7956C21.3555 20.9831 19.8826 19.5102 18.07 19.5102H3.28555C1.47299 19.5102 0.000112534 20.9831 0.000112534 22.7956V33.884C0.000112534 35.6966 1.47299 37.1694 3.28555 37.1694H11.2663L15.3012 40.5317C15.3013 40.5317 15.3011 40.5316 15.3012 40.5317C15.5635 40.7507 15.8912 40.8655 16.222 40.8655C16.4308 40.8655 16.6383 40.8195 16.8281 40.7317ZM11.5636 36.3481L15.8277 39.9013C15.9398 39.9949 16.0803 40.0442 16.222 40.0442C16.3107 40.0442 16.4006 40.0245 16.4832 39.9863C16.7 39.8853 16.838 39.6672 16.838 39.4282V36.3481H18.07C19.429 36.3481 20.5341 35.2429 20.5341 33.884V22.7956C20.5341 21.4367 19.429 20.3316 18.07 20.3316H3.28555C1.92661 20.3316 0.821472 21.4367 0.821472 22.7956V33.884C0.821472 35.2429 1.92661 36.3481 3.28555 36.3481H11.5636Z" fill="black"/>
</svg>
