<svg width="25" height="25" fill="none" xmlns="http://www.w3.org/2000/svg"><path d="M6.875 16.719l-5.106-1.147-.519-1.666 5.625-2.812 5.625 2.812-.586 1.7-5.039 1.113z" fill="#F1C21D"/><path d="M6.875 24.5L1.25 21.687v-7.78l5.625 2.812 1.406 2.07v3.69L6.875 24.5z" fill="#FFB800"/><path d="M12.5 21.688L6.875 24.5v-7.781l5.625-2.813v7.781z" fill="#D2A400"/><path d="M18.125 16.719l-5.106-1.147-.519-1.666 5.625-2.812 5.625 2.812-.586 1.7-5.039 1.113z" fill="#FF0B69"/><path d="M18.125 24.5L12.5 21.687v-7.78l5.625 2.812 1.406 2.07v3.69L18.125 24.5z" fill="#DD025B"/><path d="M23.75 21.688L18.125 24.5v-7.781l5.625-2.813v7.781z" fill="#9E0A48"/><path d="M12.5 6.125L7.394 4.978l-.519-1.665L12.5.5l5.625 2.813-.586 1.699L12.5 6.125z" fill="#7986E8"/><path d="M12.5 13.906l-5.625-2.812V3.313L12.5 6.124l1.406 2.023v3.737L12.5 13.906z" fill="#6E77E5"/><path d="M18.125 11.094L12.5 13.906V6.125l5.625-2.813v7.782z" fill="#4C5CE1"/></svg>
