<svg width="25" height="25" fill="none" xmlns="http://www.w3.org/2000/svg"><g clip-path="url(#clip0)"><path d="M19.046 7.55a.36.36 0 01-.36-.36v-2a.36.36 0 01.72 0v2a.36.36 0 01-.36.36zM20.89 4.913h-.556a.36.36 0 110-.72h.556c.56 0 1.017-.456 1.017-1.017V2.79h-1.334a.36.36 0 110-.72h1.694a.36.36 0 01.36.36v.745a1.74 1.74 0 01-1.737 1.737z" fill="#E7B729"/><path d="M17.757 4.913h-.556a1.74 1.74 0 01-1.737-1.737v-.744a.36.36 0 01.36-.36h1.693a.36.36 0 110 .72h-1.333v.384c0 .561.456 1.018 1.017 1.018h.556a.36.36 0 110 .72z" fill="#FDD330"/><path d="M19.045 5.43c-.93 0-1.685-.754-1.685-1.685V1.903a.24.24 0 01.24-.24h2.89a.24.24 0 01.24.24v1.842c0 .93-.755 1.685-1.685 1.685z" fill="#FEE265"/><path d="M20.73 1.903v1.842a1.685 1.685 0 01-2.244 1.59 1.685 1.685 0 001.126-1.59V1.903a.24.24 0 00-.24-.24h1.118a.24.24 0 01.24.24z" fill="#FDD330"/><path d="M20.203 8.67h-2.314v-.898c0-.44.356-.796.795-.796h.723c.44 0 .796.357.796.796v.898z" fill="#FEE265"/><path d="M20.202 7.772v.898h-.989v-.898a.796.796 0 00-.662-.785.812.812 0 01.133-.01h.722c.44 0 .796.355.796.795z" fill="#FDD330"/><path d="M13.952 3.427a.36.36 0 01-.001-.72l.507-.001a.36.36 0 01.002.72l-.507.001h-.001zM14.675 2.158a.359.359 0 01-.185-.051l-.44-.263a.36.36 0 01.37-.618l.44.264a.36.36 0 01-.185.668zM14.244 4.958a.36.36 0 01-.187-.667l.438-.267a.36.36 0 01.374.616l-.438.266a.358.358 0 01-.187.052zM24.14 3.427h-.002l-.507-.001a.36.36 0 01.001-.72h.001l.508.001a.36.36 0 01-.001.72zM23.417 2.158a.36.36 0 01-.185-.669l.44-.263a.36.36 0 01.37.617l-.44.264a.358.358 0 01-.185.051zM23.848 4.958a.358.358 0 01-.186-.052l-.439-.266a.36.36 0 01.373-.616l.439.267a.36.36 0 01-.187.667z" fill="#FEE265"/><path d="M1.142 19.687h6.665v4.138H1.142v-4.138z" fill="#FB3A82"/><path d="M3.676 22.206v1.62H1.142V21.14H2.61c.588 0 1.065.477 1.065 1.066z" fill="#FC5A95"/><path d="M8.048 20.035H.901a.4.4 0 01-.401-.4v-.732a.4.4 0 01.401-.4h7.147a.4.4 0 01.401.4v.731a.4.4 0 01-.4.401z" fill="#1C96F9"/><path d="M5.116 17.169h6.665v6.656H5.116V17.17z" fill="#F98824"/><path d="M7.954 19.912v3.913H5.116v-4.979H6.89c.588 0 1.065.477 1.065 1.066z" fill="#FCA62F"/><path d="M12.023 17.517H4.876a.4.4 0 01-.401-.4v-.732a.4.4 0 01.4-.4h7.148a.4.4 0 01.401.4v.731a.4.4 0 01-.4.401z" fill="#1C96F9"/><path d="M9.09 14.65h6.666v9.175H9.091V14.65z" fill="#FDDD45"/><path d="M11.854 17.48v6.345H9.09v-7.41h1.697c.589 0 1.066.477 1.066 1.065z" fill="#FDE784"/><path d="M15.998 14.999H8.85a.401.401 0 01-.4-.401v-.73c0-.222.179-.402.4-.402h7.148c.221 0 .4.18.4.401v.73c0 .222-.179.402-.4.402z" fill="#1C96F9"/><path d="M13.065 12.132h6.666v11.693h-6.666V12.132z" fill="#27D1B3"/><path d="M15.756 14.933v8.892h-2.69v-9.958h1.624c.589 0 1.066.477 1.066 1.066z" fill="#64E0C4"/><path d="M19.972 12.48h-7.147a.401.401 0 01-.401-.4v-.731c0-.222.18-.401.4-.401h7.148c.222 0 .401.18.401.401v.73c0 .222-.18.402-.4.402z" fill="#1C96F9"/><path d="M17.041 9.614h6.665v14.211h-6.665V9.615z" fill="#20B69F"/><path d="M17.041 9.614v1.51h4.177c.608 0 1.102.492 1.102 1.1v11.601h1.386V9.615h-6.665z" fill="#17998C"/><path d="M23.948 9.963H16.8a.401.401 0 01-.4-.401V8.83c0-.222.179-.401.4-.401h7.148c.221 0 .4.18.4.4v.732c0 .221-.179.4-.4.4z" fill="#1C96F9"/><path d="M24.348 8.83v.731a.4.4 0 01-.4.401h-1.194a.4.4 0 00.4-.4V8.83a.4.4 0 00-.4-.401h1.194c.22 0 .4.18.4.4z" fill="#1785F8"/><path d="M22.212 20.7h-1.483a.36.36 0 010-.72h1.483a.36.36 0 010 .72zM22.212 21.936h-3.676a.36.36 0 110-.72h3.675a.36.36 0 110 .72z" fill="#17998C"/><path d="M20.538 11.9l.417.592a.24.24 0 00.126.092l.692.213a.201.201 0 01.102.313l-.435.58a.24.24 0 00-.048.147l.011.725a.201.201 0 01-.266.193l-.686-.235a.24.24 0 00-.155 0l-.686.235a.201.201 0 01-.266-.193l.012-.725a.24.24 0 00-.048-.148l-.436-.58a.201.201 0 01.102-.312l.693-.213a.24.24 0 00.126-.092l.416-.593a.201.201 0 01.33 0z" fill="#FDDD45"/><path d="M21.875 13.11l-.435.58a.24.24 0 00-.048.147l.011.725a.201.201 0 01-.266.193l-.686-.235a.24.24 0 00-.155 0l-.686.235a.201.201 0 01-.266-.194l.004-.267c.983-.339 1.546-1.054 1.862-1.67l.563.173a.201.201 0 01.102.313z" fill="#F8C52D"/></g><defs><clipPath id="clip0"><path fill="#fff" transform="translate(.5 .5)" d="M0 0h24v24H0z"/></clipPath></defs></svg>
