<svg width="14" height="14" viewBox="0 0 14 14" fill="none" xmlns="http://www.w3.org/2000/svg">
<path fill-rule="evenodd" clip-rule="evenodd" d="M7.00002 12.6C10.0928 12.6 12.6 10.0928 12.6 7.00002C12.6 3.90723 10.0928 1.40002 7.00002 1.40002C3.90723 1.40002 1.40002 3.90723 1.40002 7.00002C1.40002 10.0928 3.90723 12.6 7.00002 12.6ZM9.595 6.095C9.86837 5.82163 9.86837 5.37842 9.595 5.10505C9.32163 4.83168 8.87842 4.83168 8.60505 5.10505L6.30002 7.41007L5.395 6.50505C5.12163 6.23168 4.67842 6.23168 4.40505 6.50505C4.13168 6.77842 4.13168 7.22163 4.40505 7.495L5.80505 8.895C6.07842 9.16837 6.52163 9.16837 6.795 8.895L9.595 6.095Z" fill="#0591f5"/>
</svg>
