<svg width="25" height="25" fill="none" xmlns="http://www.w3.org/2000/svg"><g clip-path="url(#clip0)"><path d="M10.766 17.409l-2.748-.049.809-1.891.564-.564 2.283-2.284 4.258-4.257.017-.017.541.54 1.399 1.4-.54.538-1.6 1.6-.248.249-1.887 1.887-1.3 1.299-1.547 1.548z" fill="#92949B"/><path d="M2.283 23.89c-.683-.716-.645-1.856.054-2.556l.707-.706.937-.938 4.316-4.315c.12-.12.315-.12.435 0l.095.094.706.706 1.233 1.233.095.095c.12.12.12.315 0 .435l-5.984 5.984a1.815 1.815 0 01-2.594-.032z" fill="#E8B33F"/><path d="M8.826 15.469l.565-.564 2.283-2.284 4.257-4.257.018-.017.54.54-.539.54-1.6 1.6-.248.248-1.887 1.887-1.3 1.3-1.547 1.548-.542-.541z" fill="#66686D"/><path d="M22.435 9.04c1.492 1.492 1.92 3.855.783 5.789-.787-1.773-2.607-3.773-3.88-4.51l-.063-2.063 2.252-.124.908.908z" fill="#484B54"/><path d="M2.283 23.89c-.683-.716-.645-1.856.054-2.556l.707-.706.937-.938 4.316-4.315c.12-.12.315-.12.435 0l.095.094.706.706s-4.29 2.942-7.25 7.715z" fill="#D39F37"/><path d="M18.836 4.056l-.984 2.728-2.605.861c.265-.374.313-.865.11-1.276a1.65 1.65 0 00-.312-.432 1.647 1.647 0 00-.423-.307 1.26 1.26 0 00-1.285.105l.565-2.655 3.024-.934a1.28 1.28 0 00-.074 1.352 1.658 1.658 0 00.706.671 1.25 1.25 0 001.278-.113z" fill="#484B54"/><path d="M13.338 5.735L11.69 4.09 15.281.5l1.646 1.646s-3.521 3.523-3.59 3.59z" fill="#92949B"/><path d="M13.996 5.076l-.619.619s-.026.028-.04.04L11.69 4.09l.703-.703 1.646 1.647-.043.043zM17.349 10.826l-1.94-1.94.523-.522.017-.017 1.94 1.94-.54.539zM13.613 14.56l-1.94-1.939.958-.957 1.94 1.939-.958.958z" fill="#66686D"/><path d="M22.22 7.44l-.693.692-1.497 1.495-.693.693-.708.708-.741-.742-1.94-1.94-.7-.7c.063-.067 3.522-3.525 3.588-3.59L22.22 7.44z" fill="#92949B"/><path d="M15.082 14.914l1.017 1.017-2.036 2.036-1.016-1.017.428-.428 1.18-1.18.428-.428z" fill="#484B54"/><path d="M22.633 22.632a1.868 1.868 0 01-3.19 1.32L15.75 20.26a.879.879 0 10-1.243-1.244l-.745-.745.303-.303.881-.881 1.155-1.155.303-.303.745.745a.879.879 0 101.244 1.243l3.694 3.695c.364.364.547.843.547 1.32z" fill="#EA3D3D"/><path d="M2.395 3.003l2.51 1.252.22 1.557 9.53 9.53-1.18 1.18-9.53-9.53-1.557-.22-1.251-2.51 1.258-1.259z" fill="#B5B6BA"/><path d="M22.086 23.953c-.73.73-1.913.73-2.642 0l-3.695-3.694a.879.879 0 10-1.243-1.244l-.745-.745.303-.303.881-.88c.059.074 4.305 5.486 7.14 6.866z" fill="#D33333"/></g><defs><clipPath id="clip0"><path fill="#fff" transform="translate(.5 .5)" d="M0 0h24v24H0z"/></clipPath></defs></svg>
